<?xml version="1.0" encoding="UTF-8" standalone="no"?>
<!-- Created with Inkscape (http://www.inkscape.org/) -->

<svg xmlns:dc="http://purl.org/dc/elements/1.1/" xmlns:cc="http://creativecommons.org/ns#" xmlns:rdf="http://www.w3.org/1999/02/22-rdf-syntax-ns#" xmlns:svg="http://www.w3.org/2000/svg" xmlns="http://www.w3.org/2000/svg" xmlns:xlink="http://www.w3.org/1999/xlink" xmlns:sodipodi="http://sodipodi.sourceforge.net/DTD/sodipodi-0.dtd" xmlns:inkscape="http://www.inkscape.org/namespaces/inkscape" width="480" height="320" id="svg2" version="1.1" inkscape:version="0.48.1 " sodipodi:docname="Lvl_Labirint_v3_Box.svg" style="display:inline" inkscape:export-filename="D:\Lunohod\Levels\Lvl_Labirint_v3_Box\Lvl_Labirint_v3_Box.png" inkscape:export-xdpi="90" inkscape:export-ydpi="90">
    <defs id="defs4" />
    <sodipodi:namedview id="base" pagecolor="#ffffff" bordercolor="#666666" borderopacity="1.0" inkscape:pageopacity="0.0" inkscape:pageshadow="2" inkscape:zoom="1" inkscape:cx="204.19667" inkscape:cy="142.29799" inkscape:document-units="px" inkscape:current-layer="layer10" showgrid="false" width="480px" inkscape:showpageshadow="false" inkscape:window-width="1280" inkscape:window-height="744" inkscape:window-x="-4" inkscape:window-y="-4" inkscape:window-maximized="1" showguides="false" inkscape:guide-bbox="true">
        <sodipodi:guide orientation="0,1" position="320,256" id="guide3018" />
        <sodipodi:guide orientation="0,1" position="160,64" id="guide3020" />
        <sodipodi:guide orientation="1,0" position="400,192" id="guide3022" />
        <sodipodi:guide orientation="1,0" position="80,128" id="guide3024" />
        <sodipodi:guide orientation="0,1" position="240,160" id="guide3005" />
        <sodipodi:guide orientation="1,0" position="240,160" id="guide3007" />
        <sodipodi:guide orientation="1,0" position="0,160" id="guide3072" />
        <sodipodi:guide orientation="0,1" position="240,320" id="guide3076" />
        <sodipodi:guide orientation="0,1" position="240,0" id="guide3078" />
        <inkscape:grid type="xygrid" id="grid3023" />
    </sodipodi:namedview>
    <metadata id="metadata7">
        <rdf:RDF>
            <cc:Work rdf:about="">
                <dc:format>image/svg+xml</dc:format>
                <dc:type rdf:resource="http://purl.org/dc/dcmitype/StillImage" />
                <dc:title />
            </cc:Work>
        </rdf:RDF>
    </metadata>
    <g inkscape:groupmode="layer" id="layer1" inkscape:label="_background" style="display:inline" sodipodi:insensitive="true">
        <image y="0" x="0" id="image4137" xlink:href="file:///D:/Lunohod/Grfx/design/backgrounds/brickBlue.png" height="320" width="480" />
    </g>
    <g inkscape:groupmode="layer" id="layer7" inkscape:label="_secondbckg" style="display:inline" sodipodi:insensitive="true">
        <image style="display:inline" y="282.9808" x="311.03702" id="image4217" xlink:href="file:///D:/Lunohod/Grfx/design/second_bckg/second_phon_crack.png" height="45.004879" width="106.94639" />
        <image y="204" x="288" id="image4272" xlink:href="file:///D:/Lunohod/Grfx/design/second_bckg/second_phon_plate2.png" height="20" width="26" />
        <image width="26" height="20" xlink:href="file:///D:/Lunohod/Grfx/design/second_bckg/second_phon_plate2.png" id="image4275" x="314" y="204" />
        <image y="102.30283" x="314.62015" id="image3527" xlink:href="file:///D:/Lunohod/Grfx/design/web/web_01.png" height="28.668209" width="24.934568" style="opacity:0.58048778" />
    </g>
    <g inkscape:groupmode="layer" id="layer10" inkscape:label="_traces" style="opacity:0.5;display:inline" sodipodi:insensitive="true">
        <image style="display:inline" width="25" height="18" xlink:href="file:///D:/Lunohod/Grfx/design/misc/traces_singl.png" id="image3231" x="-61.817905" y="-265.37216" transform="scale(-1,-1)" />
        <image style="display:inline" width="25" height="18" xlink:href="file:///D:/Lunohod/Grfx/design/misc/traces_singl.png" id="image3233" x="261.87216" y="-392.3179" transform="matrix(0,1,-1,0,0,0)" />
        <image style="display:inline" transform="matrix(0,1,-1,0,0,0)" y="-372.3179" x="261.87216" id="image3251" xlink:href="file:///D:/Lunohod/Grfx/design/misc/traces_singl.png" height="18" width="25" />
        <image style="display:inline" width="25" height="18" xlink:href="file:///D:/Lunohod/Grfx/design/misc/traces_singl.png" id="image3254" x="261.87216" y="-352.3179" transform="matrix(0,1,-1,0,0,0)" />
        <image style="display:inline" transform="matrix(0,1,-1,0,0,0)" y="-332.3179" x="261.87216" id="image3257" xlink:href="file:///D:/Lunohod/Grfx/design/misc/traces_singl.png" height="18" width="25" />
        <image style="display:inline" width="25" height="18" xlink:href="file:///D:/Lunohod/Grfx/design/misc/traces_singl.png" id="image3259" x="261.87216" y="-312.3179" transform="matrix(0,1,-1,0,0,0)" />
        <image style="display:inline" transform="matrix(0,1,-1,0,0,0)" y="-292.3179" x="261.87216" id="image3261" xlink:href="file:///D:/Lunohod/Grfx/design/misc/traces_singl.png" height="18" width="25" />
        <image style="display:inline" width="25" height="18" xlink:href="file:///D:/Lunohod/Grfx/design/misc/traces_singl.png" id="image3263" x="261.87216" y="-272.3179" transform="matrix(0,1,-1,0,0,0)" />
        <image style="display:inline" transform="matrix(0,1,-1,0,0,0)" y="-252.3179" x="261.87216" id="image3265" xlink:href="file:///D:/Lunohod/Grfx/design/misc/traces_singl.png" height="18" width="25" />
        <image style="display:inline" width="25" height="18" xlink:href="file:///D:/Lunohod/Grfx/design/misc/traces_singl.png" id="image3267" x="261.87216" y="-232.3179" transform="matrix(0,1,-1,0,0,0)" />
        <image style="display:inline" transform="matrix(0,1,-1,0,0,0)" y="-212.3179" x="261.87216" id="image3269" xlink:href="file:///D:/Lunohod/Grfx/design/misc/traces_singl.png" height="18" width="25" />
        <image style="display:inline" width="25" height="18" xlink:href="file:///D:/Lunohod/Grfx/design/misc/traces_singl.png" id="image3271" x="261.87216" y="-192.3179" transform="matrix(0,1,-1,0,0,0)" />
        <image style="display:inline" transform="matrix(0,1,-1,0,0,0)" y="-172.3179" x="261.87216" id="image3274" xlink:href="file:///D:/Lunohod/Grfx/design/misc/traces_singl.png" height="18" width="25" />
        <image style="display:inline" width="25" height="18" xlink:href="file:///D:/Lunohod/Grfx/design/misc/traces_singl.png" id="image3276" x="261.87216" y="-152.3179" transform="matrix(0,1,-1,0,0,0)" />
        <image style="display:inline" transform="matrix(0,1,-1,0,0,0)" y="-132.3179" x="261.87216" id="image3278" xlink:href="file:///D:/Lunohod/Grfx/design/misc/traces_singl.png" height="18" width="25" />
        <image style="display:inline" width="25" height="18" xlink:href="file:///D:/Lunohod/Grfx/design/misc/traces_singl.png" id="image3280" x="261.87216" y="-112.3179" transform="matrix(0,1,-1,0,0,0)" />
        <image style="display:inline" transform="matrix(0,1,-1,0,0,0)" y="-92.317902" x="261.87216" id="image3282" xlink:href="file:///D:/Lunohod/Grfx/design/misc/traces_singl.png" height="18" width="25" />
        <image style="display:inline" width="25" height="18" xlink:href="file:///D:/Lunohod/Grfx/design/misc/traces_singl.png" id="image3284" x="261.87216" y="-72.317902" transform="matrix(0,1,-1,0,0,0)" />
        <image style="display:inline" transform="matrix(0,1,-1,0,0,0)" y="-52.317902" x="261.87216" id="image3286" xlink:href="file:///D:/Lunohod/Grfx/design/misc/traces_singl.png" height="18" width="25" />
        <image style="display:inline" transform="scale(-1,-1)" y="-245.37218" x="-61.817905" id="image3288" xlink:href="file:///D:/Lunohod/Grfx/design/misc/traces_singl.png" height="18" width="25" />
        <image style="display:inline" width="25" height="18" xlink:href="file:///D:/Lunohod/Grfx/design/misc/traces_singl.png" id="image3290" x="-61.817905" y="-225.37218" transform="scale(-1,-1)" />
        <image style="display:inline" transform="scale(-1,-1)" y="-205.37218" x="-61.817905" id="image3292" xlink:href="file:///D:/Lunohod/Grfx/design/misc/traces_singl.png" height="18" width="25" />
        <image style="display:inline" width="25" height="18" xlink:href="file:///D:/Lunohod/Grfx/design/misc/traces_singl.png" id="image3294" x="-61.817905" y="-185.37218" transform="scale(-1,-1)" />
        <image style="display:inline" transform="scale(-1,-1)" y="-165.37218" x="-61.817905" id="image3296" xlink:href="file:///D:/Lunohod/Grfx/design/misc/traces_singl.png" height="18" width="25" />
        <image style="display:inline" width="25" height="18" xlink:href="file:///D:/Lunohod/Grfx/design/misc/traces_singl.png" id="image3298" x="-61.817905" y="-145.37218" transform="scale(-1,-1)" />
        <image style="display:inline" transform="scale(-1,-1)" y="-125.37218" x="-61.817905" id="image3300" xlink:href="file:///D:/Lunohod/Grfx/design/misc/traces_singl.png" height="18" width="25" />
        <image style="display:inline" width="25" height="18" xlink:href="file:///D:/Lunohod/Grfx/design/misc/traces_singl.png" id="image3302" x="-61.817905" y="-103.37218" transform="scale(-1,-1)" />
        <image style="display:inline" transform="scale(-1,-1)" y="-79.372169" x="-61.817905" id="image3304" xlink:href="file:///D:/Lunohod/Grfx/design/misc/traces_singl.png" height="18" width="25" />
        <image y="-253.76779" x="-442.43866" id="image3432" xlink:href="file:///D:/Lunohod/Grfx/design/misc/traces_singl.png" height="18" width="25" transform="scale(-1,-1)" />
        <image transform="scale(-1,-1)" width="25" height="18" xlink:href="file:///D:/Lunohod/Grfx/design/misc/traces_singl.png" id="image3435" x="-442.43866" y="-233.76779" />
        <image y="-213.76779" x="-442.43866" id="image3437" xlink:href="file:///D:/Lunohod/Grfx/design/misc/traces_singl.png" height="18" width="25" transform="scale(-1,-1)" />
        <image transform="scale(-1,-1)" width="25" height="18" xlink:href="file:///D:/Lunohod/Grfx/design/misc/traces_singl.png" id="image3439" x="-442.43866" y="-193.76779" />
        <image y="-173.76779" x="-442.43866" id="image3441" xlink:href="file:///D:/Lunohod/Grfx/design/misc/traces_singl.png" height="18" width="25" transform="scale(-1,-1)" />
        <image transform="scale(-1,-1)" width="25" height="18" xlink:href="file:///D:/Lunohod/Grfx/design/misc/traces_singl.png" id="image3443" x="-442.43866" y="-153.76779" />
        <image y="-133.76779" x="-442.43866" id="image3445" xlink:href="file:///D:/Lunohod/Grfx/design/misc/traces_singl.png" height="18" width="25" transform="scale(-1,-1)" />
        <image transform="scale(-1,-1)" width="25" height="18" xlink:href="file:///D:/Lunohod/Grfx/design/misc/traces_singl.png" id="image3447" x="-442.43866" y="-113.76779" />
        <image y="-93.767792" x="-442.43866" id="image3449" xlink:href="file:///D:/Lunohod/Grfx/design/misc/traces_singl.png" height="18" width="25" transform="scale(-1,-1)" />
        <image transform="scale(-1,-1)" width="25" height="18" xlink:href="file:///D:/Lunohod/Grfx/design/misc/traces_singl.png" id="image3451" x="-442.43866" y="-73.767792" />
        <image y="-53.767792" x="-442.43866" id="image3453" xlink:href="file:///D:/Lunohod/Grfx/design/misc/traces_singl.png" height="18" width="25" transform="scale(-1,-1)" />
        <image transform="matrix(0,1,-1,0,0,0)" y="-416.3179" x="31.872162" id="image3455" xlink:href="file:///D:/Lunohod/Grfx/design/misc/traces_singl.png" height="18" width="25" style="display:inline" />
        <image width="25" height="18" xlink:href="file:///D:/Lunohod/Grfx/design/misc/traces_singl.png" id="image3457" x="31.872162" y="-396.3179" transform="matrix(0,1,-1,0,0,0)" style="display:inline" />
        <image transform="matrix(0,1,-1,0,0,0)" y="-376.3179" x="31.872162" id="image3459" xlink:href="file:///D:/Lunohod/Grfx/design/misc/traces_singl.png" height="18" width="25" style="display:inline" />
        <image width="25" height="18" xlink:href="file:///D:/Lunohod/Grfx/design/misc/traces_singl.png" id="image3461" x="31.872162" y="-356.3179" transform="matrix(0,1,-1,0,0,0)" style="display:inline" />
        <image transform="matrix(0,1,-1,0,0,0)" y="-336.3179" x="31.872162" id="image3463" xlink:href="file:///D:/Lunohod/Grfx/design/misc/traces_singl.png" height="18" width="25" style="display:inline" />
        <image width="25" height="18" xlink:href="file:///D:/Lunohod/Grfx/design/misc/traces_singl.png" id="image3465" x="31.872162" y="-316.3179" transform="matrix(0,1,-1,0,0,0)" style="display:inline" />
        <image transform="matrix(0,1,-1,0,0,0)" y="-296.3179" x="31.872162" id="image3467" xlink:href="file:///D:/Lunohod/Grfx/design/misc/traces_singl.png" height="18" width="25" style="display:inline" />
        <image width="25" height="18" xlink:href="file:///D:/Lunohod/Grfx/design/misc/traces_singl.png" id="image3469" x="31.872162" y="-276.3179" transform="matrix(0,1,-1,0,0,0)" style="display:inline" />
        <image transform="matrix(0,1,-1,0,0,0)" y="-256.3179" x="31.872162" id="image3471" xlink:href="file:///D:/Lunohod/Grfx/design/misc/traces_singl.png" height="18" width="25" style="display:inline" />
        <image width="25" height="18" xlink:href="file:///D:/Lunohod/Grfx/design/misc/traces_singl.png" id="image3473" x="31.872162" y="-236.3179" transform="matrix(0,1,-1,0,0,0)" style="display:inline" />
        <image transform="matrix(0,1,-1,0,0,0)" y="-216.3179" x="31.872162" id="image3475" xlink:href="file:///D:/Lunohod/Grfx/design/misc/traces_singl.png" height="18" width="25" style="display:inline" />
        <image width="25" height="18" xlink:href="file:///D:/Lunohod/Grfx/design/misc/traces_singl.png" id="image3477" x="31.872162" y="-196.3179" transform="matrix(0,1,-1,0,0,0)" style="display:inline" />
        <image transform="matrix(0,1,-1,0,0,0)" y="-176.3179" x="31.872162" id="image3479" xlink:href="file:///D:/Lunohod/Grfx/design/misc/traces_singl.png" height="18" width="25" style="display:inline" />
        <image width="25" height="18" xlink:href="file:///D:/Lunohod/Grfx/design/misc/traces_singl.png" id="image3481" x="31.872162" y="-156.3179" transform="matrix(0,1,-1,0,0,0)" style="display:inline" />
        <image transform="matrix(0,1,-1,0,0,0)" y="-138.3179" x="31.872162" id="image3483" xlink:href="file:///D:/Lunohod/Grfx/design/misc/traces_singl.png" height="18" width="25" style="display:inline" />
        <image width="25" height="18" xlink:href="file:///D:/Lunohod/Grfx/design/misc/traces_singl.png" id="image3485" x="31.872162" y="-118.3179" transform="matrix(0,1,-1,0,0,0)" style="display:inline" />
        <image transform="matrix(0,1,-1,0,0,0)" y="-98.317902" x="31.872162" id="image3487" xlink:href="file:///D:/Lunohod/Grfx/design/misc/traces_singl.png" height="18" width="25" style="display:inline" />
        <image width="25" height="18" xlink:href="file:///D:/Lunohod/Grfx/design/misc/traces_singl.png" id="image3489" x="31.872162" y="-76.317902" transform="matrix(0,1,-1,0,0,0)" style="display:inline" />
    </g>
    <g inkscape:groupmode="layer" id="layer4" inkscape:label="blocks" sodipodi:insensitive="true">
        <image y="-30" x="0" id="image4184" xlink:href="file:///D:/Lunohod/Grfx/objects/unvisible/BlockStick/BlockStick.png" height="50" width="479.75208" />
        <image width="479.75208" height="50" xlink:href="file:///D:/Lunohod/Grfx/objects/unvisible/BlockStick/BlockStick.png" id="image4187" x="0" y="300" />
        <image y="0" x="-62" id="image4189" xlink:href="file:///D:/Lunohod/Grfx/objects/unvisible/BlockStick/BlockStick.png" height="350" width="80" />
        <image width="80" height="350" xlink:href="file:///D:/Lunohod/Grfx/objects/unvisible/BlockStick/BlockStick.png" id="image4191" x="460" y="0" />
        <image y="64.066116" x="80" id="image4193" xlink:href="file:///D:/Lunohod/Grfx/objects/unvisible/BlockStick/BlockStick.png" height="39.933884" width="52" />
        <image width="52" height="39.933884" xlink:href="file:///D:/Lunohod/Grfx/objects/unvisible/BlockStick/BlockStick.png" id="image4195" x="340" y="64" />
        <image y="204" x="340" id="image4197" xlink:href="file:///D:/Lunohod/Grfx/objects/unvisible/BlockStick/BlockStick.png" height="39.933884" width="52" />
        <image width="52" height="39.933884" xlink:href="file:///D:/Lunohod/Grfx/objects/unvisible/BlockStick/BlockStick.png" id="image4199" x="80" y="204" />
        <image width="210.49207" height="20" xlink:href="file:///D:/Lunohod/Grfx/objects/unvisible/BlockStick/BlockStick.png" id="image4201" x="129.67371" y="84" />
        <image y="204" x="127.67371" id="image4203" xlink:href="file:///D:/Lunohod/Grfx/objects/unvisible/BlockStick/BlockStick.png" height="20" width="160.32629" />
        <image width="26" height="120" xlink:href="file:///D:/Lunohod/Grfx/objects/unvisible/BlockStick/BlockStick.png" id="image4205" x="106" y="84" />
        <image y="84" x="340" id="image4207" xlink:href="file:///D:/Lunohod/Grfx/objects/unvisible/BlockStick/BlockStick.png" height="120" width="26" />
    </g>
    <g inkscape:groupmode="layer" id="layer8" inkscape:label="_design" style="display:inline" sodipodi:insensitive="true">
        <image y="0" x="-8" id="image3016-1" xlink:href="file:///D:/Lunohod/Grfx/design/wall/Brick/texture_brick_clean.png" height="20" width="26" />
        <image width="26" height="20" xlink:href="file:///D:/Lunohod/Grfx/design/wall/Brick/texture_brick_clean.png" id="image3019" x="18" y="0" />
        <image width="26" height="20" xlink:href="file:///D:/Lunohod/Grfx/design/wall/Brick/texture_brick_clean.png" id="image3023" x="44" y="0" />
        <image y="0" x="70" id="image3025" xlink:href="file:///D:/Lunohod/Grfx/design/wall/Brick/texture_brick_clean.png" height="20" width="26" />
        <image width="26" height="20" xlink:href="file:///D:/Lunohod/Grfx/design/wall/Brick/texture_brick_clean.png" id="image3027" x="96" y="0" />
        <image y="0" x="122" id="image3029" xlink:href="file:///D:/Lunohod/Grfx/design/wall/Brick/texture_brick_clean.png" height="20" width="26" />
        <image y="0" x="148" id="image3031" xlink:href="file:///D:/Lunohod/Grfx/design/wall/Brick/texture_brick_clean.png" height="20" width="26" />
        <image width="26" height="20" xlink:href="file:///D:/Lunohod/Grfx/design/wall/Brick/texture_brick_clean.png" id="image3033" x="174" y="0" />
        <image width="26" height="20" xlink:href="file:///D:/Lunohod/Grfx/design/wall/Brick/texture_brick_clean.png" id="image3035" x="200" y="0" />
        <image y="0" x="226" id="image3037" xlink:href="file:///D:/Lunohod/Grfx/design/wall/Brick/texture_brick_clean.png" height="20" width="26" />
        <image y="0" x="252" id="image3039" xlink:href="file:///D:/Lunohod/Grfx/design/wall/Brick/texture_brick_clean.png" height="20" width="26" />
        <image width="26" height="20" xlink:href="file:///D:/Lunohod/Grfx/design/wall/Brick/texture_brick_clean.png" id="image3041" x="278" y="0" />
        <image y="0" x="304" id="image3043" xlink:href="file:///D:/Lunohod/Grfx/design/wall/Brick/texture_brick_clean.png" height="20" width="26" />
        <image width="26" height="20" xlink:href="file:///D:/Lunohod/Grfx/design/wall/Brick/texture_brick_clean.png" id="image3045" x="330" y="0" />
        <image width="26" height="20" xlink:href="file:///D:/Lunohod/Grfx/design/wall/Brick/texture_brick_clean.png" id="image3047" x="356" y="0" />
        <image y="0" x="382" id="image3050" xlink:href="file:///D:/Lunohod/Grfx/design/wall/Brick/texture_brick_clean.png" height="20" width="26" />
        <image y="0" x="408" id="image3052" xlink:href="file:///D:/Lunohod/Grfx/design/wall/Brick/texture_brick_clean.png" height="20" width="26" />
        <image width="26" height="20" xlink:href="file:///D:/Lunohod/Grfx/design/wall/Brick/texture_brick_clean.png" id="image3054" x="434" y="0" />
        <image y="0" x="460" id="image3056" xlink:href="file:///D:/Lunohod/Grfx/design/wall/Brick/texture_brick_clean.png" height="20" width="26" />
        <image width="26" height="20" xlink:href="file:///D:/Lunohod/Grfx/design/wall/Brick/texture_brick_clean.png" id="image3062" x="-8" y="300" />
        <image y="300" x="18" id="image3064" xlink:href="file:///D:/Lunohod/Grfx/design/wall/Brick/texture_brick_clean.png" height="20" width="26" />
        <image y="300" x="44" id="image3066" xlink:href="file:///D:/Lunohod/Grfx/design/wall/Brick/texture_brick_clean.png" height="20" width="26" />
        <image width="26" height="20" xlink:href="file:///D:/Lunohod/Grfx/design/wall/Brick/texture_brick_clean.png" id="image3068" x="70" y="300" />
        <image y="300" x="96" id="image3070" xlink:href="file:///D:/Lunohod/Grfx/design/wall/Brick/texture_brick_clean.png" height="20" width="26" />
        <image width="26" height="20" xlink:href="file:///D:/Lunohod/Grfx/design/wall/Brick/texture_brick_clean.png" id="image3072" x="122" y="300" />
        <image width="26" height="20" xlink:href="file:///D:/Lunohod/Grfx/design/wall/Brick/texture_brick_clean.png" id="image3074" x="148" y="300" />
        <image y="300" x="174" id="image3076" xlink:href="file:///D:/Lunohod/Grfx/design/wall/Brick/texture_brick_clean.png" height="20" width="26" />
        <image y="300" x="200" id="image3078" xlink:href="file:///D:/Lunohod/Grfx/design/wall/Brick/texture_brick_clean.png" height="20" width="26" />
        <image y="300" x="356" id="image3090" xlink:href="file:///D:/Lunohod/Grfx/design/wall/Brick/texture_brick_clean.png" height="20" width="26" />
        <image width="26" height="20" xlink:href="file:///D:/Lunohod/Grfx/design/wall/Brick/texture_brick_clean.png" id="image3092" x="382" y="300" />
        <image width="26" height="20" xlink:href="file:///D:/Lunohod/Grfx/design/wall/Brick/texture_brick_clean.png" id="image3094" x="408" y="300" />
        <image y="300" x="434" id="image3096" xlink:href="file:///D:/Lunohod/Grfx/design/wall/Brick/texture_brick_clean.png" height="20" width="26" />
        <image width="26" height="20" xlink:href="file:///D:/Lunohod/Grfx/design/wall/Brick/texture_brick_clean.png" id="image3098" x="460" y="300" />
        <image width="26" height="20" xlink:href="file:///D:/Lunohod/Grfx/design/wall/Brick/texture_brick_clean.png" id="image3100" x="-8" y="20" />
        <image y="40" x="-8" id="image3102" xlink:href="file:///D:/Lunohod/Grfx/design/wall/Brick/texture_brick_clean.png" height="20" width="26" />
        <image width="26" height="20" xlink:href="file:///D:/Lunohod/Grfx/design/wall/Brick/texture_brick_clean.png" id="image3104" x="-8" y="60" />
        <image y="80" x="-8" id="image3106" xlink:href="file:///D:/Lunohod/Grfx/design/wall/Brick/texture_brick_clean.png" height="20" width="26" />
        <image width="26" height="20" xlink:href="file:///D:/Lunohod/Grfx/design/wall/Brick/texture_brick_clean.png" id="image3108" x="-8" y="100" />
        <image y="120" x="-8" id="image3110" xlink:href="file:///D:/Lunohod/Grfx/design/wall/Brick/texture_brick_clean.png" height="20" width="26" />
        <image width="26" height="20" xlink:href="file:///D:/Lunohod/Grfx/design/wall/Brick/texture_brick_clean.png" id="image3112" x="-8" y="140" />
        <image y="160" x="-8" id="image3114" xlink:href="file:///D:/Lunohod/Grfx/design/wall/Brick/texture_brick_clean.png" height="20" width="26" />
        <image width="26" height="20" xlink:href="file:///D:/Lunohod/Grfx/design/wall/Brick/texture_brick_clean.png" id="image3116" x="-8" y="180" />
        <image y="200" x="-8" id="image3118" xlink:href="file:///D:/Lunohod/Grfx/design/wall/Brick/texture_brick_clean.png" height="20" width="26" />
        <image width="26" height="20" xlink:href="file:///D:/Lunohod/Grfx/design/wall/Brick/texture_brick_clean.png" id="image3120" x="-8" y="220" />
        <image y="240" x="-8" id="image3122" xlink:href="file:///D:/Lunohod/Grfx/design/wall/Brick/texture_brick_clean.png" height="20" width="26" />
        <image width="26" height="20" xlink:href="file:///D:/Lunohod/Grfx/design/wall/Brick/texture_brick_clean.png" id="image3124" x="-8" y="260" />
        <image y="280" x="-8" id="image3126" xlink:href="file:///D:/Lunohod/Grfx/design/wall/Brick/texture_brick_clean.png" height="20" width="26" />
        <image y="20" x="460" id="image3130" xlink:href="file:///D:/Lunohod/Grfx/design/wall/Brick/texture_brick_clean.png" height="20" width="26" />
        <image width="26" height="20" xlink:href="file:///D:/Lunohod/Grfx/design/wall/Brick/texture_brick_clean.png" id="image3132" x="460" y="40" />
        <image y="60" x="460" id="image3134" xlink:href="file:///D:/Lunohod/Grfx/design/wall/Brick/texture_brick_clean.png" height="20" width="26" />
        <image width="26" height="20" xlink:href="file:///D:/Lunohod/Grfx/design/wall/Brick/texture_brick_clean.png" id="image3136" x="460" y="80" />
        <image y="100" x="460" id="image3138" xlink:href="file:///D:/Lunohod/Grfx/design/wall/Brick/texture_brick_clean.png" height="20" width="26" />
        <image width="26" height="20" xlink:href="file:///D:/Lunohod/Grfx/design/wall/Brick/texture_brick_clean.png" id="image3140" x="460" y="120" />
        <image y="140" x="460" id="image3142" xlink:href="file:///D:/Lunohod/Grfx/design/wall/Brick/texture_brick_clean.png" height="20" width="26" />
        <image width="26" height="20" xlink:href="file:///D:/Lunohod/Grfx/design/wall/Brick/texture_brick_clean.png" id="image3144" x="460" y="160" />
        <image y="180" x="460" id="image3146" xlink:href="file:///D:/Lunohod/Grfx/design/wall/Brick/texture_brick_clean.png" height="20" width="26" />
        <image width="26" height="20" xlink:href="file:///D:/Lunohod/Grfx/design/wall/Brick/texture_brick_clean.png" id="image3148" x="460" y="200" />
        <image y="220" x="460" id="image3150" xlink:href="file:///D:/Lunohod/Grfx/design/wall/Brick/texture_brick_clean.png" height="20" width="26" />
        <image width="26" height="20" xlink:href="file:///D:/Lunohod/Grfx/design/wall/Brick/texture_brick_clean.png" id="image3152" x="460" y="240" />
        <image y="260" x="460" id="image3154" xlink:href="file:///D:/Lunohod/Grfx/design/wall/Brick/texture_brick_clean.png" height="20" width="26" />
        <image width="26" height="20" xlink:href="file:///D:/Lunohod/Grfx/design/wall/Brick/texture_brick_clean.png" id="image3156" x="460" y="280" />
        <image y="64" x="80" id="image3158" xlink:href="file:///D:/Lunohod/Grfx/design/wall/Brick/texture_brick_clean.png" height="20" width="26" />
        <image width="26" height="20" xlink:href="file:///D:/Lunohod/Grfx/design/wall/Brick/texture_brick_clean.png" id="image3160" x="106" y="64" />
        <image width="26" height="20" xlink:href="file:///D:/Lunohod/Grfx/design/wall/Brick/texture_brick_clean.png" id="image3162" x="132" y="84" />
        <image y="84" x="158" id="image3164" xlink:href="file:///D:/Lunohod/Grfx/design/wall/Brick/texture_brick_clean.png" height="20" width="26" />
        <image width="26" height="20" xlink:href="file:///D:/Lunohod/Grfx/design/wall/Brick/texture_brick_clean.png" id="image3166" x="184" y="84" />
        <image y="84" x="210" id="image3168" xlink:href="file:///D:/Lunohod/Grfx/design/wall/Brick/texture_brick_clean.png" height="20" width="26" />
        <image y="84" x="236" id="image3170" xlink:href="file:///D:/Lunohod/Grfx/design/wall/Brick/texture_brick_clean.png" height="20" width="26" />
        <image width="26" height="20" xlink:href="file:///D:/Lunohod/Grfx/design/wall/Brick/texture_brick_clean.png" id="image3172" x="262" y="84" />
        <image width="26" height="20" xlink:href="file:///D:/Lunohod/Grfx/design/wall/Brick/texture_brick_clean.png" id="image3174" x="288" y="84" />
        <image y="84" x="314" id="image3176" xlink:href="file:///D:/Lunohod/Grfx/design/wall/Brick/texture_brick_clean.png" height="20" width="26" />
        <image y="64" x="340" id="image3178" xlink:href="file:///D:/Lunohod/Grfx/design/wall/Brick/texture_brick_clean.png" height="20" width="26" />
        <image width="26" height="20" xlink:href="file:///D:/Lunohod/Grfx/design/wall/Brick/texture_brick_clean.png" id="image3180" x="366" y="64" />
        <image y="224" x="106" id="image3184" xlink:href="file:///D:/Lunohod/Grfx/design/wall/Brick/texture_brick_clean.png" height="20" width="26" />
        <image y="204" x="184" id="image3190" xlink:href="file:///D:/Lunohod/Grfx/design/wall/Brick/texture_brick_clean.png" height="20" width="26" />
        <image width="26" height="20" xlink:href="file:///D:/Lunohod/Grfx/design/wall/Brick/texture_brick_clean.png" id="image3192" x="210" y="204" />
        <image width="26" height="20" xlink:href="file:///D:/Lunohod/Grfx/design/wall/Brick/texture_brick_clean.png" id="image3194" x="236" y="204" />
        <image width="26" height="20" xlink:href="file:///D:/Lunohod/Grfx/design/wall/Brick/texture_brick_clean.png" id="image3202" x="340" y="224" />
        <image y="224" x="366" id="image3204" xlink:href="file:///D:/Lunohod/Grfx/design/wall/Brick/texture_brick_clean.png" height="20" width="26" />
        <image width="26" height="20" xlink:href="file:///D:/Lunohod/Grfx/design/wall/Brick/texture_brick_clean.png" id="image3206" x="80" y="84" />
        <image y="104" x="106" id="image3208" xlink:href="file:///D:/Lunohod/Grfx/design/wall/Brick/texture_brick_clean.png" height="20" width="26" />
        <image width="26" height="20" xlink:href="file:///D:/Lunohod/Grfx/design/wall/Brick/texture_brick_clean.png" id="image3210" x="106" y="124" />
        <image y="144" x="106" id="image3212" xlink:href="file:///D:/Lunohod/Grfx/design/wall/Brick/texture_brick_clean.png" height="20" width="26" />
        <image width="26" height="20" xlink:href="file:///D:/Lunohod/Grfx/design/wall/Brick/texture_brick_clean.png" id="image3214" x="106" y="164" />
        <image y="184" x="106" id="image3216" xlink:href="file:///D:/Lunohod/Grfx/design/wall/Brick/texture_brick_clean.png" height="20" width="26" />
        <image width="26" height="20" xlink:href="file:///D:/Lunohod/Grfx/design/wall/Brick/texture_brick_clean.png" id="image3222" x="366" y="204" />
        <image y="184" x="340" id="image3224" xlink:href="file:///D:/Lunohod/Grfx/design/wall/Brick/texture_brick_clean.png" height="20" width="26" />
        <image width="26" height="20" xlink:href="file:///D:/Lunohod/Grfx/design/wall/Brick/texture_brick_clean.png" id="image3226" x="340" y="164" />
        <image y="144" x="340" id="image3228" xlink:href="file:///D:/Lunohod/Grfx/design/wall/Brick/texture_brick_clean.png" height="20" width="26" />
        <image width="26" height="20" xlink:href="file:///D:/Lunohod/Grfx/design/wall/Brick/texture_brick_clean.png" id="image3230" x="340" y="124" />
        <image y="104" x="340" id="image3232" xlink:href="file:///D:/Lunohod/Grfx/design/wall/Brick/texture_brick_clean.png" height="20" width="26" />
        <image width="26" height="20" xlink:href="file:///D:/Lunohod/Grfx/design/wall/Brick/texture_brick_clean.png" id="image3234" x="366" y="84" />
        <image y="84" x="106" id="image3240" xlink:href="file:///D:/Lunohod/Grfx/design/wall/Brick/texture_brick_clean.png" height="20" width="26" />
        <image width="26" height="20" xlink:href="file:///D:/Lunohod/Grfx/design/wall/Brick/texture_brick_clean.png" id="image3242" x="106" y="204" />
        <image width="26" height="20" xlink:href="file:///D:/Lunohod/Grfx/design/wall/Brick/texture_brick_clean.png" id="image3273" x="132" y="204" />
        <image y="204" x="158" id="image3275" xlink:href="file:///D:/Lunohod/Grfx/design/wall/Brick/texture_brick_clean.png" height="20" width="26" />
        <image y="204" x="262" id="image4350" xlink:href="file:///D:/Lunohod/Grfx/design/wall/Brick/texture_brick_1.png" height="20" width="26" />
        <image y="204" x="340" id="image4361" xlink:href="file:///D:/Lunohod/Grfx/design/wall/Brick/texture_brick_2.png" height="20" width="26" />
        <image y="224" x="80" id="image4372" xlink:href="file:///D:/Lunohod/Grfx/design/wall/Brick/texture_brick_5.png" height="20" width="26" />
        <image y="204" x="80" id="image4383" xlink:href="file:///D:/Lunohod/Grfx/design/wall/Brick/texture_brick_3.png" height="20" width="26" />
        <image y="84" x="340" id="image4394" xlink:href="file:///D:/Lunohod/Grfx/design/wall/Brick/texture_brick_6.png" height="20" width="26" />
        <image y="300" x="226" id="image4405" xlink:href="file:///D:/Lunohod/Grfx/design/wall/Brick/texture_brick_2.png" height="20" width="26" />
        <image y="300" x="278" id="image4427" xlink:href="file:///D:/Lunohod/Grfx/design/wall/Brick/texture_brick_3.png" height="20" width="26" />
        <image width="26" height="20" xlink:href="file:///D:/Lunohod/Grfx/design/wall/Brick/texture_brick_4.png" id="image4430" x="304" y="300" />
        <image y="300" x="330" id="image4440" xlink:href="file:///D:/Lunohod/Grfx/design/wall/Brick/texture_brick_5.png" height="20" width="26" />
        <image width="26" height="20" xlink:href="file:///D:/Lunohod/Grfx/design/wall/Brick/texture_brick_clean.png" id="image4454" x="252" y="300" />
    </g>
    <g inkscape:groupmode="layer" id="layer2" inkscape:label="action" style="display:inline" sodipodi:insensitive="true">
        <image width="28" height="19" xlink:href="file:///D:/Lunohod/Grfx/objects/visible/Food/fishType02.png" id="image3504" x="54.261723" y="157.62216" />
        <image width="28" height="19" xlink:href="file:///D:/Lunohod/Grfx/objects/visible/Food/fishType02.png" id="image3506" x="296.73306" y="34.608837" />
        <image y="262.85901" x="409.79156" id="image3501" xlink:href="file:///D:/Lunohod/Grfx/objects/visible/Food/fishType02.png" height="19" width="28" />
        <image y="196.99681" x="299.73309" id="image3516" xlink:href="file:///D:/Lunohod/Grfx/objects/visible/Food/fishType06.png" height="27" width="22" />
        <g id="g4171">
            <image width="18" height="21" xlink:href="file:///D:/Lunohod/Grfx/objects/visible/EnemyRat4/EnemyRat4_Dimensions.png" id="image3318" x="376" y="264" />
            <image width="4" height="200" xlink:href="file:///D:/Lunohod/Grfx/objects/unvisible/Moving/up.png" id="image4148" x="38.809917" y="64" />
            <image width="337.19009" height="4" xlink:href="file:///D:/Lunohod/Grfx/objects/unvisible/Moving/left.png" id="image4159" x="38.809917" y="264" />
        </g>
        <g id="g4166">
            <image width="22" height="23" xlink:href="file:///D:/Lunohod/Grfx/objects/visible/EnemyRat2/EnemyRat2_Dimensions.png" id="image3329" x="418" y="229" />
            <image y="33.958679" x="418" id="image4162" xlink:href="file:///D:/Lunohod/Grfx/objects/unvisible/Moving/up.png" height="195.04132" width="4" />
            <image y="33.958679" x="56.842964" id="image4164" xlink:href="file:///D:/Lunohod/Grfx/objects/unvisible/Moving/left.png" height="4" width="361.15704" />
        </g>
        <image y="174.99539" x="220.95663" id="image4296" xlink:href="file:///D:/Lunohod/Grfx/objects/visible/EnemyRat1/EnemyRat1_Dimensions.png" height="25" width="28" />
    </g>
    <g inkscape:groupmode="layer" id="layer5" inkscape:label="actionTHE" style="display:none" sodipodi:insensitive="true">
        <image y="0" x="0" id="image3038" xlink:href="file:///D:/Lunohod/Grfx/objects/visible/Tower/transmitter_2_off.png" height="30" width="30" />
        <image y="35.783718" x="36.567432" id="image3015" xlink:href="file:///D:/Lunohod/Grfx/objects/visible/Hero/heroDimensions.png" height="23" width="33" />
        <image y="150" x="142" id="image3049" xlink:href="file:///D:/Lunohod/Grfx/objects/visible/Exit/refrigerator.png" height="54" width="37" />
    </g>
    <g inkscape:groupmode="layer" id="layer9" inkscape:label="dash" style="opacity:0.29861109;display:none" sodipodi:insensitive="true">
        <image y="0" x="0" id="image3016" xlink:href="file:///D:/Lunohod/Art/dashboard/screenTapAreas_dash_M_btnSize52.png" height="320" width="480" />
    </g>
    <g inkscape:groupmode="layer" id="layer6" inkscape:label="upmask" style="display:none" sodipodi:insensitive="true">
        <rect style="fill:#ffffff;fill-opacity:1;fill-rule:nonzero;stroke:none" id="rect3011" width="1499.1859" height="380.14673" x="-434.48303" y="-380.14673" />
        <rect style="fill:#ffffff;fill-opacity:1;fill-rule:nonzero;stroke:none" id="rect3013" width="644.82831" height="1098.9973" x="480" y="-256.73999" />
        <rect style="fill:#ffffff;fill-opacity:1;fill-rule:nonzero;stroke:none" id="rect3015" width="1018.1825" height="736.57312" x="-257.47144" y="320" />
        <rect style="fill:#ffffff;fill-opacity:1;fill-rule:nonzero;stroke:none" id="rect3017" width="663.5741" height="1133.1669" x="-663.5741" y="-333.33374" />
    </g>
</svg>
