<?xml version="1.0" encoding="UTF-8" standalone="no"?>
<!-- Created with Inkscape (http://www.inkscape.org/) -->

<svg xmlns:dc="http://purl.org/dc/elements/1.1/" xmlns:cc="http://creativecommons.org/ns#" xmlns:rdf="http://www.w3.org/1999/02/22-rdf-syntax-ns#" xmlns:svg="http://www.w3.org/2000/svg" xmlns="http://www.w3.org/2000/svg" xmlns:xlink="http://www.w3.org/1999/xlink" xmlns:sodipodi="http://sodipodi.sourceforge.net/DTD/sodipodi-0.dtd" xmlns:inkscape="http://www.inkscape.org/namespaces/inkscape" width="480" height="320" id="svg2" version="1.1" inkscape:version="0.48.1 " sodipodi:docname="Lvl_Poezd_DveGorki.svg" style="display:inline">
    <defs id="defs4" />
    <sodipodi:namedview id="base" pagecolor="#ffffff" bordercolor="#666666" borderopacity="1.0" inkscape:pageopacity="0.0" inkscape:pageshadow="2" inkscape:zoom="1.3094591" inkscape:cx="263.94549" inkscape:cy="150.66971" inkscape:document-units="px" inkscape:current-layer="layer8" showgrid="false" width="480px" inkscape:showpageshadow="false" inkscape:window-width="1280" inkscape:window-height="744" inkscape:window-x="-4" inkscape:window-y="-4" inkscape:window-maximized="1" showguides="true" inkscape:guide-bbox="true">
        <sodipodi:guide orientation="0,1" position="320,256" id="guide3018" />
        <sodipodi:guide orientation="0,1" position="160,64" id="guide3020" />
        <sodipodi:guide orientation="1,0" position="400,240" id="guide3022" />
        <sodipodi:guide orientation="1,0" position="80,128" id="guide3024" />
        <sodipodi:guide orientation="0,1" position="240,160" id="guide3005" />
        <sodipodi:guide orientation="1,0" position="240,160" id="guide3007" />
        <sodipodi:guide orientation="1,0" position="0,160" id="guide3072" />
        <sodipodi:guide orientation="1,0" position="480,160" id="guide3074" />
        <sodipodi:guide orientation="0,1" position="240,320" id="guide3076" />
        <sodipodi:guide orientation="0,1" position="240,0" id="guide3078" />
        <inkscape:grid type="xygrid" id="grid3023" />
    </sodipodi:namedview>
    <metadata id="metadata7">
        <rdf:RDF>
            <cc:Work rdf:about="">
                <dc:format>image/svg+xml</dc:format>
                <dc:type rdf:resource="http://purl.org/dc/dcmitype/StillImage" />
                <dc:title></dc:title>
            </cc:Work>
        </rdf:RDF>
    </metadata>
    <g inkscape:groupmode="layer" id="layer1" inkscape:label="background" style="display:inline" sodipodi:insensitive="true">
        <image y="0" x="0" id="image3016-17" xlink:href="file:///D:/Lunohod/Grfx/design/backgrounds/backg_demo.png" height="320" width="480" />
    </g>
    <g inkscape:groupmode="layer" id="layer7" inkscape:label="secondbckg" sodipodi:insensitive="true" />
    <g inkscape:groupmode="layer" id="layer4" inkscape:label="blocks" sodipodi:insensitive="true" />
    <g inkscape:groupmode="layer" id="layer8" inkscape:label="design" style="display:inline">
        <image width="60" height="100" xlink:href="file:///D:/Lunohod/Grfx/design/railway/railwayTurn180b.png" id="image3589" x="-10" y="-110" transform="matrix(0,1,-1,0,0,0)" />
        <image y="-110" x="50" id="image3603" xlink:href="file:///D:/Lunohod/Grfx/design/railway/railwayHor1.png" height="40" width="40" transform="matrix(0,1,-1,0,0,0)" />
        <image transform="matrix(0,1,-1,0,0,0)" width="40" height="40" xlink:href="file:///D:/Lunohod/Grfx/design/railway/railwayHor1.png" id="image3605" x="50" y="-50" />
        <image transform="matrix(0,1,-1,0,0,0)" width="60" height="100" xlink:href="file:///D:/Lunohod/Grfx/design/railway/railwayTurn180a.png" id="image3611" x="90" y="-170" />
        <image transform="matrix(0,1,-1,0,0,0)" y="-230" x="-10" id="image3617" xlink:href="file:///D:/Lunohod/Grfx/design/railway/railwayTurn180b.png" height="100" width="60" />
        <image transform="matrix(0,1,-1,0,0,0)" width="40" height="40" xlink:href="file:///D:/Lunohod/Grfx/design/railway/railwayHor1.png" id="image3619" x="50" y="-230" />
        <image y="-170" x="50" id="image3621" xlink:href="file:///D:/Lunohod/Grfx/design/railway/railwayHor1.png" height="40" width="40" transform="matrix(0,1,-1,0,0,0)" />
        <image y="-290" x="90" id="image3623" xlink:href="file:///D:/Lunohod/Grfx/design/railway/railwayTurn180a.png" height="100" width="60" transform="matrix(0,1,-1,0,0,0)" />
        <image transform="matrix(0,1,-1,0,0,0)" y="-350" x="-10" id="image3625" xlink:href="file:///D:/Lunohod/Grfx/design/railway/railwayTurn180b.png" height="100" width="60" />
        <image transform="matrix(0,1,-1,0,0,0)" width="40" height="40" xlink:href="file:///D:/Lunohod/Grfx/design/railway/railwayHor1.png" id="image3627" x="50" y="-350" />
        <image y="-290" x="50" id="image3629" xlink:href="file:///D:/Lunohod/Grfx/design/railway/railwayHor1.png" height="40" width="40" transform="matrix(0,1,-1,0,0,0)" />
        <image y="-410" x="90" id="image3631" xlink:href="file:///D:/Lunohod/Grfx/design/railway/railwayTurn180a.png" height="100" width="60" transform="matrix(0,1,-1,0,0,0)" />
        <image width="60" height="100" xlink:href="file:///D:/Lunohod/Grfx/design/railway/railwayTurn180b.png" id="image3633" x="-10" y="-470" transform="matrix(0,1,-1,0,0,0)" />
        <image y="-470" x="50" id="image3635" xlink:href="file:///D:/Lunohod/Grfx/design/railway/railwayHor1.png" height="40" width="40" transform="matrix(0,1,-1,0,0,0)" />
        <image transform="matrix(0,1,-1,0,0,0)" width="40" height="40" xlink:href="file:///D:/Lunohod/Grfx/design/railway/railwayHor1.png" id="image3637" x="50" y="-410" />
        <image transform="matrix(0,1,-1,0,0,0)" width="40" height="40" xlink:href="file:///D:/Lunohod/Grfx/design/railway/railwayHor1.png" id="image3641" x="90" y="-470" />
        <image y="-470" x="130" id="image3643" xlink:href="file:///D:/Lunohod/Grfx/design/railway/railwayHor1.png" height="40" width="40" transform="matrix(0,1,-1,0,0,0)" />
        <image transform="matrix(0,1,-1,0,0,0)" y="-410" x="170" id="image3653" xlink:href="file:///D:/Lunohod/Grfx/design/railway/railwayTurn180b.png" height="100" width="60" />
        <image transform="matrix(0,1,-1,0,0,0)" width="40" height="40" xlink:href="file:///D:/Lunohod/Grfx/design/railway/railwayHor1.png" id="image3655" x="230" y="-410" />
        <image y="-350" x="230" id="image3657" xlink:href="file:///D:/Lunohod/Grfx/design/railway/railwayHor1.png" height="40" width="40" transform="matrix(0,1,-1,0,0,0)" />
        <image y="-470" x="270" id="image3659" xlink:href="file:///D:/Lunohod/Grfx/design/railway/railwayTurn180a.png" height="100" width="60" transform="matrix(0,1,-1,0,0,0)" />
        <image width="60" height="100" xlink:href="file:///D:/Lunohod/Grfx/design/railway/railwayTurn180b.png" id="image3665" x="170" y="-290" transform="matrix(0,1,-1,0,0,0)" />
        <image y="-290" x="230" id="image3667" xlink:href="file:///D:/Lunohod/Grfx/design/railway/railwayHor1.png" height="40" width="40" transform="matrix(0,1,-1,0,0,0)" />
        <image transform="matrix(0,1,-1,0,0,0)" width="40" height="40" xlink:href="file:///D:/Lunohod/Grfx/design/railway/railwayHor1.png" id="image3669" x="230" y="-230" />
        <image transform="matrix(0,1,-1,0,0,0)" width="60" height="100" xlink:href="file:///D:/Lunohod/Grfx/design/railway/railwayTurn180a.png" id="image3671" x="270" y="-350" />
        <image transform="matrix(0,1,-1,0,0,0)" y="-170" x="170" id="image3673" xlink:href="file:///D:/Lunohod/Grfx/design/railway/railwayTurn180b.png" height="100" width="60" />
        <image transform="matrix(0,1,-1,0,0,0)" width="40" height="40" xlink:href="file:///D:/Lunohod/Grfx/design/railway/railwayHor1.png" id="image3675" x="230" y="-170" />
        <image y="-110" x="230" id="image3677" xlink:href="file:///D:/Lunohod/Grfx/design/railway/railwayHor1.png" height="40" width="40" transform="matrix(0,1,-1,0,0,0)" />
        <image y="-230" x="270" id="image3679" xlink:href="file:///D:/Lunohod/Grfx/design/railway/railwayTurn180a.png" height="100" width="60" transform="matrix(0,1,-1,0,0,0)" />
        <image y="-50" x="230" id="image3683" xlink:href="file:///D:/Lunohod/Grfx/design/railway/railwayHor1.png" height="40" width="40" transform="matrix(0,1,-1,0,0,0)" />
        <image transform="matrix(0,1,-1,0,0,0)" width="60" height="100" xlink:href="file:///D:/Lunohod/Grfx/design/railway/railwayTurn180a.png" id="image3687" x="270" y="-110" />
        <image transform="matrix(0,1,-1,0,0,0)" width="40" height="40" xlink:href="file:///D:/Lunohod/Grfx/design/railway/railwayHor1.png" id="image3715" x="150" y="-470" />
        <image y="-470" x="190" id="image3717" xlink:href="file:///D:/Lunohod/Grfx/design/railway/railwayHor1.png" height="40" width="40" transform="matrix(0,1,-1,0,0,0)" />
        <image transform="matrix(0,1,-1,0,0,0)" width="40" height="40" xlink:href="file:///D:/Lunohod/Grfx/design/railway/railwayHor1.png" id="image3719" x="230" y="-470" />
        <image y="-50" x="110" id="image3721" xlink:href="file:///D:/Lunohod/Grfx/design/railway/railwayHor1.png" height="40" width="40" transform="matrix(0,1,-1,0,0,0)" />
        <image transform="matrix(0,1,-1,0,0,0)" width="40" height="40" xlink:href="file:///D:/Lunohod/Grfx/design/railway/railwayHor1.png" id="image3723" x="150" y="-50" />
        <image y="-50" x="190" id="image3725" xlink:href="file:///D:/Lunohod/Grfx/design/railway/railwayHor1.png" height="40" width="40" transform="matrix(0,1,-1,0,0,0)" />
        <image y="-50" x="70" id="image3727" xlink:href="file:///D:/Lunohod/Grfx/design/railway/railwayHor1.png" height="40" width="40" transform="matrix(0,1,-1,0,0,0)" />
    </g>
    <g inkscape:groupmode="layer" id="layer2" inkscape:label="action" style="display:inline" sodipodi:insensitive="true" />
    <g inkscape:groupmode="layer" id="layer5" inkscape:label="actionTHE" style="display:none" sodipodi:insensitive="true">
        <image y="0" x="0" id="image3038" xlink:href="file:///D:/Lunohod/Grfx/objects/visible/Tower/transmitter_2_off.png" height="30" width="30" />
        <image y="252" x="366" id="image3049" xlink:href="file:///D:/Lunohod/Grfx/objects/visible/Exit/refrigerator.png" height="54" width="37" />
        <image y="24" x="40" id="image3016-1" xlink:href="file:///D:/Lunohod/Grfx/objects/visible/Hero/heroDimensions.png" height="24" width="33" />
    </g>
    <g inkscape:groupmode="layer" id="layer9" inkscape:label="dash" style="opacity:0.29861109;display:none" sodipodi:insensitive="true">
        <image y="0" x="0" id="image3016" xlink:href="file:///D:/Lunohod/Art/dashboard/screenTapAreas_dash_M_btnSize52.png" height="320" width="480" />
    </g>
    <g inkscape:groupmode="layer" id="layer6" inkscape:label="upmask" sodipodi:insensitive="true" style="display:inline">
        <rect style="fill:#ffffff;fill-opacity:1;fill-rule:nonzero;stroke:none" id="rect3011" width="1499.1859" height="380.14673" x="-434.48303" y="-380.14673" />
        <rect style="fill:#ffffff;fill-opacity:1;fill-rule:nonzero;stroke:none" id="rect3013" width="644.82831" height="1098.9973" x="480" y="-256.73999" />
        <rect style="fill:#ffffff;fill-opacity:1;fill-rule:nonzero;stroke:none" id="rect3015" width="1018.1825" height="736.57312" x="-257.47144" y="320" />
        <rect style="fill:#ffffff;fill-opacity:1;fill-rule:nonzero;stroke:none" id="rect3017" width="663.5741" height="1133.1669" x="-663.5741" y="-333.33374" />
    </g>
</svg>
