<?xml version="1.0" encoding="UTF-8" standalone="no"?>
<!-- Created with Inkscape (http://www.inkscape.org/) -->

<svg xmlns:dc="http://purl.org/dc/elements/1.1/" xmlns:cc="http://creativecommons.org/ns#" xmlns:rdf="http://www.w3.org/1999/02/22-rdf-syntax-ns#" xmlns:svg="http://www.w3.org/2000/svg" xmlns="http://www.w3.org/2000/svg" xmlns:xlink="http://www.w3.org/1999/xlink" xmlns:sodipodi="http://sodipodi.sourceforge.net/DTD/sodipodi-0.dtd" xmlns:inkscape="http://www.inkscape.org/namespaces/inkscape" width="480" height="320" id="svg2" version="1.1" inkscape:version="0.48.1 " sodipodi:docname="Lvl_Poezd_v11_Gorki_v2.svg" style="display:inline" inkscape:export-filename="D:\Lunohod\Levels\Lvl_Poezd_v11_Gorki_v2\Lvl_Poezd_v11_Gorki_v2.png" inkscape:export-xdpi="90" inkscape:export-ydpi="90">
    <defs id="defs4" />
    <sodipodi:namedview id="base" pagecolor="#ffffff" bordercolor="#666666" borderopacity="1.0" inkscape:pageopacity="0.0" inkscape:pageshadow="2" inkscape:zoom="1.331" inkscape:cx="219.35126" inkscape:cy="157.98358" inkscape:document-units="px" inkscape:current-layer="layer5" showgrid="false" width="480px" inkscape:showpageshadow="false" inkscape:window-width="1280" inkscape:window-height="744" inkscape:window-x="-4" inkscape:window-y="-4" inkscape:window-maximized="1" showguides="false" inkscape:guide-bbox="true">
        <sodipodi:guide orientation="0,1" position="320,256" id="guide3018" />
        <sodipodi:guide orientation="0,1" position="160,64" id="guide3020" />
        <sodipodi:guide orientation="1,0" position="400,240" id="guide3022" />
        <sodipodi:guide orientation="1,0" position="80,128" id="guide3024" />
        <sodipodi:guide orientation="0,1" position="240,160" id="guide3005" />
        <sodipodi:guide orientation="1,0" position="240,160" id="guide3007" />
        <sodipodi:guide orientation="1,0" position="0,160" id="guide3072" />
        <sodipodi:guide orientation="1,0" position="480,160" id="guide3074" />
        <sodipodi:guide orientation="0,1" position="240,320" id="guide3076" />
        <sodipodi:guide orientation="0,1" position="240,0" id="guide3078" />
        <inkscape:grid type="xygrid" id="grid3023" />
        <sodipodi:guide orientation="0,1" position="206.77971,80" id="guide3591" />
        <sodipodi:guide orientation="0,1" position="197.98501,266" id="guide3595" />
    </sodipodi:namedview>
    <metadata id="metadata7">
        <rdf:RDF>
            <cc:Work rdf:about="">
                <dc:format>image/svg+xml</dc:format>
                <dc:type rdf:resource="http://purl.org/dc/dcmitype/StillImage" />
                <dc:title></dc:title>
            </cc:Work>
        </rdf:RDF>
    </metadata>
    <g inkscape:groupmode="layer" id="layer1" inkscape:label="background" style="display:inline" sodipodi:insensitive="true">
        <image y="0" x="0" id="image3121" xlink:href="file:///D:/Lunohod/Grfx/design/backgrounds/level_BG.png" height="320" width="480" />
    </g>
    <g inkscape:groupmode="layer" id="layer7" inkscape:label="secondbckg" sodipodi:insensitive="true">
        <image width="138" height="63" xlink:href="file:///D:/Lunohod/Grfx/design/lake/lake_01.png" id="image3363" x="321.09665" y="261.98859" />
        <image y="185.93585" x="-127.9631" id="image3373" xlink:href="file:///D:/Lunohod/Grfx/design/lake/lake_02.png" height="103" width="162" />
        <image y="214.02899" x="29.388401" id="image3424-4" xlink:href="file:///D:/Lunohod/Grfx/design/stone/stone_02.png" height="15" width="20" />
        <image y="232.81284" x="17.64587" id="image3435" xlink:href="file:///D:/Lunohod/Grfx/design/stone/stone_04.png" height="35" width="45" />
        <image y="272.1564" x="84.971001" id="image3446" xlink:href="file:///D:/Lunohod/Grfx/design/stone/stone_07.png" height="26" width="27" />
        <image width="10" height="8" xlink:href="file:///D:/Lunohod/Grfx/design/stone/stone_01.png" id="image3460" x="54.840069" y="229.6485" />
        <image width="10" height="8" xlink:href="file:///D:/Lunohod/Grfx/design/stone/stone_01.png" id="image3541" x="82.108963" y="311.45517" />
        <image width="10" height="8" xlink:href="file:///D:/Lunohod/Grfx/design/stone/stone_01.png" id="image3543" x="39.690685" y="84.214394" />
        <image y="292.03339" x="68.004395" id="image3635" xlink:href="file:///D:/Lunohod/Grfx/design/stone/stone_03.png" height="12" width="17" />
        <image y="10.25482" x="217.98331" id="image3637" xlink:href="file:///D:/Lunohod/Grfx/design/stone/stone_03.png" height="12" width="17" />
        <image y="70.094887" x="37.705624" id="image3472" xlink:href="file:///D:/Lunohod/Grfx/design/stone/stone_03.png" height="12" width="17" />
        <image width="20" height="15" xlink:href="file:///D:/Lunohod/Grfx/design/stone/stone_02.png" id="image3545" x="52.869949" y="64.807549" />
        <image y="3.5123022" x="187.75923" id="image3610" xlink:href="file:///D:/Lunohod/Grfx/design/grass/grass_02.png" height="27" width="32" />
        <image width="33" height="14" xlink:href="file:///D:/Lunohod/Grfx/design/grass/grass_04.png" id="image3645" x="397.47714" y="27.404219" />
        <image width="33" height="14" xlink:href="file:///D:/Lunohod/Grfx/design/grass/grass_04.png" id="image3647" x="22.130922" y="19.859402" />
        <image width="33" height="14" xlink:href="file:///D:/Lunohod/Grfx/design/grass/grass_04.png" id="image3649" x="-2.8655634" y="70.60984" />
        <image y="285.73111" x="197.86378" id="image3632" xlink:href="file:///D:/Lunohod/Grfx/design/grass/grass_04.png" height="14" width="33" />
        <image y="12.542171" x="224.058" id="image3639" xlink:href="file:///D:/Lunohod/Grfx/design/stone/stone_02.png" height="15" width="20" />
        <image y="3.9226537" x="255.56943" id="image3641" xlink:href="file:///D:/Lunohod/Grfx/design/stone/stone_01.png" height="8" width="10" />
        <image width="21" height="20" xlink:href="file:///D:/Lunohod/Grfx/design/grass/grass_03.png" id="image3643" x="256.12918" y="28.97891" />
        <image y="291.18277" x="376.98856" id="image3659" xlink:href="file:///D:/Lunohod/Grfx/design/grass/grass_05.png" height="29.608084" width="37.010105" />
        <image width="32" height="27" xlink:href="file:///D:/Lunohod/Grfx/design/grass/grass_02.png" id="image3673" x="236.23726" y="289.07822" />
        <image y="252.7197" x="-3.1230223" id="image3670" xlink:href="file:///D:/Lunohod/Grfx/design/grass/grass_02.png" height="27" width="32" />
        <image style="display:inline" y="-53" x="415.5" id="image3718" xlink:href="file:///D:/Lunohod/Grfx/design/tree/tree_01.png" height="116" width="91" />
        <image style="display:inline" y="-68.5" x="340" id="image4515" xlink:href="file:///D:/Lunohod/Grfx/design/tree/tree_02.png" height="119" width="88" />
        <image width="21" height="20" xlink:href="file:///D:/Lunohod/Grfx/design/grass/grass_03.png" id="image4536" x="363.29788" y="34.135323" />
        <image width="21" height="20" xlink:href="file:///D:/Lunohod/Grfx/design/grass/grass_03.png" id="image4538" x="392.29788" y="32.135323" />
        <image y="-6.8646755" x="303.29788" id="image3621" xlink:href="file:///D:/Lunohod/Grfx/design/grass/grass_03.png" height="20" width="21" />
    </g>
    <g inkscape:groupmode="layer" id="layer8" inkscape:label="design" style="display:inline" sodipodi:insensitive="true">
        <image y="140" x="160" id="image3380" xlink:href="file:///D:/Lunohod/Grfx/design/railway/railwayHor6.png" height="40" width="40" />
        <image y="-480" x="100" id="image3231" xlink:href="file:///D:/Lunohod/Grfx/design/railway/railwayTurn90a.png" height="80" width="80" transform="matrix(0,1,-1,0,0,0)" />
        <image y="-420" x="220" id="image3253" xlink:href="file:///D:/Lunohod/Grfx/design/railway/railwayTurn180a.png" height="100" width="60" transform="matrix(0,1,-1,0,0,0)" />
        <image y="-480" x="40" id="image3264" xlink:href="file:///D:/Lunohod/Grfx/design/railway/railwayTurn180b.png" height="100" width="60" transform="matrix(0,1,-1,0,0,0)" />
        <image width="40" height="40" xlink:href="file:///D:/Lunohod/Grfx/design/railway/railwayHor1.png" id="image3271" x="120" y="140" />
        <image width="40" height="40" xlink:href="file:///D:/Lunohod/Grfx/design/railway/railwayHor1.png" id="image3277" x="240" y="140" />
        <image y="140" x="280" id="image3279" xlink:href="file:///D:/Lunohod/Grfx/design/railway/railwayHor1.png" height="40" width="40" />
        <image y="140" x="360" id="image3283" xlink:href="file:///D:/Lunohod/Grfx/design/railway/railwayHor1.png" height="40" width="40" />
        <image width="40" height="40" xlink:href="file:///D:/Lunohod/Grfx/design/railway/railwayHor1.png" id="image3289" x="100" y="-420" transform="matrix(0,1,-1,0,0,0)" />
        <image width="40" height="40" xlink:href="file:///D:/Lunohod/Grfx/design/railway/railwayHor1.png" id="image3293" x="180" y="-420" transform="matrix(0,1,-1,0,0,0)" />
        <image transform="matrix(0,1,-1,0,0,0)" width="60" height="100" xlink:href="file:///D:/Lunohod/Grfx/design/railway/railwayTurn180a.png" id="image3297" x="220" y="-300" />
        <image transform="matrix(0,1,-1,0,0,0)" width="60" height="100" xlink:href="file:///D:/Lunohod/Grfx/design/railway/railwayTurn180b.png" id="image3299" x="40" y="-360" />
        <image transform="matrix(0,1,-1,0,0,0)" y="-300" x="180" id="image3305" xlink:href="file:///D:/Lunohod/Grfx/design/railway/railwayHor1.png" height="40" width="40" />
        <image transform="matrix(0,1,-1,0,0,0)" y="-360" x="100" id="image3307" xlink:href="file:///D:/Lunohod/Grfx/design/railway/railwayHor1.png" height="40" width="40" />
        <image transform="matrix(0,1,-1,0,0,0)" y="-360" x="180" id="image3311" xlink:href="file:///D:/Lunohod/Grfx/design/railway/railwayHor1.png" height="40" width="40" />
        <image y="-180" x="220" id="image3313" xlink:href="file:///D:/Lunohod/Grfx/design/railway/railwayTurn180a.png" height="100" width="60" transform="matrix(0,1,-1,0,0,0)" />
        <image y="-240" x="40" id="image3315" xlink:href="file:///D:/Lunohod/Grfx/design/railway/railwayTurn180b.png" height="100" width="60" transform="matrix(0,1,-1,0,0,0)" />
        <image width="40" height="40" xlink:href="file:///D:/Lunohod/Grfx/design/railway/railwayHor1.png" id="image3317" x="100" y="-180" transform="matrix(0,1,-1,0,0,0)" />
        <image width="40" height="40" xlink:href="file:///D:/Lunohod/Grfx/design/railway/railwayHor1.png" id="image3321" x="180" y="-180" transform="matrix(0,1,-1,0,0,0)" />
        <image width="40" height="40" xlink:href="file:///D:/Lunohod/Grfx/design/railway/railwayHor1.png" id="image3323" x="100" y="-240" transform="matrix(0,1,-1,0,0,0)" />
        <image transform="matrix(0,1,-1,0,0,0)" y="-120" x="180" id="image3343" xlink:href="file:///D:/Lunohod/Grfx/design/railway/railwayHor1.png" height="40" width="40" />
        <image transform="matrix(0,1,-1,0,0,0)" y="-120" x="100" id="image3347" xlink:href="file:///D:/Lunohod/Grfx/design/railway/railwayHor1.png" height="40" width="40" />
        <image width="40" height="40" xlink:href="file:///D:/Lunohod/Grfx/design/railway/railwayHor1.png" id="image3349" x="60" y="-120" transform="matrix(0,1,-1,0,0,0)" />
        <image y="140" x="200" id="image3359" xlink:href="file:///D:/Lunohod/Grfx/design/railway/railwayCross.png" height="40" width="40" />
        <image width="40" height="40" xlink:href="file:///D:/Lunohod/Grfx/design/railway/railwayCross.png" id="image3362" x="140" y="140" />
        <image y="140" x="260" id="image3364" xlink:href="file:///D:/Lunohod/Grfx/design/railway/railwayCross.png" height="40" width="40" />
        <image width="40" height="40" xlink:href="file:///D:/Lunohod/Grfx/design/railway/railwayCross.png" id="image3366" x="320" y="140" />
        <image y="140" x="380" id="image3368" xlink:href="file:///D:/Lunohod/Grfx/design/railway/railwayCross.png" height="40" width="40" />
        <image width="40" height="40" xlink:href="file:///D:/Lunohod/Grfx/design/railway/railwayCross.png" id="image3370" x="80" y="140" />
        <image y="-240" x="180" id="image3391" xlink:href="file:///D:/Lunohod/Grfx/design/railway/railwayHor4.png" height="40" width="40" transform="matrix(0,1,-1,0,0,0)" />
        <image y="-300" x="100" id="image3402" xlink:href="file:///D:/Lunohod/Grfx/design/railway/railwayHor5.png" height="40" width="40" transform="matrix(0,1,-1,0,0,0)" />
        <image y="140" x="40" id="image3413" xlink:href="file:///D:/Lunohod/Grfx/design/railway/railwayHor7.png" height="40" width="40" />
        <image y="140" x="0" id="image3424" xlink:href="file:///D:/Lunohod/Grfx/design/railway/railwayHor6.png" height="40" width="40" />
        <image transform="matrix(0,1,-1,0,0,0)" y="-120" x="20" id="image3440" xlink:href="file:///D:/Lunohod/Grfx/design/railway/railwayHor1.png" height="40" width="40" />
        <image width="40" height="40" xlink:href="file:///D:/Lunohod/Grfx/design/railway/railwayHor1.png" id="image3442" x="-20" y="-120" transform="matrix(0,1,-1,0,0,0)" />
    </g>
    <g inkscape:groupmode="layer" id="layer2" inkscape:label="enemies" style="display:inline" sodipodi:insensitive="true">
        <image y="149" x="122" id="image3452" xlink:href="file:///D:/Lunohod/Grfx/objects/visible/EnemyRat4/EnemyRat4_Dimensions.png" height="21" width="18" />
        <image width="18" height="21" xlink:href="file:///D:/Lunohod/Grfx/objects/visible/EnemyRat4/EnemyRat4_Dimensions.png" id="image3455" x="182" y="149" />
        <image y="149" x="242" id="image3457" xlink:href="file:///D:/Lunohod/Grfx/objects/visible/EnemyRat4/EnemyRat4_Dimensions.png" height="21" width="18" />
        <image width="18" height="21" xlink:href="file:///D:/Lunohod/Grfx/objects/visible/EnemyRat4/EnemyRat4_Dimensions.png" id="image3459" x="302" y="149" />
        <image y="149" x="362" id="image3461" xlink:href="file:///D:/Lunohod/Grfx/objects/visible/EnemyRat4/EnemyRat4_Dimensions.png" height="21" width="18" />
        <image width="18" height="21" xlink:href="file:///D:/Lunohod/Grfx/objects/visible/EnemyRat4/EnemyRat4_Dimensions.png" id="image3463" x="422" y="149" />
    </g>
    <g inkscape:groupmode="layer" id="layer3" inkscape:label="food" style="display:inline" sodipodi:insensitive="true">
        <image width="22" height="27" xlink:href="file:///D:/Lunohod/Grfx/objects/visible/Food/fishType06.png" id="image3224" x="51.869946" y="144.40158" />
        <image width="32" height="21" xlink:href="file:///D:/Lunohod/Grfx/objects/visible/Food/fishType01.png" id="image3190" x="81.713531" y="227.1485" />
        <image width="32" height="21" xlink:href="file:///D:/Lunohod/Grfx/objects/visible/Food/fishType01.png" id="image3192" x="113.52723" y="247.38753" />
        <image y="227.42091" x="147.61336" id="image3143" xlink:href="file:///D:/Lunohod/Grfx/objects/visible/Food/fishType01.png" height="21" width="32" />
        <image width="28" height="19" xlink:href="file:///D:/Lunohod/Grfx/objects/visible/Food/fishType02.png" id="image3220" x="266.70123" y="66.081718" />
        <image width="28" height="19" xlink:href="file:///D:/Lunohod/Grfx/objects/visible/Food/fishType02.png" id="image3222" x="298.51495" y="45.357639" />
        <image y="67.111595" x="329.5712" id="image3154" xlink:href="file:///D:/Lunohod/Grfx/objects/visible/Food/fishType02.png" height="19" width="28" />
        <image width="31" height="20" xlink:href="file:///D:/Lunohod/Grfx/objects/visible/Food/fishType03.png" id="image3202" x="147.03603" y="66.36731" />
        <image width="31" height="20" xlink:href="file:///D:/Lunohod/Grfx/objects/visible/Food/fishType03.png" id="image3204" x="176.57732" y="44.128296" />
        <image y="66.36731" x="205.36118" id="image3165" xlink:href="file:///D:/Lunohod/Grfx/objects/visible/Food/fishType03.png" height="20" width="31" />
        <image y="227.04745" x="206.11777" id="image3216" xlink:href="file:///D:/Lunohod/Grfx/objects/visible/Food/fishType04.png" height="22" width="28" />
        <image y="245.98419" x="237.93147" id="image3218" xlink:href="file:///D:/Lunohod/Grfx/objects/visible/Food/fishType04.png" height="22" width="28" />
        <image width="28" height="22" xlink:href="file:///D:/Lunohod/Grfx/objects/visible/Food/fishType04.png" id="image3194" x="269.74518" y="227.04745" />
        <image width="27" height="20" xlink:href="file:///D:/Lunohod/Grfx/objects/visible/Food/fishType05.png" id="image3198" x="324.65112" y="224.40598" />
        <image width="27" height="20" xlink:href="file:///D:/Lunohod/Grfx/objects/visible/Food/fishType05.png" id="image3200" x="357.22232" y="249.40247" />
        <image width="27" height="20" xlink:href="file:///D:/Lunohod/Grfx/objects/visible/Food/fishType05.png" id="image3210" x="392.06592" y="225.9209" />
        <image width="27" height="20" xlink:href="file:///D:/Lunohod/Grfx/objects/visible/Food/fishType05.png" id="image3212" x="385.68628" y="105.48329" />
        <image width="27" height="20" xlink:href="file:///D:/Lunohod/Grfx/objects/visible/Food/fishType05.png" id="image3214" x="390.23111" y="79.72934" />
        <image y="58.520203" x="408.41037" id="image3187" xlink:href="file:///D:/Lunohod/Grfx/objects/visible/Food/fishType05.png" height="20" width="27" />
    </g>
    <g inkscape:groupmode="layer" id="layer10" inkscape:label="way" style="display:none" sodipodi:insensitive="true">
        <image y="16" x="84" id="image3566" xlink:href="file:///D:/Lunohod/Grfx/objects/unvisible/Moving/down.png" height="224" width="4" />
        <image y="240" x="84" id="image3588" xlink:href="file:///D:/Lunohod/Grfx/objects/unvisible/Moving/right.png" height="4" width="60" />
        <image y="54" x="144" id="image3555" xlink:href="file:///D:/Lunohod/Grfx/objects/unvisible/Moving/up.png" height="186" width="4" />
        <image width="60" height="4" xlink:href="file:///D:/Lunohod/Grfx/objects/unvisible/Moving/right.png" id="image3597" x="144" y="54" />
        <image width="4" height="186" xlink:href="file:///D:/Lunohod/Grfx/objects/unvisible/Moving/down.png" id="image3599" x="204" y="54" />
        <image width="60" height="4" xlink:href="file:///D:/Lunohod/Grfx/objects/unvisible/Moving/right.png" id="image3603" x="204" y="240" />
        <image width="4" height="186" xlink:href="file:///D:/Lunohod/Grfx/objects/unvisible/Moving/up.png" id="image3601" x="264" y="54" />
        <image y="54" x="264" id="image3605" xlink:href="file:///D:/Lunohod/Grfx/objects/unvisible/Moving/right.png" height="4" width="60" />
        <image y="54" x="324" id="image3607" xlink:href="file:///D:/Lunohod/Grfx/objects/unvisible/Moving/down.png" height="186" width="4" />
        <image y="240" x="324" id="image3611" xlink:href="file:///D:/Lunohod/Grfx/objects/unvisible/Moving/right.png" height="4" width="60" />
        <image y="54" x="384" id="image3609" xlink:href="file:///D:/Lunohod/Grfx/objects/unvisible/Moving/up.png" height="186" width="4" />
        <image width="60" height="4" xlink:href="file:///D:/Lunohod/Grfx/objects/unvisible/Moving/right.png" id="image3613" x="384" y="54" />
        <image width="4" height="94" xlink:href="file:///D:/Lunohod/Grfx/objects/unvisible/Moving/down.png" id="image3615" x="444" y="54.042755" />
        <image y="148.04276" x="18.969458" id="image3577" xlink:href="file:///D:/Lunohod/Grfx/objects/unvisible/Moving/left.png" height="4" width="425.03055" />
    </g>
    <g inkscape:groupmode="layer" id="layer5" inkscape:label="actionTHE" style="display:inline" sodipodi:insensitive="true">
        <image y="0" x="0" id="image3038" xlink:href="file:///D:/Lunohod/Grfx/objects/visible/Tower/transmitter_2_off.png" height="30" width="30" />
        <image y="124.9457" x="10.580634" id="image3049" xlink:href="file:///D:/Lunohod/Grfx/objects/visible/Exit/refrigerator.png" height="54" width="37" />
        <image y="16" x="84" id="image3016-1" xlink:href="file:///D:/Lunohod/Grfx/objects/visible/Hero/heroDimensions.png" height="24" width="33" />
    </g>
    <g inkscape:groupmode="layer" id="layer4" inkscape:label="foregrnd" style="display:inline" sodipodi:insensitive="true">
        <image y="126.42794" x="446.08261" id="image3305-1" xlink:href="file:///D:/Lunohod/Grfx/design/tree/tree_02.png" height="119" width="88" />
        <image style="display:inline" y="171.38358" x="396.40686" id="image3234" xlink:href="file:///D:/Lunohod/Grfx/design/tree/tree_03.png" height="124" width="114" />
        <image style="display:inline" y="239.99329" x="444.8436" id="image3395" xlink:href="file:///D:/Lunohod/Grfx/design/web/web_01.png" height="24.714956" width="20.760563" />
        <image y="297" x="245" id="image3683" xlink:href="file:///D:/Lunohod/Grfx/design/tree/tree_04.png" height="60" width="90" />
        <image y="285" x="105.5" id="image3694" xlink:href="file:///D:/Lunohod/Grfx/design/grass/grass_05.png" height="44" width="55" />
    </g>
    <g inkscape:groupmode="layer" id="layer11" inkscape:label="Semafor" sodipodi:insensitive="true">
        <image y="21.385763" x="58.291737" id="image3110" xlink:href="file:///D:/Lunohod/Grfx/objects/visible/Semafor/semafor_red.png" height="67" width="44" />
    </g>
    <g inkscape:groupmode="layer" id="layer9" inkscape:label="dash" style="opacity:0.29861109;display:none" sodipodi:insensitive="true">
        <image y="0" x="0" id="image3016" xlink:href="file:///D:/Lunohod/Art/dashboard/screenTapAreas_dash_M_btnSize52.png" height="320" width="480" />
    </g>
    <g inkscape:groupmode="layer" id="layer6" inkscape:label="upmask" sodipodi:insensitive="true" style="display:none">
        <rect style="fill:#ffffff;fill-opacity:1;fill-rule:nonzero;stroke:none" id="rect3011" width="1499.1859" height="380.14673" x="-434.48303" y="-380.14673" />
        <rect style="fill:#ffffff;fill-opacity:1;fill-rule:nonzero;stroke:none" id="rect3013" width="644.82831" height="1098.9973" x="480" y="-256.73999" />
        <rect style="fill:#ffffff;fill-opacity:1;fill-rule:nonzero;stroke:none" id="rect3015" width="1018.1825" height="736.57312" x="-257.47144" y="320" />
        <rect style="fill:#ffffff;fill-opacity:1;fill-rule:nonzero;stroke:none" id="rect3017" width="663.5741" height="1133.1669" x="-663.5741" y="-333.33374" />
    </g>
</svg>
