<?xml version="1.0" encoding="UTF-8" standalone="no"?>
<!-- Created with Inkscape (http://www.inkscape.org/) -->

<svg xmlns:dc="http://purl.org/dc/elements/1.1/" xmlns:cc="http://creativecommons.org/ns#" xmlns:rdf="http://www.w3.org/1999/02/22-rdf-syntax-ns#" xmlns:svg="http://www.w3.org/2000/svg" xmlns="http://www.w3.org/2000/svg" xmlns:xlink="http://www.w3.org/1999/xlink" xmlns:sodipodi="http://sodipodi.sourceforge.net/DTD/sodipodi-0.dtd" xmlns:inkscape="http://www.inkscape.org/namespaces/inkscape" width="480" height="320" id="svg2" version="1.1" inkscape:version="0.48.1 " sodipodi:docname="Lvl_Poezd_v11_Gorki_v2.svg" style="display:inline" inkscape:export-filename="D:\Lunohod\Levels\Lvl_Poezd_v11_Gorki_v2\Lvl_Poezd_v11_Gorki_v2.png" inkscape:export-xdpi="90" inkscape:export-ydpi="90">
    <defs id="defs4" />
    <sodipodi:namedview id="base" pagecolor="#ffffff" bordercolor="#666666" borderopacity="1.0" inkscape:pageopacity="0.0" inkscape:pageshadow="2" inkscape:zoom="1" inkscape:cx="274.85987" inkscape:cy="128.46472" inkscape:document-units="px" inkscape:current-layer="layer11" showgrid="false" width="480px" inkscape:showpageshadow="false" inkscape:window-width="1280" inkscape:window-height="744" inkscape:window-x="-4" inkscape:window-y="-4" inkscape:window-maximized="1" showguides="false" inkscape:guide-bbox="true">
        <sodipodi:guide orientation="0,1" position="320,256" id="guide3018" />
        <sodipodi:guide orientation="0,1" position="160,64" id="guide3020" />
        <sodipodi:guide orientation="1,0" position="400,240" id="guide3022" />
        <sodipodi:guide orientation="1,0" position="80,128" id="guide3024" />
        <sodipodi:guide orientation="0,1" position="240,160" id="guide3005" />
        <sodipodi:guide orientation="1,0" position="240,160" id="guide3007" />
        <sodipodi:guide orientation="1,0" position="0,160" id="guide3072" />
        <sodipodi:guide orientation="1,0" position="480,160" id="guide3074" />
        <sodipodi:guide orientation="0,1" position="240,320" id="guide3076" />
        <sodipodi:guide orientation="0,1" position="240,0" id="guide3078" />
        <inkscape:grid type="xygrid" id="grid3023" />
        <sodipodi:guide orientation="0,1" position="206.77971,80" id="guide3591" />
        <sodipodi:guide orientation="0,1" position="197.98501,266" id="guide3595" />
    </sodipodi:namedview>
    <metadata id="metadata7">
        <rdf:RDF>
            <cc:Work rdf:about="">
                <dc:format>image/svg+xml</dc:format>
                <dc:type rdf:resource="http://purl.org/dc/dcmitype/StillImage" />
                <dc:title />
            </cc:Work>
        </rdf:RDF>
    </metadata>
    <g inkscape:groupmode="layer" id="layer1" inkscape:label="background" style="display:inline" sodipodi:insensitive="true">
        <image y="0" x="0" id="image3625" xlink:href="file:///D:/Lunohod/Grfx/design/backgrounds/backg_demo.png" height="320" width="480" />
    </g>
    <g inkscape:groupmode="layer" id="layer7" inkscape:label="secondbckg" sodipodi:insensitive="true" />
    <g inkscape:groupmode="layer" id="layer4" inkscape:label="blocks" sodipodi:insensitive="true" />
    <g inkscape:groupmode="layer" id="layer8" inkscape:label="design" style="display:inline" sodipodi:insensitive="true">
        <image y="140" x="160" id="image3380" xlink:href="file:///D:/Lunohod/Grfx/design/railway/railwayHor6.png" height="40" width="40" />
        <image y="-480" x="100" id="image3231" xlink:href="file:///D:/Lunohod/Grfx/design/railway/railwayTurn90a.png" height="80" width="80" transform="matrix(0,1,-1,0,0,0)" />
        <image y="-420" x="220" id="image3253" xlink:href="file:///D:/Lunohod/Grfx/design/railway/railwayTurn180a.png" height="100" width="60" transform="matrix(0,1,-1,0,0,0)" />
        <image y="-480" x="40" id="image3264" xlink:href="file:///D:/Lunohod/Grfx/design/railway/railwayTurn180b.png" height="100" width="60" transform="matrix(0,1,-1,0,0,0)" />
        <image width="40" height="40" xlink:href="file:///D:/Lunohod/Grfx/design/railway/railwayHor1.png" id="image3271" x="120" y="140" />
        <image width="40" height="40" xlink:href="file:///D:/Lunohod/Grfx/design/railway/railwayHor1.png" id="image3277" x="240" y="140" />
        <image y="140" x="280" id="image3279" xlink:href="file:///D:/Lunohod/Grfx/design/railway/railwayHor1.png" height="40" width="40" />
        <image y="140" x="360" id="image3283" xlink:href="file:///D:/Lunohod/Grfx/design/railway/railwayHor1.png" height="40" width="40" />
        <image width="40" height="40" xlink:href="file:///D:/Lunohod/Grfx/design/railway/railwayHor1.png" id="image3289" x="100" y="-420" transform="matrix(0,1,-1,0,0,0)" />
        <image width="40" height="40" xlink:href="file:///D:/Lunohod/Grfx/design/railway/railwayHor1.png" id="image3293" x="180" y="-420" transform="matrix(0,1,-1,0,0,0)" />
        <image transform="matrix(0,1,-1,0,0,0)" width="60" height="100" xlink:href="file:///D:/Lunohod/Grfx/design/railway/railwayTurn180a.png" id="image3297" x="220" y="-300" />
        <image transform="matrix(0,1,-1,0,0,0)" width="60" height="100" xlink:href="file:///D:/Lunohod/Grfx/design/railway/railwayTurn180b.png" id="image3299" x="40" y="-360" />
        <image transform="matrix(0,1,-1,0,0,0)" y="-300" x="180" id="image3305" xlink:href="file:///D:/Lunohod/Grfx/design/railway/railwayHor1.png" height="40" width="40" />
        <image transform="matrix(0,1,-1,0,0,0)" y="-360" x="100" id="image3307" xlink:href="file:///D:/Lunohod/Grfx/design/railway/railwayHor1.png" height="40" width="40" />
        <image transform="matrix(0,1,-1,0,0,0)" y="-360" x="180" id="image3311" xlink:href="file:///D:/Lunohod/Grfx/design/railway/railwayHor1.png" height="40" width="40" />
        <image y="-180" x="220" id="image3313" xlink:href="file:///D:/Lunohod/Grfx/design/railway/railwayTurn180a.png" height="100" width="60" transform="matrix(0,1,-1,0,0,0)" />
        <image y="-240" x="40" id="image3315" xlink:href="file:///D:/Lunohod/Grfx/design/railway/railwayTurn180b.png" height="100" width="60" transform="matrix(0,1,-1,0,0,0)" />
        <image width="40" height="40" xlink:href="file:///D:/Lunohod/Grfx/design/railway/railwayHor1.png" id="image3317" x="100" y="-180" transform="matrix(0,1,-1,0,0,0)" />
        <image width="40" height="40" xlink:href="file:///D:/Lunohod/Grfx/design/railway/railwayHor1.png" id="image3321" x="180" y="-180" transform="matrix(0,1,-1,0,0,0)" />
        <image width="40" height="40" xlink:href="file:///D:/Lunohod/Grfx/design/railway/railwayHor1.png" id="image3323" x="100" y="-240" transform="matrix(0,1,-1,0,0,0)" />
        <image transform="matrix(0,1,-1,0,0,0)" y="-120" x="180" id="image3343" xlink:href="file:///D:/Lunohod/Grfx/design/railway/railwayHor1.png" height="40" width="40" />
        <image transform="matrix(0,1,-1,0,0,0)" y="-120" x="100" id="image3347" xlink:href="file:///D:/Lunohod/Grfx/design/railway/railwayHor1.png" height="40" width="40" />
        <image width="40" height="40" xlink:href="file:///D:/Lunohod/Grfx/design/railway/railwayHor1.png" id="image3349" x="60" y="-120" transform="matrix(0,1,-1,0,0,0)" />
        <image y="140" x="200" id="image3359" xlink:href="file:///D:/Lunohod/Grfx/design/railway/railwayCross.png" height="40" width="40" />
        <image width="40" height="40" xlink:href="file:///D:/Lunohod/Grfx/design/railway/railwayCross.png" id="image3362" x="140" y="140" />
        <image y="140" x="260" id="image3364" xlink:href="file:///D:/Lunohod/Grfx/design/railway/railwayCross.png" height="40" width="40" />
        <image width="40" height="40" xlink:href="file:///D:/Lunohod/Grfx/design/railway/railwayCross.png" id="image3366" x="320" y="140" />
        <image y="140" x="380" id="image3368" xlink:href="file:///D:/Lunohod/Grfx/design/railway/railwayCross.png" height="40" width="40" />
        <image width="40" height="40" xlink:href="file:///D:/Lunohod/Grfx/design/railway/railwayCross.png" id="image3370" x="80" y="140" />
        <image y="-240" x="180" id="image3391" xlink:href="file:///D:/Lunohod/Grfx/design/railway/railwayHor4.png" height="40" width="40" transform="matrix(0,1,-1,0,0,0)" />
        <image y="-300" x="100" id="image3402" xlink:href="file:///D:/Lunohod/Grfx/design/railway/railwayHor5.png" height="40" width="40" transform="matrix(0,1,-1,0,0,0)" />
        <image y="140" x="40" id="image3413" xlink:href="file:///D:/Lunohod/Grfx/design/railway/railwayHor7.png" height="40" width="40" />
        <image y="140" x="0" id="image3424" xlink:href="file:///D:/Lunohod/Grfx/design/railway/railwayHor6.png" height="40" width="40" />
        <image transform="matrix(0,1,-1,0,0,0)" y="-120" x="20" id="image3440" xlink:href="file:///D:/Lunohod/Grfx/design/railway/railwayHor1.png" height="40" width="40" />
        <image width="40" height="40" xlink:href="file:///D:/Lunohod/Grfx/design/railway/railwayHor1.png" id="image3442" x="-20" y="-120" transform="matrix(0,1,-1,0,0,0)" />
    </g>
    <g inkscape:groupmode="layer" id="layer2" inkscape:label="enemies" style="display:inline" sodipodi:insensitive="true">
        <image y="149" x="122" id="image3452" xlink:href="file:///D:/Lunohod/Grfx/objects/visible/EnemyRat4/EnemyRat4_Dimensions.png" height="21" width="18" />
        <image width="18" height="21" xlink:href="file:///D:/Lunohod/Grfx/objects/visible/EnemyRat4/EnemyRat4_Dimensions.png" id="image3455" x="182" y="149" />
        <image y="149" x="242" id="image3457" xlink:href="file:///D:/Lunohod/Grfx/objects/visible/EnemyRat4/EnemyRat4_Dimensions.png" height="21" width="18" />
        <image width="18" height="21" xlink:href="file:///D:/Lunohod/Grfx/objects/visible/EnemyRat4/EnemyRat4_Dimensions.png" id="image3459" x="302" y="149" />
        <image y="149" x="362" id="image3461" xlink:href="file:///D:/Lunohod/Grfx/objects/visible/EnemyRat4/EnemyRat4_Dimensions.png" height="21" width="18" />
        <image width="18" height="21" xlink:href="file:///D:/Lunohod/Grfx/objects/visible/EnemyRat4/EnemyRat4_Dimensions.png" id="image3463" x="422" y="149" />
    </g>
    <g inkscape:groupmode="layer" id="layer3" inkscape:label="food" style="display:inline" sodipodi:insensitive="true">
        <image width="28" height="17" xlink:href="file:///D:/Lunohod/Grfx/objects/visible/Food/fish_6_me.png" id="image3477" x="88.475761" y="228.8651" />
        <image width="28" height="17" xlink:href="file:///D:/Lunohod/Grfx/objects/visible/Food/fish_6_me.png" id="image3479" x="119.68929" y="244.61137" />
        <image width="28" height="17" xlink:href="file:///D:/Lunohod/Grfx/objects/visible/Food/fish_6_me.png" id="image3481" x="146.48405" y="228.64125" />
        <image width="28" height="17" xlink:href="file:///D:/Lunohod/Grfx/objects/visible/Food/fish_6_me.png" id="image3483" x="154.00923" y="68.623703" />
        <image width="28" height="17" xlink:href="file:///D:/Lunohod/Grfx/objects/visible/Food/fish_6_me.png" id="image3485" x="179.68472" y="50.779984" />
        <image width="28" height="17" xlink:href="file:///D:/Lunohod/Grfx/objects/visible/Food/fish_6_me.png" id="image3487" x="205.61165" y="71.392715" />
        <image width="28" height="17" xlink:href="file:///D:/Lunohod/Grfx/objects/visible/Food/fish_6_me.png" id="image3489" x="208.6629" y="226.99153" />
        <image width="28" height="17" xlink:href="file:///D:/Lunohod/Grfx/objects/visible/Food/fish_6_me.png" id="image3491" x="238.75714" y="244.61137" />
        <image width="28" height="17" xlink:href="file:///D:/Lunohod/Grfx/objects/visible/Food/fish_6_me.png" id="image3493" x="266.72635" y="223.99864" />
        <image width="28" height="17" xlink:href="file:///D:/Lunohod/Grfx/objects/visible/Food/fish_6_me.png" id="image3495" x="276.34897" y="69.93927" />
        <image width="28" height="17" xlink:href="file:///D:/Lunohod/Grfx/objects/visible/Food/fish_6_me.png" id="image3497" x="296.90656" y="55.39502" />
        <image width="28" height="17" xlink:href="file:///D:/Lunohod/Grfx/objects/visible/Food/fish_6_me.png" id="image3499" x="322.55444" y="71.113716" />
        <image width="28" height="17" xlink:href="file:///D:/Lunohod/Grfx/objects/visible/Food/fish_6_me.png" id="image3501" x="332.31821" y="228.80995" />
        <image width="28" height="17" xlink:href="file:///D:/Lunohod/Grfx/objects/visible/Food/fish_6_me.png" id="image3503" x="356.56781" y="246.4574" />
        <image width="28" height="17" xlink:href="file:///D:/Lunohod/Grfx/objects/visible/Food/fish_6_me.png" id="image3505" x="389.48624" y="226.76765" />
        <image width="28" height="17" xlink:href="file:///D:/Lunohod/Grfx/objects/visible/Food/fish_6_me.png" id="image3507" x="387.50235" y="107.02175" />
        <image width="28" height="17" xlink:href="file:///D:/Lunohod/Grfx/objects/visible/Food/fish_6_me.png" id="image3509" x="391.78323" y="80.536812" />
        <image width="28" height="17" xlink:href="file:///D:/Lunohod/Grfx/objects/visible/Food/fish_6_me.png" id="image3511" x="411.58649" y="58.108887" />
        <image style="display:inline" y="164.14244" x="52.268799" id="image3521" xlink:href="file:///D:/Lunohod/Grfx/objects/visible/Food/fish_5_me.png" height="17" width="26" />
        <image width="26" height="17" xlink:href="file:///D:/Lunohod/Grfx/objects/visible/Food/fish_5_me.png" id="image3544" x="41.479755" y="154.0369" style="display:inline" />
        <image width="26" height="17" xlink:href="file:///D:/Lunohod/Grfx/objects/visible/Food/fish_5_me.png" id="image3542" x="53.562832" y="142.26628" style="display:inline" />
    </g>
    <g inkscape:groupmode="layer" id="layer10" inkscape:label="way" style="display:inline" sodipodi:insensitive="true">
        <image y="16" x="84" id="image3566" xlink:href="file:///D:/Lunohod/Grfx/objects/unvisible/Moving/down.png" height="224" width="4" />
        <image y="240" x="84" id="image3588" xlink:href="file:///D:/Lunohod/Grfx/objects/unvisible/Moving/right.png" height="4" width="60" />
        <image y="54" x="144" id="image3555" xlink:href="file:///D:/Lunohod/Grfx/objects/unvisible/Moving/up.png" height="186" width="4" />
        <image width="60" height="4" xlink:href="file:///D:/Lunohod/Grfx/objects/unvisible/Moving/right.png" id="image3597" x="144" y="54" />
        <image width="4" height="186" xlink:href="file:///D:/Lunohod/Grfx/objects/unvisible/Moving/down.png" id="image3599" x="204" y="54" />
        <image width="60" height="4" xlink:href="file:///D:/Lunohod/Grfx/objects/unvisible/Moving/right.png" id="image3603" x="204" y="240" />
        <image width="4" height="186" xlink:href="file:///D:/Lunohod/Grfx/objects/unvisible/Moving/up.png" id="image3601" x="264" y="54" />
        <image y="54" x="264" id="image3605" xlink:href="file:///D:/Lunohod/Grfx/objects/unvisible/Moving/right.png" height="4" width="60" />
        <image y="54" x="324" id="image3607" xlink:href="file:///D:/Lunohod/Grfx/objects/unvisible/Moving/down.png" height="186" width="4" />
        <image y="240" x="324" id="image3611" xlink:href="file:///D:/Lunohod/Grfx/objects/unvisible/Moving/right.png" height="4" width="60" />
        <image y="54" x="384" id="image3609" xlink:href="file:///D:/Lunohod/Grfx/objects/unvisible/Moving/up.png" height="186" width="4" />
        <image width="60" height="4" xlink:href="file:///D:/Lunohod/Grfx/objects/unvisible/Moving/right.png" id="image3613" x="384" y="54" />
        <image width="4" height="94" xlink:href="file:///D:/Lunohod/Grfx/objects/unvisible/Moving/down.png" id="image3615" x="444" y="54.042755" />
        <image y="148.04276" x="18.969458" id="image3577" xlink:href="file:///D:/Lunohod/Grfx/objects/unvisible/Moving/left.png" height="4" width="425.03055" />
    </g>
    <g inkscape:groupmode="layer" id="layer5" inkscape:label="actionTHE" style="display:inline" sodipodi:insensitive="true">
        <image y="0" x="0" id="image3038" xlink:href="file:///D:/Lunohod/Grfx/objects/visible/Tower/transmitter-2.png" height="30" width="30" />
        <image y="132.45885" x="3.8188012" id="image3049" xlink:href="file:///D:/Lunohod/Grfx/objects/visible/Exit/refrigerator.png" height="54" width="37" />
        <image y="16" x="84" id="image3016-1" xlink:href="file:///D:/Lunohod/Grfx/objects/visible/Hero/heroDimensions.png" height="24" width="33" />
    </g>
    <g inkscape:groupmode="layer" id="layer11" inkscape:label="Semafor" sodipodi:insensitive="true">
        <image y="20" x="62" id="image3098" xlink:href="file:///D:/Lunohod/Grfx/objects/visible/Semafor/semafor_green.png" height="60" width="38" />
    </g>
    <g inkscape:groupmode="layer" id="layer9" inkscape:label="dash" style="opacity:0.29861109;display:none" sodipodi:insensitive="true">
        <image y="0" x="0" id="image3016" xlink:href="file:///D:/Lunohod/Art/dashboard/screenTapAreas_dash_M_btnSize52.png" height="320" width="480" />
    </g>
    <g inkscape:groupmode="layer" id="layer6" inkscape:label="upmask" sodipodi:insensitive="true" style="display:none">
        <rect style="fill:#ffffff;fill-opacity:1;fill-rule:nonzero;stroke:none" id="rect3011" width="1499.1859" height="380.14673" x="-434.48303" y="-380.14673" />
        <rect style="fill:#ffffff;fill-opacity:1;fill-rule:nonzero;stroke:none" id="rect3013" width="644.82831" height="1098.9973" x="480" y="-256.73999" />
        <rect style="fill:#ffffff;fill-opacity:1;fill-rule:nonzero;stroke:none" id="rect3015" width="1018.1825" height="736.57312" x="-257.47144" y="320" />
        <rect style="fill:#ffffff;fill-opacity:1;fill-rule:nonzero;stroke:none" id="rect3017" width="663.5741" height="1133.1669" x="-663.5741" y="-333.33374" />
    </g>
</svg>
