<?xml version="1.0" encoding="UTF-8" standalone="no"?>
<!-- Created with Inkscape (http://www.inkscape.org/) -->

<svg xmlns:dc="http://purl.org/dc/elements/1.1/" xmlns:cc="http://creativecommons.org/ns#" xmlns:rdf="http://www.w3.org/1999/02/22-rdf-syntax-ns#" xmlns:svg="http://www.w3.org/2000/svg" xmlns="http://www.w3.org/2000/svg" xmlns:xlink="http://www.w3.org/1999/xlink" xmlns:sodipodi="http://sodipodi.sourceforge.net/DTD/sodipodi-0.dtd" xmlns:inkscape="http://www.inkscape.org/namespaces/inkscape" width="480" height="320" id="svg2" version="1.1" inkscape:version="0.48.1 " sodipodi:docname="Lvl_Labirint_v5_Vorishka.svg" style="display:inline" inkscape:export-filename="D:\Lunohod\Levels\Lvl_Labirint_v5_Vorishka\Lvl_Labirint_v5_Vorishka.png" inkscape:export-xdpi="90" inkscape:export-ydpi="90">
    <defs id="defs4" />
    <sodipodi:namedview id="base" pagecolor="#ffffff" bordercolor="#666666" borderopacity="1.0" inkscape:pageopacity="0.0" inkscape:pageshadow="2" inkscape:zoom="1.21" inkscape:cx="246.75527" inkscape:cy="160.23529" inkscape:document-units="px" inkscape:current-layer="layer4" showgrid="false" width="480px" inkscape:showpageshadow="false" inkscape:window-width="1280" inkscape:window-height="744" inkscape:window-x="-4" inkscape:window-y="-4" inkscape:window-maximized="1" showguides="false" inkscape:guide-bbox="true">
        <sodipodi:guide orientation="0,1" position="320,256" id="guide3018" />
        <sodipodi:guide orientation="0,1" position="160,64" id="guide3020" />
        <sodipodi:guide orientation="1,0" position="400,192" id="guide3022" />
        <sodipodi:guide orientation="1,0" position="80,128" id="guide3024" />
        <sodipodi:guide orientation="0,1" position="240,160" id="guide3005" />
        <sodipodi:guide orientation="1,0" position="240,160" id="guide3007" />
        <sodipodi:guide orientation="1,0" position="0,160" id="guide3072" />
        <sodipodi:guide orientation="0,1" position="240,320" id="guide3076" />
        <sodipodi:guide orientation="0,1" position="240,0" id="guide3078" />
        <inkscape:grid type="xygrid" id="grid3023" />
    </sodipodi:namedview>
    <metadata id="metadata7">
        <rdf:RDF>
            <cc:Work rdf:about="">
                <dc:format>image/svg+xml</dc:format>
                <dc:type rdf:resource="http://purl.org/dc/dcmitype/StillImage" />
                <dc:title />
            </cc:Work>
        </rdf:RDF>
    </metadata>
    <g inkscape:groupmode="layer" id="layer4" inkscape:label="blocks" style="display:inline" sodipodi:insensitive="true">
        <image y="-30" x="0" id="image4184" xlink:href="file:///D:/Lunohod/Grfx/objects/unvisible/BlockStick/BlockStick.png" height="50" width="479.75208" />
        <image width="479.75208" height="50" xlink:href="file:///D:/Lunohod/Grfx/objects/unvisible/BlockStick/BlockStick.png" id="image4187" x="0" y="300" />
        <image y="0" x="-62" id="image4189" xlink:href="file:///D:/Lunohod/Grfx/objects/unvisible/BlockStick/BlockStick.png" height="350" width="80" />
        <image width="80" height="350" xlink:href="file:///D:/Lunohod/Grfx/objects/unvisible/BlockStick/BlockStick.png" id="image4191" x="460" y="0" />
        <image y="64.066116" x="80" id="image4193" xlink:href="file:///D:/Lunohod/Grfx/objects/unvisible/BlockStick/BlockStick.png" height="39.933884" width="92" />
        <image width="92" height="39.933884" xlink:href="file:///D:/Lunohod/Grfx/objects/unvisible/BlockStick/BlockStick.png" id="image4199" x="80" y="204" />
        <image width="230.32629" height="20" xlink:href="file:///D:/Lunohod/Grfx/objects/unvisible/BlockStick/BlockStick.png" id="image4201" x="129.67371" y="84" />
        <image y="204" x="127.67371" id="image4203" xlink:href="file:///D:/Lunohod/Grfx/objects/unvisible/BlockStick/BlockStick.png" height="20" width="214.32629" />
        <image width="52.296017" height="120" xlink:href="file:///D:/Lunohod/Grfx/objects/unvisible/BlockStick/BlockStick.png" id="image4205" x="80" y="84" />
        <image y="98" x="120" id="image3393" xlink:href="file:///D:/Lunohod/Grfx/objects/unvisible/BlockBounce/BlockBounce.png" height="24" width="264" />
        <image y="64" x="340" id="image3396" xlink:href="file:///D:/Lunohod/Grfx/objects/unvisible/BlockStick/BlockStick.png" height="60" width="52" />
        <image width="264" height="24" xlink:href="file:///D:/Lunohod/Grfx/objects/unvisible/BlockBounce/BlockBounce.png" id="image3398" x="120" y="186" />
        <image y="110" x="112" id="image3406" xlink:href="file:///D:/Lunohod/Grfx/objects/unvisible/BlockBounce/BlockBounce.png" height="90" width="40" />
        <image width="52" height="60" xlink:href="file:///D:/Lunohod/Grfx/objects/unvisible/BlockStick/BlockStick.png" id="image3349" x="340" y="184" />
    </g>
    <g inkscape:groupmode="layer" id="layer1" inkscape:label="_background" style="display:inline" sodipodi:insensitive="true">
        <image y="0" x="0" id="image4137" xlink:href="file:///D:/Lunohod/Grfx/design/backgrounds/brickBlue.png" height="320" width="480" />
    </g>
    <g inkscape:groupmode="layer" id="layer7" inkscape:label="_secondbckg" style="display:inline" sodipodi:insensitive="true">
        <image y="-76.698151" x="57.58868" id="image3247-4" xlink:href="file:///D:/Lunohod/Grfx/design/second_bckg/second_phon_communications2.png" height="77.99736" width="49.221634" transform="matrix(0,1,-1,0,0,0)" />
        <image y="-76.992851" x="176.8902" id="image3258-0" xlink:href="file:///D:/Lunohod/Grfx/design/second_bckg/second_phon_communications_2.png" height="88" width="52.203388" transform="matrix(0,1,-1,0,0,0)" />
        <image y="-72.207428" x="106.03192" id="image3269-9" xlink:href="file:///D:/Lunohod/Grfx/design/second_bckg/second_phon_communications_2_hor_me.png" height="18.197363" width="71.576294" transform="matrix(0,1,-1,0,0,0)" />
        <image y="24.008272" x="419.38205" id="image3280" xlink:href="file:///D:/Lunohod/Grfx/design/second_bckg/second_phon_ventilation_grille.png" height="31.667839" width="33.940247" />
        <image y="261.67017" x="332.54547" id="image3291" xlink:href="file:///D:/Lunohod/Grfx/design/second_bckg/second_phon_tank.png" height="35.74305" width="29.123966" />
        <image y="-48.140556" x="476.99341" id="image3302-4" xlink:href="file:///D:/Lunohod/Grfx/design/second_bckg/second_phon_ladder.png" height="109" width="29.603306" transform="matrix(0.8660254,0.5,-0.5,0.8660254,0,0)" />
        <image width="27.410162" height="33.639744" xlink:href="file:///D:/Lunohod/Grfx/design/second_bckg/second_phon_tank.png" id="image3305" x="361.95041" y="258.85611" />
        <image y="63.263855" x="434.31229" id="image3315" xlink:href="file:///D:/Lunohod/Grfx/design/second_bckg/second_phon_crack.png" height="25.212843" width="52.707195" />
    </g>
    <g inkscape:groupmode="layer" id="layer8" inkscape:label="_design" style="display:inline" sodipodi:insensitive="true">
        <image y="0" x="-8" id="image3016-1" xlink:href="file:///D:/Lunohod/Grfx/design/wall/Brick/texture_brick_clean.png" height="20" width="26" />
        <image width="26" height="20" xlink:href="file:///D:/Lunohod/Grfx/design/wall/Brick/texture_brick_clean.png" id="image3019" x="18" y="0" />
        <image width="26" height="20" xlink:href="file:///D:/Lunohod/Grfx/design/wall/Brick/texture_brick_clean.png" id="image3023" x="44" y="0" />
        <image y="0" x="70" id="image3025" xlink:href="file:///D:/Lunohod/Grfx/design/wall/Brick/texture_brick_clean.png" height="20" width="26" />
        <image width="26" height="20" xlink:href="file:///D:/Lunohod/Grfx/design/wall/Brick/texture_brick_clean.png" id="image3027" x="96" y="0" />
        <image y="0" x="122" id="image3029" xlink:href="file:///D:/Lunohod/Grfx/design/wall/Brick/texture_brick_clean.png" height="20" width="26" />
        <image y="0" x="148" id="image3031" xlink:href="file:///D:/Lunohod/Grfx/design/wall/Brick/texture_brick_clean.png" height="20" width="26" />
        <image width="26" height="20" xlink:href="file:///D:/Lunohod/Grfx/design/wall/Brick/texture_brick_clean.png" id="image3033" x="174" y="0" />
        <image width="26" height="20" xlink:href="file:///D:/Lunohod/Grfx/design/wall/Brick/texture_brick_clean.png" id="image3035" x="200" y="0" />
        <image y="0" x="226" id="image3037" xlink:href="file:///D:/Lunohod/Grfx/design/wall/Brick/texture_brick_clean.png" height="20" width="26" />
        <image y="0" x="252" id="image3039" xlink:href="file:///D:/Lunohod/Grfx/design/wall/Brick/texture_brick_clean.png" height="20" width="26" />
        <image width="26" height="20" xlink:href="file:///D:/Lunohod/Grfx/design/wall/Brick/texture_brick_clean.png" id="image3041" x="278" y="0" />
        <image y="0" x="304" id="image3043" xlink:href="file:///D:/Lunohod/Grfx/design/wall/Brick/texture_brick_clean.png" height="20" width="26" />
        <image width="26" height="20" xlink:href="file:///D:/Lunohod/Grfx/design/wall/Brick/texture_brick_clean.png" id="image3045" x="330" y="0" />
        <image width="26" height="20" xlink:href="file:///D:/Lunohod/Grfx/design/wall/Brick/texture_brick_clean.png" id="image3047" x="356" y="0" />
        <image y="0" x="382" id="image3050" xlink:href="file:///D:/Lunohod/Grfx/design/wall/Brick/texture_brick_clean.png" height="20" width="26" />
        <image y="0" x="408" id="image3052" xlink:href="file:///D:/Lunohod/Grfx/design/wall/Brick/texture_brick_clean.png" height="20" width="26" />
        <image width="26" height="20" xlink:href="file:///D:/Lunohod/Grfx/design/wall/Brick/texture_brick_clean.png" id="image3054" x="434" y="0" />
        <image y="0" x="460" id="image3056" xlink:href="file:///D:/Lunohod/Grfx/design/wall/Brick/texture_brick_clean.png" height="20" width="26" />
        <image width="26" height="20" xlink:href="file:///D:/Lunohod/Grfx/design/wall/Brick/texture_brick_clean.png" id="image3062" x="-8" y="300" />
        <image y="300" x="18" id="image3064" xlink:href="file:///D:/Lunohod/Grfx/design/wall/Brick/texture_brick_clean.png" height="20" width="26" />
        <image y="300" x="44" id="image3066" xlink:href="file:///D:/Lunohod/Grfx/design/wall/Brick/texture_brick_clean.png" height="20" width="26" />
        <image width="26" height="20" xlink:href="file:///D:/Lunohod/Grfx/design/wall/Brick/texture_brick_clean.png" id="image3068" x="70" y="300" />
        <image width="26" height="20" xlink:href="file:///D:/Lunohod/Grfx/design/wall/Brick/texture_brick_clean.png" id="image3072" x="122" y="300" />
        <image width="26" height="20" xlink:href="file:///D:/Lunohod/Grfx/design/wall/Brick/texture_brick_clean.png" id="image3074" x="148" y="300" />
        <image y="300" x="174" id="image3076" xlink:href="file:///D:/Lunohod/Grfx/design/wall/Brick/texture_brick_clean.png" height="20" width="26" />
        <image y="300" x="200" id="image3078" xlink:href="file:///D:/Lunohod/Grfx/design/wall/Brick/texture_brick_clean.png" height="20" width="26" />
        <image y="300" x="356" id="image3090" xlink:href="file:///D:/Lunohod/Grfx/design/wall/Brick/texture_brick_clean.png" height="20" width="26" />
        <image width="26" height="20" xlink:href="file:///D:/Lunohod/Grfx/design/wall/Brick/texture_brick_clean.png" id="image3092" x="382" y="300" />
        <image width="26" height="20" xlink:href="file:///D:/Lunohod/Grfx/design/wall/Brick/texture_brick_clean.png" id="image3094" x="408" y="300" />
        <image y="300" x="434" id="image3096" xlink:href="file:///D:/Lunohod/Grfx/design/wall/Brick/texture_brick_clean.png" height="20" width="26" />
        <image width="26" height="20" xlink:href="file:///D:/Lunohod/Grfx/design/wall/Brick/texture_brick_clean.png" id="image3098" x="460" y="300" />
        <image width="26" height="20" xlink:href="file:///D:/Lunohod/Grfx/design/wall/Brick/texture_brick_clean.png" id="image3100" x="-8" y="20" />
        <image y="40" x="-8" id="image3102" xlink:href="file:///D:/Lunohod/Grfx/design/wall/Brick/texture_brick_clean.png" height="20" width="26" />
        <image width="26" height="20" xlink:href="file:///D:/Lunohod/Grfx/design/wall/Brick/texture_brick_clean.png" id="image3104" x="-8" y="60" />
        <image y="80" x="-8" id="image3106" xlink:href="file:///D:/Lunohod/Grfx/design/wall/Brick/texture_brick_clean.png" height="20" width="26" />
        <image width="26" height="20" xlink:href="file:///D:/Lunohod/Grfx/design/wall/Brick/texture_brick_clean.png" id="image3108" x="-8" y="100" />
        <image y="120" x="-8" id="image3110" xlink:href="file:///D:/Lunohod/Grfx/design/wall/Brick/texture_brick_clean.png" height="20" width="26" />
        <image width="26" height="20" xlink:href="file:///D:/Lunohod/Grfx/design/wall/Brick/texture_brick_clean.png" id="image3112" x="-8" y="140" />
        <image y="160" x="-8" id="image3114" xlink:href="file:///D:/Lunohod/Grfx/design/wall/Brick/texture_brick_clean.png" height="20" width="26" />
        <image width="26" height="20" xlink:href="file:///D:/Lunohod/Grfx/design/wall/Brick/texture_brick_clean.png" id="image3116" x="-8" y="180" />
        <image y="200" x="-8" id="image3118" xlink:href="file:///D:/Lunohod/Grfx/design/wall/Brick/texture_brick_clean.png" height="20" width="26" />
        <image width="26" height="20" xlink:href="file:///D:/Lunohod/Grfx/design/wall/Brick/texture_brick_clean.png" id="image3120" x="-8" y="220" />
        <image y="240" x="-8" id="image3122" xlink:href="file:///D:/Lunohod/Grfx/design/wall/Brick/texture_brick_clean.png" height="20" width="26" />
        <image width="26" height="20" xlink:href="file:///D:/Lunohod/Grfx/design/wall/Brick/texture_brick_clean.png" id="image3124" x="-8" y="260" />
        <image y="280" x="-8" id="image3126" xlink:href="file:///D:/Lunohod/Grfx/design/wall/Brick/texture_brick_clean.png" height="20" width="26" />
        <image y="20" x="460" id="image3130" xlink:href="file:///D:/Lunohod/Grfx/design/wall/Brick/texture_brick_clean.png" height="20" width="26" />
        <image width="26" height="20" xlink:href="file:///D:/Lunohod/Grfx/design/wall/Brick/texture_brick_clean.png" id="image3132" x="460" y="40" />
        <image width="26" height="20" xlink:href="file:///D:/Lunohod/Grfx/design/wall/Brick/texture_brick_clean.png" id="image3136" x="460" y="80" />
        <image y="100" x="460" id="image3138" xlink:href="file:///D:/Lunohod/Grfx/design/wall/Brick/texture_brick_clean.png" height="20" width="26" />
        <image width="26" height="20" xlink:href="file:///D:/Lunohod/Grfx/design/wall/Brick/texture_brick_clean.png" id="image3140" x="460" y="120" />
        <image y="140" x="460" id="image3142" xlink:href="file:///D:/Lunohod/Grfx/design/wall/Brick/texture_brick_clean.png" height="20" width="26" />
        <image width="26" height="20" xlink:href="file:///D:/Lunohod/Grfx/design/wall/Brick/texture_brick_clean.png" id="image3144" x="460" y="160" />
        <image y="180" x="460" id="image3146" xlink:href="file:///D:/Lunohod/Grfx/design/wall/Brick/texture_brick_clean.png" height="20" width="26" />
        <image width="26" height="20" xlink:href="file:///D:/Lunohod/Grfx/design/wall/Brick/texture_brick_clean.png" id="image3148" x="460" y="200" />
        <image y="220" x="460" id="image3150" xlink:href="file:///D:/Lunohod/Grfx/design/wall/Brick/texture_brick_clean.png" height="20" width="26" />
        <image width="26" height="20" xlink:href="file:///D:/Lunohod/Grfx/design/wall/Brick/texture_brick_clean.png" id="image3152" x="460" y="240" />
        <image y="260" x="460" id="image3154" xlink:href="file:///D:/Lunohod/Grfx/design/wall/Brick/texture_brick_clean.png" height="20" width="26" />
        <image width="26" height="20" xlink:href="file:///D:/Lunohod/Grfx/design/wall/Brick/texture_brick_clean.png" id="image3156" x="460" y="280" />
        <image y="64" x="80" id="image3158" xlink:href="file:///D:/Lunohod/Grfx/design/wall/Brick/texture_brick_clean.png" height="20" width="26" />
        <image width="26" height="20" xlink:href="file:///D:/Lunohod/Grfx/design/wall/Brick/texture_brick_clean.png" id="image3160" x="106" y="64" />
        <image width="26" height="20" xlink:href="file:///D:/Lunohod/Grfx/design/wall/Brick/texture_brick_clean.png" id="image3162" x="132" y="84" />
        <image y="84" x="158" id="image3164" xlink:href="file:///D:/Lunohod/Grfx/design/wall/Brick/texture_brick_clean.png" height="20" width="26" />
        <image width="26" height="20" xlink:href="file:///D:/Lunohod/Grfx/design/wall/Brick/texture_brick_clean.png" id="image3166" x="184" y="84" />
        <image y="84" x="210" id="image3168" xlink:href="file:///D:/Lunohod/Grfx/design/wall/Brick/texture_brick_clean.png" height="20" width="26" />
        <image y="84" x="236" id="image3170" xlink:href="file:///D:/Lunohod/Grfx/design/wall/Brick/texture_brick_clean.png" height="20" width="26" />
        <image width="26" height="20" xlink:href="file:///D:/Lunohod/Grfx/design/wall/Brick/texture_brick_clean.png" id="image3172" x="262" y="84" />
        <image width="26" height="20" xlink:href="file:///D:/Lunohod/Grfx/design/wall/Brick/texture_brick_clean.png" id="image3174" x="288" y="84" />
        <image y="84" x="314" id="image3176" xlink:href="file:///D:/Lunohod/Grfx/design/wall/Brick/texture_brick_clean.png" height="20" width="26" />
        <image y="224" x="106" id="image3184" xlink:href="file:///D:/Lunohod/Grfx/design/wall/Brick/texture_brick_clean.png" height="20" width="26" />
        <image y="204" x="184" id="image3190" xlink:href="file:///D:/Lunohod/Grfx/design/wall/Brick/texture_brick_clean.png" height="20" width="26" />
        <image width="26" height="20" xlink:href="file:///D:/Lunohod/Grfx/design/wall/Brick/texture_brick_clean.png" id="image3192" x="210" y="204" />
        <image width="26" height="20" xlink:href="file:///D:/Lunohod/Grfx/design/wall/Brick/texture_brick_clean.png" id="image3194" x="236" y="204" />
        <image width="26" height="20" xlink:href="file:///D:/Lunohod/Grfx/design/wall/Brick/texture_brick_clean.png" id="image3202" x="340" y="224" />
        <image y="224" x="366" id="image3204" xlink:href="file:///D:/Lunohod/Grfx/design/wall/Brick/texture_brick_clean.png" height="20" width="26" />
        <image width="26" height="20" xlink:href="file:///D:/Lunohod/Grfx/design/wall/Brick/texture_brick_clean.png" id="image3206" x="80" y="84" />
        <image y="104" x="106" id="image3208" xlink:href="file:///D:/Lunohod/Grfx/design/wall/Brick/texture_brick_clean.png" height="20" width="26" />
        <image width="26" height="20" xlink:href="file:///D:/Lunohod/Grfx/design/wall/Brick/texture_brick_clean.png" id="image3210" x="80" y="204" />
        <image y="144" x="106" id="image3212" xlink:href="file:///D:/Lunohod/Grfx/design/wall/Brick/texture_brick_clean.png" height="20" width="26" />
        <image width="26" height="20" xlink:href="file:///D:/Lunohod/Grfx/design/wall/Brick/texture_brick_clean.png" id="image3214" x="106" y="164" />
        <image y="184" x="106" id="image3216" xlink:href="file:///D:/Lunohod/Grfx/design/wall/Brick/texture_brick_clean.png" height="20" width="26" />
        <image width="26" height="20" xlink:href="file:///D:/Lunohod/Grfx/design/wall/Brick/texture_brick_clean.png" id="image3222" x="366" y="204" />
        <image width="26" height="20" xlink:href="file:///D:/Lunohod/Grfx/design/wall/Brick/texture_brick_clean.png" id="image3234" x="366" y="84" />
        <image y="84" x="106" id="image3240" xlink:href="file:///D:/Lunohod/Grfx/design/wall/Brick/texture_brick_clean.png" height="20" width="26" />
        <image width="26" height="20" xlink:href="file:///D:/Lunohod/Grfx/design/wall/Brick/texture_brick_clean.png" id="image3242" x="106" y="204" />
        <image width="26" height="20" xlink:href="file:///D:/Lunohod/Grfx/design/wall/Brick/texture_brick_clean.png" id="image3273" x="132" y="204" />
        <image y="204" x="158" id="image3275" xlink:href="file:///D:/Lunohod/Grfx/design/wall/Brick/texture_brick_clean.png" height="20" width="26" />
        <image y="204" x="262" id="image4350" xlink:href="file:///D:/Lunohod/Grfx/design/wall/Brick/texture_brick_1.png" height="20" width="26" />
        <image y="204" x="340" id="image4361" xlink:href="file:///D:/Lunohod/Grfx/design/wall/Brick/texture_brick_2.png" height="20" width="26" />
        <image y="224" x="80" id="image4372" xlink:href="file:///D:/Lunohod/Grfx/design/wall/Brick/texture_brick_5.png" height="20" width="26" />
        <image y="124" x="106" id="image4383" xlink:href="file:///D:/Lunohod/Grfx/design/wall/Brick/texture_brick_3.png" height="20" width="26" />
        <image y="204" x="288" id="image3177" xlink:href="file:///D:/Lunohod/Grfx/design/wall/Brick/texture_brick_clean.png" height="20" width="26" />
        <image width="26" height="20" xlink:href="file:///D:/Lunohod/Grfx/design/wall/Brick/texture_brick_clean.png" id="image3179" x="314" y="204" />
        <image width="26" height="20" xlink:href="file:///D:/Lunohod/Grfx/design/wall/Brick/texture_brick_clean.png" id="image3185" x="80" y="144" />
        <image y="164" x="80" id="image3187" xlink:href="file:///D:/Lunohod/Grfx/design/wall/Brick/texture_brick_clean.png" height="20" width="26" />
        <image width="26" height="20" xlink:href="file:///D:/Lunohod/Grfx/design/wall/Brick/texture_brick_clean.png" id="image3189" x="80" y="184" />
        <image y="300" x="226" id="image3259" xlink:href="file:///D:/Lunohod/Grfx/design/wall/Brick/texture_brick_clean.png" height="20" width="26" />
        <image y="300" x="252" id="image3261" xlink:href="file:///D:/Lunohod/Grfx/design/wall/Brick/texture_brick_clean.png" height="20" width="26" />
        <image width="26" height="20" xlink:href="file:///D:/Lunohod/Grfx/design/wall/Brick/texture_brick_clean.png" id="image3263" x="278" y="300" />
        <image width="26" height="20" xlink:href="file:///D:/Lunohod/Grfx/design/wall/Brick/texture_brick_clean.png" id="image3265" x="304" y="300" />
        <image y="300" x="330" id="image3267" xlink:href="file:///D:/Lunohod/Grfx/design/wall/Brick/texture_brick_clean.png" height="20" width="26" />
        <image width="26" height="20" xlink:href="file:///D:/Lunohod/Grfx/design/wall/Brick/texture_brick_clean.png" id="image3269" x="340" y="84" />
        <image y="64" x="126" id="image3361" xlink:href="file:///D:/Lunohod/Grfx/design/wall/Brick/texture_brick_clean.png" height="20" width="26" />
        <image width="26" height="20" xlink:href="file:///D:/Lunohod/Grfx/design/wall/Brick/texture_brick_clean.png" id="image3365" x="126" y="224" />
        <image y="224" x="146" id="image3367" xlink:href="file:///D:/Lunohod/Grfx/design/wall/Brick/texture_brick_clean.png" height="20" width="26" />
        <image y="104" x="366" id="image3369" xlink:href="file:///D:/Lunohod/Grfx/design/wall/Brick/texture_brick_clean.png" height="20" width="26" />
        <image y="184" x="366" id="image3371" xlink:href="file:///D:/Lunohod/Grfx/design/wall/Brick/texture_brick_clean.png" height="20" width="26" />
        <image y="60" x="460" id="image3326-8" xlink:href="file:///D:/Lunohod/Grfx/design/wall/Brick/texture_brick_1.png" height="20" width="26" />
        <image y="64" x="366" id="image3337" xlink:href="file:///D:/Lunohod/Grfx/design/wall/Brick/texture_brick_3.png" height="20" width="26" />
        <image y="64" x="340" id="image3348-8" xlink:href="file:///D:/Lunohod/Grfx/design/wall/Brick/texture_brick_4.png" height="20" width="26" />
        <image y="124" x="80" id="image3359-2" xlink:href="file:///D:/Lunohod/Grfx/design/wall/Brick/texture_brick_5.png" height="20" width="26" />
        <image y="104" x="80" id="image3370" xlink:href="file:///D:/Lunohod/Grfx/design/wall/Brick/texture_brick_2.png" height="20" width="26" />
        <image y="64" x="146" id="image3403" xlink:href="file:///D:/Lunohod/Grfx/design/wall/Brick/texture_brick_6.png" height="20" width="26" />
        <image y="300" x="96" id="image3414" xlink:href="file:///D:/Lunohod/Grfx/design/wall/Brick/texture_brick_4.png" height="20" width="26" />
        <image width="26" height="20" xlink:href="file:///D:/Lunohod/Grfx/design/wall/Brick/texture_brick_clean.png" id="image3345" x="340" y="104" />
        <image y="184" x="340" id="image3347" xlink:href="file:///D:/Lunohod/Grfx/design/wall/Brick/texture_brick_clean.png" height="20" width="26" />
    </g>
    <g inkscape:groupmode="layer" id="layer10" inkscape:label="_metall" style="display:inline" sodipodi:insensitive="true">
        <image width="26" height="20" xlink:href="file:///D:/Lunohod/Grfx/design/wall/MetalConstruction/farm_a002.png" id="image3343" x="120" y="168" />
        <image y="120" x="120" id="image3340" xlink:href="file:///D:/Lunohod/Grfx/design/wall/MetalConstruction/farm_a002.png" height="20" width="26" />
        <image y="96" x="150" id="image3257" xlink:href="file:///D:/Lunohod/Grfx/design/wall/MetalConstruction/farm_a001.png" height="26" width="20" />
        <image width="20" height="26" xlink:href="file:///D:/Lunohod/Grfx/design/wall/MetalConstruction/farm_a001.png" id="image3260" x="170" y="96" />
        <image y="96" x="190" id="image3262" xlink:href="file:///D:/Lunohod/Grfx/design/wall/MetalConstruction/farm_a001.png" height="26" width="20" />
        <image width="20" height="26" xlink:href="file:///D:/Lunohod/Grfx/design/wall/MetalConstruction/farm_a001.png" id="image3264" x="210" y="96" />
        <image y="96" x="230" id="image3266" xlink:href="file:///D:/Lunohod/Grfx/design/wall/MetalConstruction/farm_a001.png" height="26" width="20" />
        <image width="20" height="26" xlink:href="file:///D:/Lunohod/Grfx/design/wall/MetalConstruction/farm_a001.png" id="image3268" x="250" y="96" />
        <image y="96" x="270" id="image3270" xlink:href="file:///D:/Lunohod/Grfx/design/wall/MetalConstruction/farm_a001.png" height="26" width="20" />
        <image width="20" height="26" xlink:href="file:///D:/Lunohod/Grfx/design/wall/MetalConstruction/farm_a001.png" id="image3272" x="290" y="96" />
        <image y="96" x="310" id="image3274" xlink:href="file:///D:/Lunohod/Grfx/design/wall/MetalConstruction/farm_a001.png" height="26" width="20" />
        <image width="20" height="26" xlink:href="file:///D:/Lunohod/Grfx/design/wall/MetalConstruction/farm_a001.png" id="image3276" x="330" y="96" />
        <image width="20" height="26" xlink:href="file:///D:/Lunohod/Grfx/design/wall/MetalConstruction/farm_a001.png" id="image3278" x="150" y="186" />
        <image y="186" x="170" id="image3281" xlink:href="file:///D:/Lunohod/Grfx/design/wall/MetalConstruction/farm_a001.png" height="26" width="20" />
        <image width="20" height="26" xlink:href="file:///D:/Lunohod/Grfx/design/wall/MetalConstruction/farm_a001.png" id="image3283" x="190" y="186" />
        <image y="186" x="210" id="image3285" xlink:href="file:///D:/Lunohod/Grfx/design/wall/MetalConstruction/farm_a001.png" height="26" width="20" />
        <image width="20" height="26" xlink:href="file:///D:/Lunohod/Grfx/design/wall/MetalConstruction/farm_a001.png" id="image3287" x="230" y="186" />
        <image y="186" x="250" id="image3289" xlink:href="file:///D:/Lunohod/Grfx/design/wall/MetalConstruction/farm_a001.png" height="26" width="20" />
        <image width="20" height="26" xlink:href="file:///D:/Lunohod/Grfx/design/wall/MetalConstruction/farm_a001.png" id="image3292" x="270" y="186" />
        <image y="186" x="290" id="image3294" xlink:href="file:///D:/Lunohod/Grfx/design/wall/MetalConstruction/farm_a001.png" height="26" width="20" />
        <image width="20" height="26" xlink:href="file:///D:/Lunohod/Grfx/design/wall/MetalConstruction/farm_a001.png" id="image3296" x="310" y="186" />
        <image y="186" x="330" id="image3298" xlink:href="file:///D:/Lunohod/Grfx/design/wall/MetalConstruction/farm_a001.png" height="26" width="20" />
        <image y="86" x="348" id="image3308" xlink:href="file:///D:/Lunohod/Grfx/design/wall/MetalConstruction/box_b_012.png" height="40" width="40" />
        <image width="40" height="40" xlink:href="file:///D:/Lunohod/Grfx/design/wall/MetalConstruction/box_b_012.png" id="image3311" x="348" y="182" />
        <image y="84" x="112" id="image3323" xlink:href="file:///D:/Lunohod/Grfx/design/wall/MetalConstruction/box_b_013.png" height="40" width="40" />
        <image width="40" height="40" xlink:href="file:///D:/Lunohod/Grfx/design/wall/MetalConstruction/box_b_013.png" id="image3326" x="112" y="134" />
        <image width="40" height="40" xlink:href="file:///D:/Lunohod/Grfx/design/wall/MetalConstruction/box_b_013.png" id="image3330" x="112" y="182" />
    </g>
    <g inkscape:groupmode="layer" id="layer11" inkscape:label="_traces" sodipodi:insensitive="true" style="opacity:0.5">
        <image y="-339.17749" x="38.326012" id="image3362" xlink:href="file:///D:/Lunohod/Grfx/design/misc/traces_singl.png" height="18" width="25" transform="matrix(0,1,-1,0,0,0)" />
        <image transform="matrix(0,1,-1,0,0,0)" width="25" height="18" xlink:href="file:///D:/Lunohod/Grfx/design/misc/traces_singl.png" id="image3376" x="38.326012" y="-317.4632" />
        <image y="-295.7489" x="38.326012" id="image3378" xlink:href="file:///D:/Lunohod/Grfx/design/misc/traces_singl.png" height="18" width="25" transform="matrix(0,1,-1,0,0,0)" />
        <image transform="matrix(0,1,-1,0,0,0)" width="25" height="18" xlink:href="file:///D:/Lunohod/Grfx/design/misc/traces_singl.png" id="image3380" x="38.326012" y="-274.03461" />
        <image y="-252.32033" x="38.326012" id="image3382" xlink:href="file:///D:/Lunohod/Grfx/design/misc/traces_singl.png" height="18" width="25" transform="matrix(0,1,-1,0,0,0)" />
        <image transform="matrix(0,1,-1,0,0,0)" width="25" height="18" xlink:href="file:///D:/Lunohod/Grfx/design/misc/traces_singl.png" id="image3384" x="38.326012" y="-230.60605" />
        <image y="-208.89177" x="38.326012" id="image3386" xlink:href="file:///D:/Lunohod/Grfx/design/misc/traces_singl.png" height="18" width="25" transform="matrix(0,1,-1,0,0,0)" />
        <image transform="matrix(0,1,-1,0,0,0)" width="25" height="18" xlink:href="file:///D:/Lunohod/Grfx/design/misc/traces_singl.png" id="image3388" x="38.326012" y="-187.17749" />
        <image y="-325.4632" x="258.32602" id="image3394" xlink:href="file:///D:/Lunohod/Grfx/design/misc/traces_singl.png" height="18" width="25" transform="matrix(0,1,-1,0,0,0)" />
        <image transform="matrix(0,1,-1,0,0,0)" width="25" height="18" xlink:href="file:///D:/Lunohod/Grfx/design/misc/traces_singl.png" id="image3397" x="258.32602" y="-303.7489" />
        <image y="-282.03461" x="258.32602" id="image3399" xlink:href="file:///D:/Lunohod/Grfx/design/misc/traces_singl.png" height="18" width="25" transform="matrix(0,1,-1,0,0,0)" />
        <image transform="matrix(0,1,-1,0,0,0)" width="25" height="18" xlink:href="file:///D:/Lunohod/Grfx/design/misc/traces_singl.png" id="image3401" x="258.32602" y="-260.32031" />
        <image y="-238.60605" x="258.32602" id="image3404" xlink:href="file:///D:/Lunohod/Grfx/design/misc/traces_singl.png" height="18" width="25" transform="matrix(0,1,-1,0,0,0)" />
        <image transform="matrix(0,1,-1,0,0,0)" width="25" height="18" xlink:href="file:///D:/Lunohod/Grfx/design/misc/traces_singl.png" id="image3407" x="258.32602" y="-216.89177" />
        <image y="-195.17749" x="258.32602" id="image3409" xlink:href="file:///D:/Lunohod/Grfx/design/misc/traces_singl.png" height="18" width="25" transform="matrix(0,1,-1,0,0,0)" />
    </g>
    <g inkscape:groupmode="layer" id="layer3" inkscape:label="Food" style="display:inline" sodipodi:insensitive="true">
        <image width="31" height="20" xlink:href="file:///D:/Lunohod/Grfx/objects/visible/Food/fishType03.png" id="image3351" x="182.19948" y="114.57294" />
        <image y="174.14058" x="182.68454" id="image3237" xlink:href="file:///D:/Lunohod/Grfx/objects/visible/Food/fishType03.png" height="20" width="31" />
        <image y="138.34181" x="154.46045" id="image3200" xlink:href="file:///D:/Lunohod/Grfx/objects/visible/Food/fishType06.png" height="27" width="22" />
        <image width="28" height="19" xlink:href="file:///D:/Lunohod/Grfx/objects/visible/Food/fishType02.png" id="image3227" x="184.45694" y="63.565025" />
        <image y="62.050087" x="300.34973" id="image3211" xlink:href="file:///D:/Lunohod/Grfx/objects/visible/Food/fishType02.png" height="19" width="28" />
        <image width="28" height="22" xlink:href="file:///D:/Lunohod/Grfx/objects/visible/Food/fishType04.png" id="image3225" x="183.69946" y="223.40598" />
        <image y="224.16344" x="300.34973" id="image3222-1" xlink:href="file:///D:/Lunohod/Grfx/objects/visible/Food/fishType04.png" height="22" width="28" />
    </g>
    <g inkscape:groupmode="layer" id="layer2" inkscape:label="action" style="display:inline" sodipodi:insensitive="true">
        <g id="g3381">
            <image inkscape:label="Duration:5" y="29.975523" x="173.59515" id="image4164" xlink:href="file:///D:/Lunohod/Grfx/objects/unvisible/Moving/left.png" height="4" width="132.7348" />
            <image y="29.975523" x="307.62363" id="image3221" xlink:href="file:///D:/Lunohod/Grfx/objects/visible/EnemyRat1/EnemyRat1_Dimensions.png" height="25" width="28" />
        </g>
        <g id="g3375">
            <image width="28" height="25" xlink:href="file:///D:/Lunohod/Grfx/objects/visible/EnemyRat1/EnemyRat1_Dimensions.png" id="image4296" x="176.39433" y="258.79514" />
            <image inkscape:label="Duration:6" width="126.17552" height="4" xlink:href="file:///D:/Lunohod/Grfx/objects/unvisible/Moving/right.png" id="image3235" x="178.00278" y="258.79514" />
        </g>
    </g>
    <g inkscape:groupmode="layer" id="layer5" inkscape:label="actionTHE" style="display:inline" sodipodi:insensitive="true">
        <image y="0" x="0" id="image3038" xlink:href="file:///D:/Lunohod/Grfx/objects/visible/Tower/transmitter-2.png" height="30" width="30" />
        <image y="35.783718" x="33.574585" id="image3015" xlink:href="file:///D:/Lunohod/Grfx/objects/visible/Hero/heroDimensions.png" height="23" width="33" />
        <image y="236.79263" x="29.768152" id="image3049" xlink:href="file:///D:/Lunohod/Grfx/objects/visible/Exit/refrigerator.png" height="54" width="37" />
    </g>
    <g inkscape:groupmode="layer" id="layer9" inkscape:label="dash" style="opacity:0.29861109;display:none" sodipodi:insensitive="true">
        <image y="0" x="0" id="image3016" xlink:href="file:///D:/Lunohod/Art/dashboard/screenTapAreas_dash_M_btnSize52.png" height="320" width="480" />
    </g>
    <g inkscape:groupmode="layer" id="layer6" inkscape:label="upmask" style="display:inline" sodipodi:insensitive="true">
        <rect style="fill:#ffffff;fill-opacity:1;fill-rule:nonzero;stroke:none" id="rect3011" width="1499.1859" height="380.14673" x="-434.48303" y="-380.14673" />
        <rect style="fill:#ffffff;fill-opacity:1;fill-rule:nonzero;stroke:none" id="rect3013" width="644.82831" height="1098.9973" x="480" y="-256.73999" />
        <rect style="fill:#ffffff;fill-opacity:1;fill-rule:nonzero;stroke:none" id="rect3015" width="1018.1825" height="736.57312" x="-257.47144" y="320" />
        <rect style="fill:#ffffff;fill-opacity:1;fill-rule:nonzero;stroke:none" id="rect3017" width="663.5741" height="1133.1669" x="-663.5741" y="-333.33374" />
    </g>
</svg>
