<?xml version="1.0" encoding="UTF-8" standalone="no"?>
<!-- Created with Inkscape (http://www.inkscape.org/) -->

<svg xmlns:dc="http://purl.org/dc/elements/1.1/" xmlns:cc="http://creativecommons.org/ns#" xmlns:rdf="http://www.w3.org/1999/02/22-rdf-syntax-ns#" xmlns:svg="http://www.w3.org/2000/svg" xmlns="http://www.w3.org/2000/svg" xmlns:xlink="http://www.w3.org/1999/xlink" xmlns:sodipodi="http://sodipodi.sourceforge.net/DTD/sodipodi-0.dtd" xmlns:inkscape="http://www.inkscape.org/namespaces/inkscape" width="480" height="320" id="svg2" version="1.1" inkscape:version="0.48.1 " sodipodi:docname="Lvl_Poezd_v9_Logika_Zatorov_v2.svg" style="display:inline" inkscape:export-filename="D:\Lunohod\Levels\S05LXX_Poezd_v9_Logika_Zatorov_v2\S05LXX_Poezd_v9_Logika_Zatorov_v2.png" inkscape:export-xdpi="90" inkscape:export-ydpi="90">
    <defs id="defs4" />
    <sodipodi:namedview id="base" pagecolor="#ffffff" bordercolor="#666666" borderopacity="1.0" inkscape:pageopacity="0.0" inkscape:pageshadow="2" inkscape:zoom="1.1" inkscape:cx="159.73745" inkscape:cy="182.49468" inkscape:document-units="px" inkscape:current-layer="layer12" showgrid="false" width="480px" inkscape:showpageshadow="false" inkscape:window-width="1280" inkscape:window-height="744" inkscape:window-x="-4" inkscape:window-y="-4" inkscape:window-maximized="1" showguides="false" inkscape:guide-bbox="true">
        <sodipodi:guide orientation="0,1" position="320,256" id="guide3018" />
        <sodipodi:guide orientation="0,1" position="160,64" id="guide3020" />
        <sodipodi:guide orientation="1,0" position="400,192" id="guide3022" />
        <sodipodi:guide orientation="1,0" position="80,128" id="guide3024" />
        <sodipodi:guide orientation="0,1" position="240,160" id="guide3005" />
        <sodipodi:guide orientation="1,0" position="240,160" id="guide3007" />
        <sodipodi:guide orientation="1,0" position="0,160" id="guide3072" />
        <sodipodi:guide orientation="1,0" position="480,160" id="guide3074" />
        <sodipodi:guide orientation="0,1" position="240,320" id="guide3076" />
        <sodipodi:guide orientation="0,1" position="240,0" id="guide3078" />
        <inkscape:grid type="xygrid" id="grid3023" />
    </sodipodi:namedview>
    <metadata id="metadata7">
        <rdf:RDF>
            <cc:Work rdf:about="">
                <dc:format>image/svg+xml</dc:format>
                <dc:type rdf:resource="http://purl.org/dc/dcmitype/StillImage" />
                <dc:title />
            </cc:Work>
        </rdf:RDF>
    </metadata>
    <g inkscape:groupmode="layer" id="layer1" inkscape:label="background" style="display:inline" sodipodi:insensitive="true">
        <image y="0" x="0" id="image3245" xlink:href="file:///D:/Lunohod/Grfx/design/backgrounds/backg_demo.png" height="320" width="480" />
    </g>
    <g inkscape:groupmode="layer" id="layer7" inkscape:label="secondbckg" sodipodi:insensitive="true" />
    <g inkscape:groupmode="layer" id="layer4" inkscape:label="blocks" sodipodi:insensitive="true" />
    <g inkscape:groupmode="layer" id="layer8" inkscape:label="design" style="display:inline" sodipodi:insensitive="true">
        <image y="4" x="0" id="image3016-1" xlink:href="file:///D:/Lunohod/Grfx/design/railway/railwayHor1.png" height="40" width="40" />
        <image y="44" x="360" id="image3027" xlink:href="file:///D:/Lunohod/Grfx/design/railway/railwayTurn90a.png" height="80" width="80" />
        <image y="44" x="0" id="image3038-7" xlink:href="file:///D:/Lunohod/Grfx/design/railway/railwayTurn90b.png" height="80" width="80" />
        <image width="40" height="40" xlink:href="file:///D:/Lunohod/Grfx/design/railway/railwayHor1.png" id="image3041" x="40" y="4" />
        <image y="4" x="80" id="image3043" xlink:href="file:///D:/Lunohod/Grfx/design/railway/railwayHor1.png" height="40" width="40" />
        <image width="40" height="40" xlink:href="file:///D:/Lunohod/Grfx/design/railway/railwayHor1.png" id="image3045" x="120" y="4" />
        <image y="4" x="160" id="image3047" xlink:href="file:///D:/Lunohod/Grfx/design/railway/railwayHor1.png" height="40" width="40" />
        <image width="40" height="40" xlink:href="file:///D:/Lunohod/Grfx/design/railway/railwayHor1.png" id="image3050" x="200" y="4" />
        <image width="40" height="40" xlink:href="file:///D:/Lunohod/Grfx/design/railway/railwayHor1.png" id="image3052" x="240" y="4" />
        <image y="4" x="280" id="image3054" xlink:href="file:///D:/Lunohod/Grfx/design/railway/railwayHor1.png" height="40" width="40" />
        <image width="40" height="40" xlink:href="file:///D:/Lunohod/Grfx/design/railway/railwayHor1.png" id="image3056" x="320" y="4" />
        <image y="4" x="360" id="image3058" xlink:href="file:///D:/Lunohod/Grfx/design/railway/railwayHor1.png" height="40" width="40" />
        <image width="80" height="80" xlink:href="file:///D:/Lunohod/Grfx/design/railway/railwayTurn90b.png" id="image3064" x="4" y="-480" transform="matrix(0,1,-1,0,0,0)" />
        <image width="40" height="40" xlink:href="file:///D:/Lunohod/Grfx/design/railway/railwayHor1.png" id="image3066" x="84" y="-480" transform="matrix(0,1,-1,0,0,0)" />
        <image transform="matrix(0,1,-1,0,0,0)" y="-480" x="124" id="image3068" xlink:href="file:///D:/Lunohod/Grfx/design/railway/railwayHor1.png" height="40" width="40" />
        <image width="40" height="40" xlink:href="file:///D:/Lunohod/Grfx/design/railway/railwayHor1.png" id="image3070" x="164" y="-480" transform="matrix(0,1,-1,0,0,0)" />
        <image transform="matrix(0,1,-1,0,0,0)" y="-480" x="204" id="image3072" xlink:href="file:///D:/Lunohod/Grfx/design/railway/railwayHor1.png" height="40" width="40" />
        <image width="80" height="80" xlink:href="file:///D:/Lunohod/Grfx/design/railway/railwayTurn90a.png" id="image3078" x="244" y="-480" transform="matrix(0,1,-1,0,0,0)" />
        <image width="40" height="40" xlink:href="file:///D:/Lunohod/Grfx/design/railway/railwayHor1.png" id="image3084" x="80" y="284" />
        <image y="284" x="120" id="image3086" xlink:href="file:///D:/Lunohod/Grfx/design/railway/railwayHor1.png" height="40" width="40" />
        <image width="40" height="40" xlink:href="file:///D:/Lunohod/Grfx/design/railway/railwayHor1.png" id="image3088" x="160" y="284" />
        <image y="284" x="200" id="image3090" xlink:href="file:///D:/Lunohod/Grfx/design/railway/railwayHor1.png" height="40" width="40" />
        <image y="284" x="240" id="image3092" xlink:href="file:///D:/Lunohod/Grfx/design/railway/railwayHor1.png" height="40" width="40" />
        <image width="40" height="40" xlink:href="file:///D:/Lunohod/Grfx/design/railway/railwayHor1.png" id="image3094" x="280" y="284" />
        <image y="284" x="320" id="image3096" xlink:href="file:///D:/Lunohod/Grfx/design/railway/railwayHor1.png" height="40" width="40" />
        <image width="40" height="40" xlink:href="file:///D:/Lunohod/Grfx/design/railway/railwayHor1.png" id="image3098" x="360" y="284" />
        <image width="80" height="80" xlink:href="file:///D:/Lunohod/Grfx/design/railway/railwayTurn90a.png" id="image3100" x="-80" y="-324" transform="scale(-1,-1)" />
        <image width="40" height="40" xlink:href="file:///D:/Lunohod/Grfx/design/railway/railwayHor1.png" id="image3104" x="124" y="-40" transform="matrix(0,1,-1,0,0,0)" />
        <image transform="matrix(0,1,-1,0,0,0)" y="-40" x="164" id="image3106" xlink:href="file:///D:/Lunohod/Grfx/design/railway/railwayHor1.png" height="40" width="40" />
        <image width="40" height="40" xlink:href="file:///D:/Lunohod/Grfx/design/railway/railwayHor1.png" id="image3108" x="204" y="-40" transform="matrix(0,1,-1,0,0,0)" />
        <image y="44" x="80" id="image3110" xlink:href="file:///D:/Lunohod/Grfx/design/railway/railwayHor1.png" height="40" width="40" />
        <image width="40" height="40" xlink:href="file:///D:/Lunohod/Grfx/design/railway/railwayHor1.png" id="image3112" x="120" y="44" />
        <image y="44" x="160" id="image3114" xlink:href="file:///D:/Lunohod/Grfx/design/railway/railwayHor1.png" height="40" width="40" />
        <image width="40" height="40" xlink:href="file:///D:/Lunohod/Grfx/design/railway/railwayHor1.png" id="image3116" x="200" y="44" />
        <image width="40" height="40" xlink:href="file:///D:/Lunohod/Grfx/design/railway/railwayHor1.png" id="image3118" x="240" y="44" />
        <image y="44" x="280" id="image3120" xlink:href="file:///D:/Lunohod/Grfx/design/railway/railwayHor1.png" height="40" width="40" />
        <image width="40" height="40" xlink:href="file:///D:/Lunohod/Grfx/design/railway/railwayHor1.png" id="image3122" x="320" y="44" />
        <image width="40" height="40" xlink:href="file:///D:/Lunohod/Grfx/design/railway/railwayHor1.png" id="image3126" x="124" y="-440" transform="matrix(0,1,-1,0,0,0)" />
        <image transform="matrix(0,1,-1,0,0,0)" y="-440" x="164" id="image3128" xlink:href="file:///D:/Lunohod/Grfx/design/railway/railwayHor1.png" height="40" width="40" />
        <image transform="matrix(0,1,-1,0,0,0)" y="-440" x="204" id="image3132" xlink:href="file:///D:/Lunohod/Grfx/design/railway/railwayTurn90a.png" height="80" width="80" />
        <image y="244" x="120" id="image3134" xlink:href="file:///D:/Lunohod/Grfx/design/railway/railwayHor1.png" height="40" width="40" />
        <image width="40" height="40" xlink:href="file:///D:/Lunohod/Grfx/design/railway/railwayHor1.png" id="image3136" x="160" y="244" />
        <image y="244" x="200" id="image3138" xlink:href="file:///D:/Lunohod/Grfx/design/railway/railwayHor1.png" height="40" width="40" />
        <image width="40" height="40" xlink:href="file:///D:/Lunohod/Grfx/design/railway/railwayHor1.png" id="image3140" x="240" y="244" />
        <image width="40" height="40" xlink:href="file:///D:/Lunohod/Grfx/design/railway/railwayHor1.png" id="image3142" x="280" y="244" />
        <image y="244" x="320" id="image3144" xlink:href="file:///D:/Lunohod/Grfx/design/railway/railwayHor1.png" height="40" width="40" />
        <image transform="scale(-1,-1)" y="-284" x="-120" id="image3148" xlink:href="file:///D:/Lunohod/Grfx/design/railway/railwayTurn90a.png" height="80" width="80" />
        <image width="80" height="80" xlink:href="file:///D:/Lunohod/Grfx/design/railway/railwayTurn90b.png" id="image3154" x="40" y="84" />
        <image width="40" height="40" xlink:href="file:///D:/Lunohod/Grfx/design/railway/railwayHor1.png" id="image3178" x="164" y="-80" transform="matrix(0,1,-1,0,0,0)" />
        <image width="80" height="80" xlink:href="file:///D:/Lunohod/Grfx/design/railway/railwayTurn90a.png" id="image3180" x="180" y="84" />
        <image y="84" x="120" id="image3233" xlink:href="file:///D:/Lunohod/Grfx/design/railway/railwayHor1.png" height="40" width="40" />
        <image width="40" height="40" xlink:href="file:///D:/Lunohod/Grfx/design/railway/railwayHor1.png" id="image3235" x="160" y="84" />
    </g>
    <g inkscape:groupmode="layer" id="layer2" inkscape:label="boxes" style="display:inline" sodipodi:insensitive="true">
        <image width="30" height="30" xlink:href="file:///D:/Lunohod/Grfx/objects/visible/Wall/WoodenBox/box_old_1.png" id="image3182" x="368" y="47" />
        <image width="30" height="30" xlink:href="file:///D:/Lunohod/Grfx/objects/visible/Wall/WoodenBox/box_old_1.png" id="image3184" x="352" y="250" />
        <image width="30" height="30" xlink:href="file:///D:/Lunohod/Grfx/objects/visible/Wall/WoodenBox/box_old_1.png" id="image3186" x="44" y="213" />
        <image y="92" x="90" id="image3164" xlink:href="file:///D:/Lunohod/Grfx/objects/visible/Wall/WoodenBox/box_old_1.png" height="30" width="30" />
    </g>
    <g inkscape:groupmode="layer" id="layer3" inkscape:label="enemies" sodipodi:insensitive="true" style="display:inline">
        <image y="53.5" x="338" id="image3197" xlink:href="file:///D:/Lunohod/Grfx/objects/visible/EnemyRat2/EnemyRat2_Dimensions.png" height="23" width="22" />
        <image y="248.5" x="386" id="image3208" xlink:href="file:///D:/Lunohod/Grfx/objects/visible/EnemyRat3/EnemyRat3_Dimensions.png" height="25" width="24" />
        <image y="247.5" x="56" id="image3219" xlink:href="file:///D:/Lunohod/Grfx/objects/visible/EnemyRat4/EnemyRat4_Dimensions.png" height="21" width="18" />
        <image y="93.5" x="59" id="image3230" xlink:href="file:///D:/Lunohod/Grfx/objects/visible/EnemyRat1/EnemyRat1_Dimensions.png" height="25" width="28" />
    </g>
    <g inkscape:groupmode="layer" id="layer11" inkscape:label="food" sodipodi:insensitive="true">
        <image width="26" height="17" xlink:href="file:///D:/Lunohod/Grfx/objects/visible/Food/fish_5_me.png" id="image3338" x="204.3734" y="110.89895" />
        <image width="26" height="17" xlink:href="file:///D:/Lunohod/Grfx/objects/visible/Food/fish_5_me.png" id="image3340" x="217.13524" y="98.126602" />
        <image y="107.14238" x="229.66415" id="image3335" xlink:href="file:///D:/Lunohod/Grfx/objects/visible/Food/fish_5_me.png" height="17" width="26" />
        <image y="148.46468" x="445.80469" id="image3357" xlink:href="file:///D:/Lunohod/Grfx/objects/visible/Food/fish_6_me.png" height="17" width="28" />
        <image width="28" height="17" xlink:href="file:///D:/Lunohod/Grfx/objects/visible/Food/fish_6_me.png" id="image3365" x="213.64838" y="258.90796" />
        <image width="28" height="17" xlink:href="file:///D:/Lunohod/Grfx/objects/visible/Food/fish_6_me.png" id="image3353" x="212.89708" y="15.481958" />
    </g>
    <g inkscape:groupmode="layer" id="layer10" inkscape:label="way" style="display:inline" sodipodi:insensitive="true">
        <image y="13" x="26" id="image3279" xlink:href="file:///D:/Lunohod/Grfx/objects/unvisible/Moving/right.png" height="4" width="417.88693" />
        <image y="13" x="443.88693" id="image3257" xlink:href="file:///D:/Lunohod/Grfx/objects/unvisible/Moving/down.png" height="278.54654" width="4" />
        <image y="291.54654" x="4.7810941" id="image3268" xlink:href="file:///D:/Lunohod/Grfx/objects/unvisible/Moving/left.png" height="4" width="439.10583" />
        <image y="53.229485" x="4.7810941" id="image3290" xlink:href="file:///D:/Lunohod/Grfx/objects/unvisible/Moving/up.png" height="238.31706" width="4" />
        <image width="400.28549" height="4" xlink:href="file:///D:/Lunohod/Grfx/objects/unvisible/Moving/right.png" id="image3295" x="4.7810941" y="53.229485" />
        <image width="4" height="198.15585" xlink:href="file:///D:/Lunohod/Grfx/objects/unvisible/Moving/down.png" id="image3297" x="404.81265" y="53.229485" />
        <image width="360.21777" height="4" xlink:href="file:///D:/Lunohod/Grfx/objects/unvisible/Moving/left.png" id="image3299" x="44.594872" y="251.38535" />
        <image width="4" height="158.67769" xlink:href="file:///D:/Lunohod/Grfx/objects/unvisible/Moving/up.png" id="image3301" x="44.594872" y="92.707649" />
        <image y="92.707649" x="44.594872" id="image3303" xlink:href="file:///D:/Lunohod/Grfx/objects/unvisible/Moving/right.png" height="4" width="178.64763" />
        <image y="92.707649" x="223.24249" id="image3305" xlink:href="file:///D:/Lunohod/Grfx/objects/unvisible/Moving/down.png" height="59.162617" width="4" />
    </g>
    <g inkscape:groupmode="layer" id="layer5" inkscape:label="actionTHE" style="display:inline" sodipodi:insensitive="true">
        <image y="-20" x="0" id="image3038" xlink:href="file:///D:/Lunohod/Grfx/objects/visible/Tower/transmitter-2.png" height="30" width="30" />
        <image y="13" x="26" id="image3015" xlink:href="file:///D:/Lunohod/Grfx/objects/visible/Hero/heroDimensions.png" height="23" width="33" />
        <image y="129" x="221.80681" id="image3049" xlink:href="file:///D:/Lunohod/Grfx/objects/visible/Exit/refrigerator.png" height="54" width="37" />
    </g>
    <g inkscape:groupmode="layer" id="layer12" inkscape:label="Semafor">
        <image y="-9" x="68" id="image3097" xlink:href="file:///D:/Lunohod/Grfx/objects/visible/Semafor/semafor_green.png" height="60" width="38" />
    </g>
    <g inkscape:groupmode="layer" id="layer9" inkscape:label="dash" style="opacity:0.29861109;display:none" sodipodi:insensitive="true">
        <image y="0" x="0" id="image3016" xlink:href="file:///D:/Lunohod/Art/dashboard/screenTapAreas_dash_M_btnSize52.png" height="320" width="480" />
    </g>
    <g inkscape:groupmode="layer" id="layer6" inkscape:label="upmask" sodipodi:insensitive="true" style="display:inline">
        <rect style="fill:#ffffff;fill-opacity:1;fill-rule:nonzero;stroke:none" id="rect3011" width="1499.1859" height="380.14673" x="-434.48303" y="-380.14673" />
        <rect style="fill:#ffffff;fill-opacity:1;fill-rule:nonzero;stroke:none" id="rect3013" width="644.82831" height="1098.9973" x="480" y="-256.73999" />
        <rect style="fill:#ffffff;fill-opacity:1;fill-rule:nonzero;stroke:none" id="rect3015" width="1018.1825" height="736.57312" x="-257.47144" y="320" />
        <rect style="fill:#ffffff;fill-opacity:1;fill-rule:nonzero;stroke:none" id="rect3017" width="663.5741" height="1133.1669" x="-663.5741" y="-333.33374" />
    </g>
</svg>
