<?xml version="1.0" encoding="UTF-8" standalone="no"?>
<!-- Created with Inkscape (http://www.inkscape.org/) -->

<svg xmlns:dc="http://purl.org/dc/elements/1.1/" xmlns:cc="http://creativecommons.org/ns#" xmlns:rdf="http://www.w3.org/1999/02/22-rdf-syntax-ns#" xmlns:svg="http://www.w3.org/2000/svg" xmlns="http://www.w3.org/2000/svg" xmlns:xlink="http://www.w3.org/1999/xlink" xmlns:sodipodi="http://sodipodi.sourceforge.net/DTD/sodipodi-0.dtd" xmlns:inkscape="http://www.inkscape.org/namespaces/inkscape" width="480" height="320" id="svg2" version="1.1" inkscape:version="0.48.1 " sodipodi:docname="Lvl_Poezd_DveGory.svg" style="display:inline" inkscape:export-filename="D:\Lunohod\Levels\Lvl_Poezd_DveGory\Lvl_Poezd_DveGory.png" inkscape:export-xdpi="90" inkscape:export-ydpi="90">
    <defs id="defs4" />
    <sodipodi:namedview id="base" pagecolor="#ffffff" bordercolor="#666666" borderopacity="1.0" inkscape:pageopacity="0.0" inkscape:pageshadow="2" inkscape:zoom="1.3094591" inkscape:cx="255.74785" inkscape:cy="139.81931" inkscape:document-units="px" inkscape:current-layer="layer2" showgrid="false" width="480px" inkscape:showpageshadow="false" inkscape:window-width="1280" inkscape:window-height="744" inkscape:window-x="-4" inkscape:window-y="-4" inkscape:window-maximized="1" showguides="false" inkscape:guide-bbox="true">
        <sodipodi:guide orientation="0,1" position="320,256" id="guide3018" />
        <sodipodi:guide orientation="0,1" position="160,64" id="guide3020" />
        <sodipodi:guide orientation="1,0" position="400,240" id="guide3022" />
        <sodipodi:guide orientation="1,0" position="80,128" id="guide3024" />
        <sodipodi:guide orientation="0,1" position="240,160" id="guide3005" />
        <sodipodi:guide orientation="1,0" position="240,160" id="guide3007" />
        <sodipodi:guide orientation="1,0" position="0,160" id="guide3072" />
        <sodipodi:guide orientation="1,0" position="480,160" id="guide3074" />
        <sodipodi:guide orientation="0,1" position="240,320" id="guide3076" />
        <sodipodi:guide orientation="0,1" position="240,0" id="guide3078" />
        <inkscape:grid type="xygrid" id="grid3023" />
    </sodipodi:namedview>
    <metadata id="metadata7">
        <rdf:RDF>
            <cc:Work rdf:about="">
                <dc:format>image/svg+xml</dc:format>
                <dc:type rdf:resource="http://purl.org/dc/dcmitype/StillImage" />
                <dc:title></dc:title>
            </cc:Work>
        </rdf:RDF>
    </metadata>
    <g inkscape:groupmode="layer" id="layer1" inkscape:label="background" style="display:inline" sodipodi:insensitive="true">
        <image y="0" x="0" id="image3172" xlink:href="file:///D:/Lunohod/Grfx/design/backgrounds/backg_demo.png" height="320" width="480" />
    </g>
    <g inkscape:groupmode="layer" id="layer7" inkscape:label="secondbckg" sodipodi:insensitive="true" />
    <g inkscape:groupmode="layer" id="layer4" inkscape:label="blocks" sodipodi:insensitive="true" />
    <g inkscape:groupmode="layer" id="layer8" inkscape:label="design" style="display:inline" sodipodi:insensitive="true">
        <image y="-440" x="160" id="image3016-17" xlink:href="file:///D:/Lunohod/Grfx/design/railway/railwayHor1.png" height="40" width="40" transform="matrix(0,1,-1,0,0,0)" />
        <image transform="matrix(0,1,-1,0,0,0)" width="40" height="40" xlink:href="file:///D:/Lunohod/Grfx/design/railway/railwayHor1.png" id="image3033" x="200" y="-440" />
        <image y="-440" x="120" id="image3039" xlink:href="file:///D:/Lunohod/Grfx/design/railway/railwayHor1.png" height="40" width="40" transform="matrix(0,1,-1,0,0,0)" />
        <image transform="matrix(0,1,-1,0,0,0)" width="40" height="40" xlink:href="file:///D:/Lunohod/Grfx/design/railway/railwayHor1.png" id="image3041" x="80" y="-440" />
        <image y="0" x="360" id="image3053" xlink:href="file:///D:/Lunohod/Grfx/design/railway/railwayTurn90a.png" height="80" width="80" />
        <image y="0" x="280" id="image3064" xlink:href="file:///D:/Lunohod/Grfx/design/railway/railwayTurn90b.png" height="80" width="80" />
        <image transform="matrix(0,1,-1,0,0,0)" width="40" height="40" xlink:href="file:///D:/Lunohod/Grfx/design/railway/railwayHor1.png" id="image3067" x="160" y="-320" />
        <image transform="matrix(0,1,-1,0,0,0)" width="40" height="40" xlink:href="file:///D:/Lunohod/Grfx/design/railway/railwayHor1.png" id="image3075" x="120" y="-320" />
        <image y="-320" x="80" id="image3077" xlink:href="file:///D:/Lunohod/Grfx/design/railway/railwayHor1.png" height="40" width="40" transform="matrix(0,1,-1,0,0,0)" />
        <image y="-320" x="200" id="image3098" xlink:href="file:///D:/Lunohod/Grfx/design/railway/railwayTurn90a.png" height="80" width="80" transform="matrix(0,1,-1,0,0,0)" />
        <image transform="scale(-1,-1)" width="80" height="80" xlink:href="file:///D:/Lunohod/Grfx/design/railway/railwayTurn90a.png" id="image3101" x="-240" y="-280" />
        <image y="-200" x="160" id="image3103" xlink:href="file:///D:/Lunohod/Grfx/design/railway/railwayHor1.png" height="40" width="40" transform="matrix(0,1,-1,0,0,0)" />
        <image y="-200" x="120" id="image3107" xlink:href="file:///D:/Lunohod/Grfx/design/railway/railwayHor1.png" height="40" width="40" transform="matrix(0,1,-1,0,0,0)" />
        <image transform="matrix(0,1,-1,0,0,0)" width="40" height="40" xlink:href="file:///D:/Lunohod/Grfx/design/railway/railwayHor1.png" id="image3109" x="80" y="-200" />
        <image width="80" height="80" xlink:href="file:///D:/Lunohod/Grfx/design/railway/railwayTurn90a.png" id="image3111" x="120" y="0" />
        <image width="80" height="80" xlink:href="file:///D:/Lunohod/Grfx/design/railway/railwayTurn90b.png" id="image3113" x="40" y="0" />
        <image y="-80" x="160" id="image3115" xlink:href="file:///D:/Lunohod/Grfx/design/railway/railwayHor1.png" height="40" width="40" transform="matrix(0,1,-1,0,0,0)" />
        <image transform="matrix(0,1,-1,0,0,0)" width="40" height="40" xlink:href="file:///D:/Lunohod/Grfx/design/railway/railwayHor1.png" id="image3117" x="200" y="-80" />
        <image y="-80" x="120" id="image3119" xlink:href="file:///D:/Lunohod/Grfx/design/railway/railwayHor1.png" height="40" width="40" transform="matrix(0,1,-1,0,0,0)" />
        <image transform="matrix(0,1,-1,0,0,0)" width="40" height="40" xlink:href="file:///D:/Lunohod/Grfx/design/railway/railwayHor1.png" id="image3121" x="80" y="-80" />
        <image y="-320" x="-120" id="image3127" xlink:href="file:///D:/Lunohod/Grfx/design/railway/railwayTurn90a.png" height="80" width="80" transform="scale(-1,-1)" />
        <image transform="matrix(0,1,-1,0,0,0)" width="80" height="80" xlink:href="file:///D:/Lunohod/Grfx/design/railway/railwayTurn90a.png" id="image3129" x="240" y="-440" />
        <image y="280" x="120" id="image3139" xlink:href="file:///D:/Lunohod/Grfx/design/railway/railwayHor1.png" height="40" width="40" />
        <image width="40" height="40" xlink:href="file:///D:/Lunohod/Grfx/design/railway/railwayHor1.png" id="image3142" x="160" y="280" />
        <image y="280" x="200" id="image3144" xlink:href="file:///D:/Lunohod/Grfx/design/railway/railwayHor1.png" height="40" width="40" />
        <image width="40" height="40" xlink:href="file:///D:/Lunohod/Grfx/design/railway/railwayHor1.png" id="image3146" x="240" y="280" />
        <image y="280" x="280" id="image3148" xlink:href="file:///D:/Lunohod/Grfx/design/railway/railwayHor1.png" height="40" width="40" />
        <image width="40" height="40" xlink:href="file:///D:/Lunohod/Grfx/design/railway/railwayHor1.png" id="image3150" x="320" y="280" />
    </g>
    <g inkscape:groupmode="layer" id="layer2" inkscape:label="Action" style="display:inline" sodipodi:insensitive="true">
        <image width="24" height="25" xlink:href="file:///D:/Lunohod/Grfx/objects/visible/EnemyRat3/EnemyRat3_Dimensions.png" id="image3239" x="155.24463" y="240.29666" />
        <image y="241.82402" x="294.23331" id="image3236" xlink:href="file:///D:/Lunohod/Grfx/objects/visible/EnemyRat3/EnemyRat3_Dimensions.png" height="25" width="24" />
        <image y="293.93549" x="280.01453" id="image3283" xlink:href="file:///D:/Lunohod/Grfx/objects/visible/Food/fish_6_me.png" height="17" width="28" />
        <image y="11.376069" x="154.77199" id="image3285" xlink:href="file:///D:/Lunohod/Grfx/objects/visible/Food/fish_6_me.png" height="17" width="28" />
        <image y="38.868336" x="178.44588" id="image3287" xlink:href="file:///D:/Lunohod/Grfx/objects/visible/Food/fish_6_me.png" height="17" width="28" />
        <image y="56.432846" x="156.29932" id="image3289" xlink:href="file:///D:/Lunohod/Grfx/objects/visible/Food/fish_6_me.png" height="17" width="28" />
        <image y="92.325523" x="177.68219" id="image3291" xlink:href="file:///D:/Lunohod/Grfx/objects/visible/Food/fish_6_me.png" height="17" width="28" />
        <image y="110.6537" x="157.82668" id="image3293" xlink:href="file:///D:/Lunohod/Grfx/objects/visible/Food/fish_6_me.png" height="17" width="28" />
        <image y="135.85495" x="176.91852" id="image3295" xlink:href="file:///D:/Lunohod/Grfx/objects/visible/Food/fish_6_me.png" height="17" width="28" />
        <image y="163.34721" x="157.06299" id="image3297" xlink:href="file:///D:/Lunohod/Grfx/objects/visible/Food/fish_6_me.png" height="17" width="28" />
        <image width="28" height="17" xlink:href="file:///D:/Lunohod/Grfx/objects/visible/Food/fish_6_me.png" id="image3314" x="176.91852" y="187.02112" />
        <image width="28" height="17" xlink:href="file:///D:/Lunohod/Grfx/objects/visible/Food/fish_6_me.png" id="image3316" x="296.05167" y="119.81779" />
        <image width="28" height="17" xlink:href="file:///D:/Lunohod/Grfx/objects/visible/Food/fish_6_me.png" id="image3318" x="280.01453" y="92.325531" />
        <image width="28" height="17" xlink:href="file:///D:/Lunohod/Grfx/objects/visible/Food/fish_6_me.png" id="image3320" x="299.10638" y="57.196518" />
        <image width="28" height="17" xlink:href="file:///D:/Lunohod/Grfx/objects/visible/Food/fish_6_me.png" id="image3322" x="286.1239" y="17.485466" />
        <image width="28" height="17" xlink:href="file:///D:/Lunohod/Grfx/objects/visible/Food/fish_6_me.png" id="image3324" x="331.18069" y="21.303837" />
        <image width="28" height="17" xlink:href="file:///D:/Lunohod/Grfx/objects/visible/Food/fish_6_me.png" id="image3326" x="364.01868" y="1.4483093" />
        <image width="28" height="17" xlink:href="file:///D:/Lunohod/Grfx/objects/visible/Food/fish_6_me.png" id="image3328" x="386.92889" y="26.649555" />
        <image y="18.24914" x="419.0032" id="image3299" xlink:href="file:///D:/Lunohod/Grfx/objects/visible/Food/fish_6_me.png" height="17" width="28" />
        <image y="293.17181" x="166.22708" id="image3249" xlink:href="file:///D:/Lunohod/Grfx/objects/visible/Food/fish_6_me.png" height="17" width="28" />
        <image y="249.16975" x="3.218785" id="image3273" xlink:href="file:///D:/Lunohod/Grfx/objects/visible/EnemyRat4/EnemyRat4_Dimensions.png" height="21" width="18" />
        <image y="247.64238" x="101.73274" id="image3275" xlink:href="file:///D:/Lunohod/Grfx/objects/visible/EnemyRat4/EnemyRat4_Dimensions.png" height="21" width="18" />
        <image y="184.25745" x="3.218785" id="image3277" xlink:href="file:///D:/Lunohod/Grfx/objects/visible/EnemyRat4/EnemyRat4_Dimensions.png" height="21" width="18" />
        <image y="122.39984" x="0.16408831" id="image3279" xlink:href="file:///D:/Lunohod/Grfx/objects/visible/EnemyRat4/EnemyRat4_Dimensions.png" height="21" width="18" />
        <image y="124.69086" x="107.07846" id="image3281" xlink:href="file:///D:/Lunohod/Grfx/objects/visible/EnemyRat4/EnemyRat4_Dimensions.png" height="21" width="18" />
        <image width="18" height="21" xlink:href="file:///D:/Lunohod/Grfx/objects/visible/EnemyRat4/EnemyRat4_Dimensions.png" id="image3267" x="103.26009" y="184.25743" />
        <image width="18" height="21" xlink:href="file:///D:/Lunohod/Grfx/objects/visible/EnemyRat4/EnemyRat4_Dimensions.png" id="image3269" x="3.218785" y="59.77858" />
        <image y="55.960194" x="104.78745" id="image3330" xlink:href="file:///D:/Lunohod/Grfx/objects/visible/EnemyRat4/EnemyRat4_Dimensions.png" height="21" width="18" />
        <image y="74.288376" x="356.03622" id="image3332" xlink:href="file:///D:/Lunohod/Grfx/objects/visible/EnemyRat4/EnemyRat4_Dimensions.png" height="21" width="18" />
        <image y="73.524696" x="458.36859" id="image3334" xlink:href="file:///D:/Lunohod/Grfx/objects/visible/EnemyRat4/EnemyRat4_Dimensions.png" height="21" width="18" />
        <image y="142.25537" x="355.27255" id="image3336" xlink:href="file:///D:/Lunohod/Grfx/objects/visible/EnemyRat4/EnemyRat4_Dimensions.png" height="21" width="18" />
        <image width="18" height="21" xlink:href="file:///D:/Lunohod/Grfx/objects/visible/EnemyRat4/EnemyRat4_Dimensions.png" id="image3271" x="459.8959" y="149.89212" />
        <image width="22" height="23" xlink:href="file:///D:/Lunohod/Grfx/objects/visible/EnemyRat2/EnemyRat2_Dimensions.png" id="image3312" x="203.59244" y="208.45869" />
        <image y="209.22237" x="249.41289" id="image3309" xlink:href="file:///D:/Lunohod/Grfx/objects/visible/EnemyRat2/EnemyRat2_Dimensions.png" height="23" width="22" />
        <image width="26" height="17" xlink:href="file:///D:/Lunohod/Grfx/objects/visible/Food/fish_5_me.png" id="image3349" x="396.32932" y="196.94888" />
        <image y="205.3493" x="408.5481" id="image3346" xlink:href="file:///D:/Lunohod/Grfx/objects/visible/Food/fish_5_me.png" height="17" width="26" />
        <image width="26" height="17" xlink:href="file:///D:/Lunohod/Grfx/objects/visible/Food/fish_5_me.png" id="image3351" x="417.71219" y="197.71255" />
    </g>
    <g inkscape:groupmode="layer" id="layer10" inkscape:label="Way" sodipodi:insensitive="true" style="display:inline">
        <image y="288" x="44" id="image3206" xlink:href="file:///D:/Lunohod/Grfx/objects/unvisible/Moving/left.png" height="4" width="360" />
        <image y="8.0000124" x="44" id="image3184" xlink:href="file:///D:/Lunohod/Grfx/objects/unvisible/Moving/up.png" height="280" width="4" />
        <image y="8.0000124" x="44" id="image3217" xlink:href="file:///D:/Lunohod/Grfx/objects/unvisible/Moving/right.png" height="4" width="120" />
        <image y="8.0000124" x="164" id="image3195" xlink:href="file:///D:/Lunohod/Grfx/objects/unvisible/Moving/down.png" height="240" width="4" />
        <image width="120" height="4" xlink:href="file:///D:/Lunohod/Grfx/objects/unvisible/Moving/right.png" id="image3220" x="164" y="248.00002" />
        <image width="4" height="240" xlink:href="file:///D:/Lunohod/Grfx/objects/unvisible/Moving/up.png" id="image3222" x="284" y="8.0000124" />
        <image width="120" height="4" xlink:href="file:///D:/Lunohod/Grfx/objects/unvisible/Moving/right.png" id="image3224" x="284" y="8.0000124" />
        <image width="4" height="280" xlink:href="file:///D:/Lunohod/Grfx/objects/unvisible/Moving/down.png" id="image3226" x="404" y="8.2664614" />
    </g>
    <g inkscape:groupmode="layer" id="layer5" inkscape:label="actionTHE" style="display:inline" sodipodi:insensitive="true">
        <image y="0" x="0" id="image3038" xlink:href="file:///D:/Lunohod/Grfx/objects/visible/Tower/transmitter_2_off.png" height="30" width="30" />
        <image y="225.13524" x="401.12897" id="image3049" xlink:href="file:///D:/Lunohod/Grfx/objects/visible/Exit/refrigerator.png" height="54" width="37" />
        <image y="288" x="404" id="image3016-1" xlink:href="file:///D:/Lunohod/Grfx/objects/visible/Hero/heroDimensions.png" height="24" width="33" />
    </g>
    <g inkscape:groupmode="layer" id="layer3" inkscape:label="Semafor" sodipodi:insensitive="true">
        <image y="264" x="347.14984" id="image3161" xlink:href="file:///D:/Lunohod/Grfx/objects/visible/Semafor/semafor_green.png" height="60" width="38" />
    </g>
    <g inkscape:groupmode="layer" id="layer9" inkscape:label="dash" style="opacity:0.29861109;display:none" sodipodi:insensitive="true">
        <image y="0" x="0" id="image3016" xlink:href="file:///D:/Lunohod/Art/dashboard/screenTapAreas_dash_M_btnSize52.png" height="320" width="480" />
    </g>
    <g inkscape:groupmode="layer" id="layer6" inkscape:label="upmask" sodipodi:insensitive="true" style="display:none">
        <rect style="fill:#ffffff;fill-opacity:1;fill-rule:nonzero;stroke:none" id="rect3011" width="1499.1859" height="380.14673" x="-434.48303" y="-380.14673" />
        <rect style="fill:#ffffff;fill-opacity:1;fill-rule:nonzero;stroke:none" id="rect3013" width="644.82831" height="1098.9973" x="480" y="-256.73999" />
        <rect style="fill:#ffffff;fill-opacity:1;fill-rule:nonzero;stroke:none" id="rect3015" width="1018.1825" height="736.57312" x="-257.47144" y="320" />
        <rect style="fill:#ffffff;fill-opacity:1;fill-rule:nonzero;stroke:none" id="rect3017" width="663.5741" height="1133.1669" x="-663.5741" y="-333.33374" />
    </g>
</svg>
