<?xml version="1.0" encoding="UTF-8" standalone="no"?>
<!-- Created with Inkscape (http://www.inkscape.org/) -->

<svg xmlns:dc="http://purl.org/dc/elements/1.1/" xmlns:cc="http://creativecommons.org/ns#" xmlns:rdf="http://www.w3.org/1999/02/22-rdf-syntax-ns#" xmlns:svg="http://www.w3.org/2000/svg" xmlns="http://www.w3.org/2000/svg" xmlns:xlink="http://www.w3.org/1999/xlink" xmlns:sodipodi="http://sodipodi.sourceforge.net/DTD/sodipodi-0.dtd" xmlns:inkscape="http://www.inkscape.org/namespaces/inkscape" width="480" height="320" id="svg2" version="1.1" inkscape:version="0.48.1 " sodipodi:docname="Lvl_Poezd_DveGory.svg" style="display:inline" inkscape:export-filename="D:\Lunohod\Levels\Lvl_Poezd_DveGory\Lvl_Poezd_DveGory.png" inkscape:export-xdpi="90" inkscape:export-ydpi="90">
    <defs id="defs4" />
    <sodipodi:namedview id="base" pagecolor="#ffffff" bordercolor="#666666" borderopacity="1.0" inkscape:pageopacity="0.0" inkscape:pageshadow="2" inkscape:zoom="1.1" inkscape:cx="250.63399" inkscape:cy="121.78836" inkscape:document-units="px" inkscape:current-layer="layer2" showgrid="false" width="480px" inkscape:showpageshadow="false" inkscape:window-width="1280" inkscape:window-height="744" inkscape:window-x="-4" inkscape:window-y="-4" inkscape:window-maximized="1" showguides="false" inkscape:guide-bbox="true">
        <sodipodi:guide orientation="0,1" position="320,256" id="guide3018" />
        <sodipodi:guide orientation="0,1" position="160,64" id="guide3020" />
        <sodipodi:guide orientation="1,0" position="400,240" id="guide3022" />
        <sodipodi:guide orientation="1,0" position="80,128" id="guide3024" />
        <sodipodi:guide orientation="0,1" position="240,160" id="guide3005" />
        <sodipodi:guide orientation="1,0" position="240,160" id="guide3007" />
        <sodipodi:guide orientation="1,0" position="0,160" id="guide3072" />
        <sodipodi:guide orientation="1,0" position="480,160" id="guide3074" />
        <sodipodi:guide orientation="0,1" position="240,320" id="guide3076" />
        <sodipodi:guide orientation="0,1" position="240,0" id="guide3078" />
        <inkscape:grid type="xygrid" id="grid3023" />
    </sodipodi:namedview>
    <metadata id="metadata7">
        <rdf:RDF>
            <cc:Work rdf:about="">
                <dc:format>image/svg+xml</dc:format>
                <dc:type rdf:resource="http://purl.org/dc/dcmitype/StillImage" />
                <dc:title />
            </cc:Work>
        </rdf:RDF>
    </metadata>
    <g inkscape:groupmode="layer" id="layer1" inkscape:label="background" style="display:inline" sodipodi:insensitive="true">
        <image style="display:inline" y="-0.82644629" x="0" id="image3094" xlink:href="file:///D:/Lunohod/Grfx/design/backgrounds/level_BG.png" height="320" width="480" />
        <image y="218.28511" x="354.4628" id="image3666" xlink:href="file:///D:/Lunohod/Grfx/design/stone/stone_02.png" height="15" width="20" />
        <image y="151.01654" x="3.334728" id="image3755" xlink:href="file:///D:/Lunohod/Grfx/design/grass/grass_04.png" height="14" width="33" />
        <image y="39.995865" x="75.404961" id="image3543" xlink:href="file:///D:/Lunohod/Grfx/design/hill/hill_03.png" height="41" width="112" />
        <image y="184.36778" x="359.83884" id="image3554" xlink:href="file:///D:/Lunohod/Grfx/design/box_strip/box_strip_01.png" height="63" width="39" />
        <image y="42.586773" x="318.7066" id="image3622" xlink:href="file:///D:/Lunohod/Grfx/design/lake/lake_03.png" height="41.603306" width="87.058769" />
        <image width="27" height="26" xlink:href="file:///D:/Lunohod/Grfx/design/stone/stone_07.png" id="image3708" x="217.90495" y="126.83472" />
        <image width="10" height="8" xlink:href="file:///D:/Lunohod/Grfx/design/stone/stone_01.png" id="image3702" x="7.3966966" y="307.73553" />
        <image y="304.42975" x="38.801655" id="image3710" xlink:href="file:///D:/Lunohod/Grfx/design/stone/stone_01.png" height="8" width="10" />
        <image y="154.01653" x="227.23141" id="image3712" xlink:href="file:///D:/Lunohod/Grfx/design/stone/stone_01.png" height="8" width="10" />
        <image y="310.21487" x="50.371902" id="image3655" xlink:href="file:///D:/Lunohod/Grfx/design/stone/stone_01.png" height="8" width="10" />
        <image width="20" height="15" xlink:href="file:///D:/Lunohod/Grfx/design/stone/stone_02.png" id="image3706" x="239.58678" y="141.42561" />
        <image width="17" height="12" xlink:href="file:///D:/Lunohod/Grfx/design/stone/stone_03.png" id="image3888" x="23.731407" y="232.18182" />
        <image y="229.70248" x="350.1777" id="image3677" xlink:href="file:///D:/Lunohod/Grfx/design/stone/stone_03.png" height="12" width="17" />
        <image y="271.92151" x="-6.7975211" id="image3688" xlink:href="file:///D:/Lunohod/Grfx/design/stone/stone_04.png" height="35" width="45" />
        <image y="293.64465" x="13.293389" id="image3699" xlink:href="file:///D:/Lunohod/Grfx/design/stone/stone_05.png" height="18" width="23" />
        <image y="137.92563" x="209.23141" id="image3722" xlink:href="file:///D:/Lunohod/Grfx/design/grass/grass_01.png" height="22" width="46" />
        <image y="163.5248" x="245.98346" id="image3921" xlink:href="file:///D:/Lunohod/Grfx/design/grass/grass_02.png" height="27" width="32" />
        <image width="32" height="27" xlink:href="file:///D:/Lunohod/Grfx/design/grass/grass_02.png" id="image3843" x="464.99173" y="194.1033" />
        <image width="32" height="27" xlink:href="file:///D:/Lunohod/Grfx/design/grass/grass_02.png" id="image3845" x="323.6694" y="199.88843" />
        <image width="32" height="27" xlink:href="file:///D:/Lunohod/Grfx/design/grass/grass_02.png" id="image3847" x="116.23139" y="66.830574" />
        <image width="32" height="27" xlink:href="file:///D:/Lunohod/Grfx/design/grass/grass_02.png" id="image3849" x="122.01654" y="224.68181" />
        <image y="283.3595" x="449.28928" id="image3733" xlink:href="file:///D:/Lunohod/Grfx/design/grass/grass_02.png" height="27" width="32" />
        <image y="299.58264" x="436.50412" id="image3777" xlink:href="file:///D:/Lunohod/Grfx/design/grass/grass_06.png" height="21" width="46" />
        <image y="37.793388" x="372.7562" id="image3799" xlink:href="file:///D:/Lunohod/Grfx/design/grass/grass_08.png" height="14" width="33" />
        <image y="298.42975" x="24.210735" id="image3810" xlink:href="file:///D:/Lunohod/Grfx/design/grass/grass_09.png" height="20" width="21" />
        <image y="109.42561" x="446.80991" id="image3821" xlink:href="file:///D:/Lunohod/Grfx/design/grass/grass_10.png" height="27" width="32" />
        <image width="13" height="28" xlink:href="file:///D:/Lunohod/Grfx/design/column/column_01.png" id="image3884" x="24.904964" y="59.719009" />
        <image y="107.99999" x="23.904966" id="image3870" xlink:href="file:///D:/Lunohod/Grfx/design/column/column_02.png" height="24" width="15" />
        <image width="14" height="29" xlink:href="file:///D:/Lunohod/Grfx/design/column/column_03.png" id="image3886" x="24.404966" y="155.91322" />
        <image width="21" height="20" xlink:href="file:///D:/Lunohod/Grfx/design/grass/grass_03.png" id="image3890" x="26.6901" y="78.595039" />
        <image y="232.31404" x="15.119852" id="image3744" xlink:href="file:///D:/Lunohod/Grfx/design/grass/grass_03.png" height="20" width="21" />
    </g>
    <g inkscape:groupmode="layer" id="layer8" inkscape:label="design" style="display:inline" sodipodi:insensitive="true">
        <image y="-440" x="160" id="image3016-17" xlink:href="file:///D:/Lunohod/Grfx/design/railway/railwayHor1.png" height="40" width="40" transform="matrix(0,1,-1,0,0,0)" />
        <image transform="matrix(0,1,-1,0,0,0)" width="40" height="40" xlink:href="file:///D:/Lunohod/Grfx/design/railway/railwayHor1.png" id="image3033" x="200" y="-440" />
        <image y="-440" x="120" id="image3039" xlink:href="file:///D:/Lunohod/Grfx/design/railway/railwayHor1.png" height="40" width="40" transform="matrix(0,1,-1,0,0,0)" />
        <image transform="matrix(0,1,-1,0,0,0)" width="40" height="40" xlink:href="file:///D:/Lunohod/Grfx/design/railway/railwayHor1.png" id="image3041" x="80" y="-440" />
        <image y="0" x="360" id="image3053" xlink:href="file:///D:/Lunohod/Grfx/design/railway/railwayTurn90a.png" height="80" width="80" />
        <image y="0" x="280" id="image3064" xlink:href="file:///D:/Lunohod/Grfx/design/railway/railwayTurn90b.png" height="80" width="80" />
        <image transform="matrix(0,1,-1,0,0,0)" width="40" height="40" xlink:href="file:///D:/Lunohod/Grfx/design/railway/railwayHor1.png" id="image3067" x="160" y="-320" />
        <image transform="matrix(0,1,-1,0,0,0)" width="40" height="40" xlink:href="file:///D:/Lunohod/Grfx/design/railway/railwayHor1.png" id="image3075" x="120" y="-320" />
        <image y="-320" x="80" id="image3077" xlink:href="file:///D:/Lunohod/Grfx/design/railway/railwayHor1.png" height="40" width="40" transform="matrix(0,1,-1,0,0,0)" />
        <image y="-320" x="200" id="image3098" xlink:href="file:///D:/Lunohod/Grfx/design/railway/railwayTurn90a.png" height="80" width="80" transform="matrix(0,1,-1,0,0,0)" />
        <image transform="scale(-1,-1)" width="80" height="80" xlink:href="file:///D:/Lunohod/Grfx/design/railway/railwayTurn90a.png" id="image3101" x="-240" y="-280" />
        <image y="-200" x="160" id="image3103" xlink:href="file:///D:/Lunohod/Grfx/design/railway/railwayHor1.png" height="40" width="40" transform="matrix(0,1,-1,0,0,0)" />
        <image y="-200" x="120" id="image3107" xlink:href="file:///D:/Lunohod/Grfx/design/railway/railwayHor1.png" height="40" width="40" transform="matrix(0,1,-1,0,0,0)" />
        <image transform="matrix(0,1,-1,0,0,0)" width="40" height="40" xlink:href="file:///D:/Lunohod/Grfx/design/railway/railwayHor1.png" id="image3109" x="80" y="-200" />
        <image width="80" height="80" xlink:href="file:///D:/Lunohod/Grfx/design/railway/railwayTurn90a.png" id="image3111" x="120" y="0" />
        <image width="80" height="80" xlink:href="file:///D:/Lunohod/Grfx/design/railway/railwayTurn90b.png" id="image3113" x="40" y="0" />
        <image y="-80" x="160" id="image3115" xlink:href="file:///D:/Lunohod/Grfx/design/railway/railwayHor1.png" height="40" width="40" transform="matrix(0,1,-1,0,0,0)" />
        <image transform="matrix(0,1,-1,0,0,0)" width="40" height="40" xlink:href="file:///D:/Lunohod/Grfx/design/railway/railwayHor1.png" id="image3117" x="200" y="-80" />
        <image y="-80" x="120" id="image3119" xlink:href="file:///D:/Lunohod/Grfx/design/railway/railwayHor1.png" height="40" width="40" transform="matrix(0,1,-1,0,0,0)" />
        <image transform="matrix(0,1,-1,0,0,0)" width="40" height="40" xlink:href="file:///D:/Lunohod/Grfx/design/railway/railwayHor1.png" id="image3121" x="80" y="-80" />
        <image y="-320" x="-120" id="image3127" xlink:href="file:///D:/Lunohod/Grfx/design/railway/railwayTurn90a.png" height="80" width="80" transform="scale(-1,-1)" />
        <image transform="matrix(0,1,-1,0,0,0)" width="80" height="80" xlink:href="file:///D:/Lunohod/Grfx/design/railway/railwayTurn90a.png" id="image3129" x="240" y="-440" />
        <image y="280" x="120" id="image3139" xlink:href="file:///D:/Lunohod/Grfx/design/railway/railwayHor1.png" height="40" width="40" />
        <image width="40" height="40" xlink:href="file:///D:/Lunohod/Grfx/design/railway/railwayHor1.png" id="image3142" x="160" y="280" />
        <image y="280" x="200" id="image3144" xlink:href="file:///D:/Lunohod/Grfx/design/railway/railwayHor1.png" height="40" width="40" />
        <image width="40" height="40" xlink:href="file:///D:/Lunohod/Grfx/design/railway/railwayHor1.png" id="image3146" x="240" y="280" />
        <image y="280" x="280" id="image3148" xlink:href="file:///D:/Lunohod/Grfx/design/railway/railwayHor1.png" height="40" width="40" />
        <image width="40" height="40" xlink:href="file:///D:/Lunohod/Grfx/design/railway/railwayHor1.png" id="image3150" x="320" y="280" />
    </g>
    <g inkscape:groupmode="layer" id="layer2" inkscape:label="Action" style="display:inline">
        <image width="24" height="25" xlink:href="file:///D:/Lunohod/Grfx/objects/visible/EnemyRat3/EnemyRat3_Dimensions.png" id="image3239" x="155.24463" y="240.29666" />
        <image y="241.82402" x="294.23331" id="image3236" xlink:href="file:///D:/Lunohod/Grfx/objects/visible/EnemyRat3/EnemyRat3_Dimensions.png" height="25" width="24" />
        <image y="209.62585" x="93.468277" id="image3275" xlink:href="file:///D:/Lunohod/Grfx/objects/visible/EnemyRat4/EnemyRat4_Dimensions.png" height="21" width="18" />
        <image y="119.73218" x="92.202423" id="image3281" xlink:href="file:///D:/Lunohod/Grfx/objects/visible/EnemyRat4/EnemyRat4_Dimensions.png" height="21" width="18" />
        <image width="18" height="21" xlink:href="file:///D:/Lunohod/Grfx/objects/visible/EnemyRat4/EnemyRat4_Dimensions.png" id="image3267" x="93.342735" y="165.24916" />
        <image y="78.274246" x="91.564316" id="image3330" xlink:href="file:///D:/Lunohod/Grfx/objects/visible/EnemyRat4/EnemyRat4_Dimensions.png" height="21" width="18" />
        <image y="61.524696" x="458.36859" id="image3334" xlink:href="file:///D:/Lunohod/Grfx/objects/visible/EnemyRat4/EnemyRat4_Dimensions.png" height="21" width="18" />
        <image width="18" height="21" xlink:href="file:///D:/Lunohod/Grfx/objects/visible/EnemyRat4/EnemyRat4_Dimensions.png" id="image3271" x="459.8959" y="123.89212" />
        <image width="22" height="23" xlink:href="file:///D:/Lunohod/Grfx/objects/visible/EnemyRat2/EnemyRat2_Dimensions.png" id="image3312" x="203.59244" y="208.45869" />
        <image y="208.39592" x="254.37157" id="image3309" xlink:href="file:///D:/Lunohod/Grfx/objects/visible/EnemyRat2/EnemyRat2_Dimensions.png" height="23" width="22" />
        <image y="99.631859" x="177.79282" id="image3492" xlink:href="file:///D:/Lunohod/Grfx/objects/visible/Food/fishType03.png" height="20" width="31" />
        <image width="31" height="20" xlink:href="file:///D:/Lunohod/Grfx/objects/visible/Food/fishType03.png" id="image3459" x="288.44101" y="10.157097" />
        <image y="134.83157" x="158.34546" id="image3507" xlink:href="file:///D:/Lunohod/Grfx/objects/visible/Food/fishType04.png" height="22" width="28" />
        <image y="22.134354" x="332.74475" id="image3445" xlink:href="file:///D:/Lunohod/Grfx/objects/visible/Food/fishType04.png" height="22" width="28" />
        <image y="73.494339" x="152.65529" id="image3482" xlink:href="file:///D:/Lunohod/Grfx/objects/visible/Food/fishType02.png" height="19" width="28" />
        <image y="88.520638" x="276.96375" id="image3484" xlink:href="file:///D:/Lunohod/Grfx/objects/visible/Food/fishType02.png" height="19" width="28" />
        <image y="52.320923" x="296.77112" id="image3486" xlink:href="file:///D:/Lunohod/Grfx/objects/visible/Food/fishType02.png" height="19" width="28" />
        <image width="28" height="19" xlink:href="file:///D:/Lunohod/Grfx/objects/visible/Food/fishType02.png" id="image3463" x="363.70645" y="1.0949128" />
        <image y="35.245594" x="178.6098" id="image3456" xlink:href="file:///D:/Lunohod/Grfx/objects/visible/Food/fishType02.png" height="19" width="28" />
        <image y="2.6439471" x="152.47226" id="image3480" xlink:href="file:///D:/Lunohod/Grfx/objects/visible/Food/fishType05.png" height="20" width="27" />
        <image width="27" height="20" xlink:href="file:///D:/Lunohod/Grfx/objects/visible/Food/fishType05.png" id="image3476" x="414.06641" y="14.255176" />
        <image y="171.34827" x="178.65285" id="image3509" xlink:href="file:///D:/Lunohod/Grfx/objects/visible/Food/fishType05.png" height="20" width="27" />
        <image width="27" height="20" xlink:href="file:///D:/Lunohod/Grfx/objects/visible/Food/fishType05.png" id="image3478" x="158.65285" y="288.621" />
        <image width="27" height="20" xlink:href="file:///D:/Lunohod/Grfx/objects/visible/Food/fishType05.png" id="image3511" x="298.18021" y="120.12226" />
        <image y="289.21317" x="289.08929" id="image3473" xlink:href="file:///D:/Lunohod/Grfx/objects/visible/Food/fishType05.png" height="20" width="27" />
        <image y="192.30278" x="404.7363" id="image3504" xlink:href="file:///D:/Lunohod/Grfx/objects/visible/Food/fishType07.png" height="30" width="32" />
    </g>
    <g inkscape:groupmode="layer" id="layer10" inkscape:label="Way" sodipodi:insensitive="true" style="display:inline">
        <image y="288" x="44" id="image3206" xlink:href="file:///D:/Lunohod/Grfx/objects/unvisible/Moving/left.png" height="4" width="360" />
        <image y="8.0000124" x="44" id="image3184" xlink:href="file:///D:/Lunohod/Grfx/objects/unvisible/Moving/up.png" height="280" width="4" />
        <image y="8.0000124" x="44" id="image3217" xlink:href="file:///D:/Lunohod/Grfx/objects/unvisible/Moving/right.png" height="4" width="120" />
        <image y="8.0000124" x="164" id="image3195" xlink:href="file:///D:/Lunohod/Grfx/objects/unvisible/Moving/down.png" height="240" width="4" />
        <image width="120" height="4" xlink:href="file:///D:/Lunohod/Grfx/objects/unvisible/Moving/right.png" id="image3220" x="164" y="248.00002" />
        <image width="4" height="240" xlink:href="file:///D:/Lunohod/Grfx/objects/unvisible/Moving/up.png" id="image3222" x="284" y="8.0000124" />
        <image width="120" height="4" xlink:href="file:///D:/Lunohod/Grfx/objects/unvisible/Moving/right.png" id="image3224" x="284" y="8.0000124" />
        <image width="4" height="280" xlink:href="file:///D:/Lunohod/Grfx/objects/unvisible/Moving/down.png" id="image3226" x="404" y="8.2664614" />
    </g>
    <g inkscape:groupmode="layer" id="layer5" inkscape:label="actionTHE" style="display:inline" sodipodi:insensitive="true">
        <image y="0" x="0" id="image3038" xlink:href="file:///D:/Lunohod/Grfx/objects/visible/Tower/transmitter_2_off.png" height="30" width="30" />
        <image y="225.13524" x="401.12897" id="image3049" xlink:href="file:///D:/Lunohod/Grfx/objects/visible/Exit/refrigerator.png" height="54" width="37" />
        <image y="288" x="404" id="image3016-1" xlink:href="file:///D:/Lunohod/Grfx/objects/visible/Hero/heroDimensions.png" height="24" width="33" />
    </g>
    <g inkscape:groupmode="layer" id="layer12" inkscape:label="design2" sodipodi:insensitive="true">
        <image style="display:inline" y="42.628094" x="304.73138" id="image3766" xlink:href="file:///D:/Lunohod/Grfx/design/grass/grass_05.png" height="44" width="55" />
        <image style="display:inline" y="59.553726" x="442.74792" id="image3788-7" xlink:href="file:///D:/Lunohod/Grfx/design/grass/grass_07.png" height="44" width="55" />
    </g>
    <g inkscape:groupmode="layer" id="layer3" inkscape:label="Semafor" style="display:inline" sodipodi:insensitive="true">
        <image y="264" x="347.14984" id="image3161" xlink:href="file:///D:/Lunohod/Grfx/objects/visible/Semafor/semafor_green.png" height="60" width="38" />
    </g>
    <g inkscape:groupmode="layer" id="layer9" inkscape:label="dash" style="opacity:0.29861109;display:none" sodipodi:insensitive="true">
        <image y="0" x="0" id="image3016" xlink:href="file:///D:/Lunohod/Art/dashboard/screenTapAreas_dash_M_btnSize52.png" height="320" width="480" />
    </g>
    <g inkscape:groupmode="layer" id="layer6" inkscape:label="upmask" sodipodi:insensitive="true" style="display:none">
        <rect style="fill:#ffffff;fill-opacity:1;fill-rule:nonzero;stroke:none" id="rect3011" width="1499.1859" height="380.14673" x="-434.48303" y="-380.14673" />
        <rect style="fill:#ffffff;fill-opacity:1;fill-rule:nonzero;stroke:none" id="rect3013" width="644.82831" height="1098.9973" x="480" y="-256.73999" />
        <rect style="fill:#ffffff;fill-opacity:1;fill-rule:nonzero;stroke:none" id="rect3015" width="1018.1825" height="736.57312" x="-257.47144" y="320" />
        <rect style="fill:#ffffff;fill-opacity:1;fill-rule:nonzero;stroke:none" id="rect3017" width="663.5741" height="1133.1669" x="-663.5741" y="-333.33374" />
    </g>
</svg>
