<?xml version="1.0" encoding="UTF-8" standalone="no"?>
<!-- Created with Inkscape (http://www.inkscape.org/) -->

<svg xmlns:dc="http://purl.org/dc/elements/1.1/" xmlns:cc="http://creativecommons.org/ns#" xmlns:rdf="http://www.w3.org/1999/02/22-rdf-syntax-ns#" xmlns:svg="http://www.w3.org/2000/svg" xmlns="http://www.w3.org/2000/svg" xmlns:xlink="http://www.w3.org/1999/xlink" xmlns:sodipodi="http://sodipodi.sourceforge.net/DTD/sodipodi-0.dtd" xmlns:inkscape="http://www.inkscape.org/namespaces/inkscape" width="480" height="320" id="svg2" version="1.1" inkscape:version="0.48.1 " sodipodi:docname="Lvl_Poezd_v10_Gorki.svg" style="display:inline" inkscape:export-filename="D:\Lunohod\Levels\S05LXX_Poezd_v10_Gorki\S05LXX_Poezd_v10_Gorki.png" inkscape:export-xdpi="90" inkscape:export-ydpi="90">
    <defs id="defs4" />
    <sodipodi:namedview id="base" pagecolor="#ffffff" bordercolor="#666666" borderopacity="1.0" inkscape:pageopacity="0.0" inkscape:pageshadow="2" inkscape:zoom="1.4641" inkscape:cx="137.57413" inkscape:cy="97.707802" inkscape:document-units="px" inkscape:current-layer="layer11" showgrid="false" width="480px" inkscape:showpageshadow="false" inkscape:window-width="1280" inkscape:window-height="744" inkscape:window-x="-4" inkscape:window-y="-4" inkscape:window-maximized="1" showguides="false" inkscape:guide-bbox="true">
        <sodipodi:guide orientation="0,1" position="320,256" id="guide3018" />
        <sodipodi:guide orientation="0,1" position="160,64" id="guide3020" />
        <sodipodi:guide orientation="1,0" position="400,192" id="guide3022" />
        <sodipodi:guide orientation="1,0" position="80,128" id="guide3024" />
        <sodipodi:guide orientation="0,1" position="240,160" id="guide3005" />
        <sodipodi:guide orientation="1,0" position="240,160" id="guide3007" />
        <sodipodi:guide orientation="1,0" position="0,160" id="guide3072" />
        <sodipodi:guide orientation="1,0" position="480,160" id="guide3074" />
        <sodipodi:guide orientation="0,1" position="240,320" id="guide3076" />
        <sodipodi:guide orientation="0,1" position="240,0" id="guide3078" />
        <inkscape:grid type="xygrid" id="grid3023" />
    </sodipodi:namedview>
    <metadata id="metadata7">
        <rdf:RDF>
            <cc:Work rdf:about="">
                <dc:format>image/svg+xml</dc:format>
                <dc:type rdf:resource="http://purl.org/dc/dcmitype/StillImage" />
                <dc:title />
            </cc:Work>
        </rdf:RDF>
    </metadata>
    <g inkscape:groupmode="layer" id="layer1" inkscape:label="background" style="display:inline" sodipodi:insensitive="true">
        <image y="0" x="0" id="image3241" xlink:href="file:///D:/Lunohod/Grfx/design/backgrounds/backg_demo.png" height="320" width="480" />
    </g>
    <g inkscape:groupmode="layer" id="layer7" inkscape:label="secondbckg" sodipodi:insensitive="true" />
    <g inkscape:groupmode="layer" id="layer4" inkscape:label="blocks" sodipodi:insensitive="true" />
    <g inkscape:groupmode="layer" id="layer8" inkscape:label="design" style="display:inline" sodipodi:insensitive="true">
        <image y="-200" x="260" id="image3027" xlink:href="file:///D:/Lunohod/Grfx/design/railway/railwayTurn180a.png" height="100" width="60" transform="matrix(0,1,-1,0,0,0)" />
        <image y="-140" x="0" id="image3038-7" xlink:href="file:///D:/Lunohod/Grfx/design/railway/railwayTurn180b.png" height="100" width="60" transform="matrix(0,1,-1,0,0,0)" />
        <image transform="matrix(0,1,-1,0,0,0)" width="60" height="100" xlink:href="file:///D:/Lunohod/Grfx/design/railway/railwayTurn180b.png" id="image3068" x="0" y="-260" />
        <image y="-380" x="0" id="image3070" xlink:href="file:///D:/Lunohod/Grfx/design/railway/railwayTurn180b.png" height="100" width="60" transform="matrix(0,1,-1,0,0,0)" />
        <image transform="matrix(0,1,-1,0,0,0)" width="60" height="100" xlink:href="file:///D:/Lunohod/Grfx/design/railway/railwayTurn180a.png" id="image3080" x="260" y="-320" />
        <image y="-440" x="260" id="image3082" xlink:href="file:///D:/Lunohod/Grfx/design/railway/railwayTurn180a.png" height="100" width="60" transform="matrix(0,1,-1,0,0,0)" />
        <image y="-80" x="260" id="image3312" xlink:href="file:///D:/Lunohod/Grfx/design/railway/railwayHor1.png" height="40" width="40" transform="matrix(0,1,-1,0,0,0)" />
        <image transform="matrix(0,1,-1,0,0,0)" width="40" height="40" xlink:href="file:///D:/Lunohod/Grfx/design/railway/railwayHor1.png" id="image3315" x="220" y="-80" />
        <image y="-80" x="100" id="image3321" xlink:href="file:///D:/Lunohod/Grfx/design/railway/railwayHor1.png" height="40" width="40" transform="matrix(0,1,-1,0,0,0)" />
        <image transform="matrix(0,1,-1,0,0,0)" width="40" height="40" xlink:href="file:///D:/Lunohod/Grfx/design/railway/railwayHor1.png" id="image3323" x="60" y="-80" />
        <image y="-140" x="220" id="image3325" xlink:href="file:///D:/Lunohod/Grfx/design/railway/railwayHor1.png" height="40" width="40" transform="matrix(0,1,-1,0,0,0)" />
        <image transform="matrix(0,1,-1,0,0,0)" width="40" height="40" xlink:href="file:///D:/Lunohod/Grfx/design/railway/railwayHor1.png" id="image3327" x="180" y="-140" />
        <image y="-140" x="140" id="image3329" xlink:href="file:///D:/Lunohod/Grfx/design/railway/railwayHor1.png" height="40" width="40" transform="matrix(0,1,-1,0,0,0)" />
        <image transform="matrix(0,1,-1,0,0,0)" width="40" height="40" xlink:href="file:///D:/Lunohod/Grfx/design/railway/railwayHor1.png" id="image3331" x="100" y="-140" />
        <image y="-140" x="60" id="image3333" xlink:href="file:///D:/Lunohod/Grfx/design/railway/railwayHor1.png" height="40" width="40" transform="matrix(0,1,-1,0,0,0)" />
        <image transform="matrix(0,1,-1,0,0,0)" width="40" height="40" xlink:href="file:///D:/Lunohod/Grfx/design/railway/railwayHor1.png" id="image3335" x="220" y="-200" />
        <image y="-200" x="180" id="image3337" xlink:href="file:///D:/Lunohod/Grfx/design/railway/railwayHor1.png" height="40" width="40" transform="matrix(0,1,-1,0,0,0)" />
        <image transform="matrix(0,1,-1,0,0,0)" width="40" height="40" xlink:href="file:///D:/Lunohod/Grfx/design/railway/railwayHor1.png" id="image3343" x="60" y="-200" />
        <image y="-260" x="220" id="image3345" xlink:href="file:///D:/Lunohod/Grfx/design/railway/railwayHor1.png" height="40" width="40" transform="matrix(0,1,-1,0,0,0)" />
        <image transform="matrix(0,1,-1,0,0,0)" width="40" height="40" xlink:href="file:///D:/Lunohod/Grfx/design/railway/railwayHor1.png" id="image3347" x="180" y="-260" />
        <image y="-260" x="140" id="image3349" xlink:href="file:///D:/Lunohod/Grfx/design/railway/railwayHor1.png" height="40" width="40" transform="matrix(0,1,-1,0,0,0)" />
        <image transform="matrix(0,1,-1,0,0,0)" width="40" height="40" xlink:href="file:///D:/Lunohod/Grfx/design/railway/railwayHor1.png" id="image3351" x="100" y="-260" />
        <image y="-260" x="60" id="image3353" xlink:href="file:///D:/Lunohod/Grfx/design/railway/railwayHor1.png" height="40" width="40" transform="matrix(0,1,-1,0,0,0)" />
        <image transform="matrix(0,1,-1,0,0,0)" width="40" height="40" xlink:href="file:///D:/Lunohod/Grfx/design/railway/railwayHor1.png" id="image3355" x="220" y="-320" />
        <image y="-320" x="180" id="image3357" xlink:href="file:///D:/Lunohod/Grfx/design/railway/railwayHor1.png" height="40" width="40" transform="matrix(0,1,-1,0,0,0)" />
        <image transform="matrix(0,1,-1,0,0,0)" width="40" height="40" xlink:href="file:///D:/Lunohod/Grfx/design/railway/railwayHor1.png" id="image3359" x="140" y="-320" />
        <image y="-320" x="100" id="image3361" xlink:href="file:///D:/Lunohod/Grfx/design/railway/railwayHor1.png" height="40" width="40" transform="matrix(0,1,-1,0,0,0)" />
        <image transform="matrix(0,1,-1,0,0,0)" width="40" height="40" xlink:href="file:///D:/Lunohod/Grfx/design/railway/railwayHor1.png" id="image3363" x="60" y="-320" />
        <image y="-380" x="220" id="image3365" xlink:href="file:///D:/Lunohod/Grfx/design/railway/railwayHor1.png" height="40" width="40" transform="matrix(0,1,-1,0,0,0)" />
        <image transform="matrix(0,1,-1,0,0,0)" width="40" height="40" xlink:href="file:///D:/Lunohod/Grfx/design/railway/railwayHor1.png" id="image3367" x="180" y="-380" />
        <image y="-380" x="140" id="image3369" xlink:href="file:///D:/Lunohod/Grfx/design/railway/railwayHor1.png" height="40" width="40" transform="matrix(0,1,-1,0,0,0)" />
        <image transform="matrix(0,1,-1,0,0,0)" width="40" height="40" xlink:href="file:///D:/Lunohod/Grfx/design/railway/railwayHor1.png" id="image3371" x="100" y="-380" />
        <image y="-380" x="60" id="image3373" xlink:href="file:///D:/Lunohod/Grfx/design/railway/railwayHor1.png" height="40" width="40" transform="matrix(0,1,-1,0,0,0)" />
        <image transform="matrix(0,1,-1,0,0,0)" width="40" height="40" xlink:href="file:///D:/Lunohod/Grfx/design/railway/railwayHor1.png" id="image3375" x="220" y="-440" />
        <image y="-440" x="100" id="image3381" xlink:href="file:///D:/Lunohod/Grfx/design/railway/railwayHor1.png" height="40" width="40" transform="matrix(0,1,-1,0,0,0)" />
        <image transform="matrix(0,1,-1,0,0,0)" width="40" height="40" xlink:href="file:///D:/Lunohod/Grfx/design/railway/railwayHor1.png" id="image3383" x="60" y="-440" />
        <image y="-440" x="20" id="image3385" xlink:href="file:///D:/Lunohod/Grfx/design/railway/railwayHor1.png" height="40" width="40" transform="matrix(0,1,-1,0,0,0)" />
        <image transform="matrix(0,1,-1,0,0,0)" width="40" height="40" xlink:href="file:///D:/Lunohod/Grfx/design/railway/railwayHor1.png" id="image3389" x="300" y="-80" />
        <image y="-80" x="140" id="image3399" xlink:href="file:///D:/Lunohod/Grfx/design/railway/railwayHor6.png" height="40" width="40" transform="matrix(0,1,-1,0,0,0)" />
        <image y="-440" x="140" id="image3410" xlink:href="file:///D:/Lunohod/Grfx/design/railway/railwayHor7.png" height="40" width="40" transform="matrix(0,1,-1,0,0,0)" />
        <image y="-440" x="180" id="image3421" xlink:href="file:///D:/Lunohod/Grfx/design/railway/railwayHor8.png" height="40" width="40" transform="matrix(0,1,-1,0,0,0)" />
        <image y="-200" x="140" id="image3432" xlink:href="file:///D:/Lunohod/Grfx/design/railway/railwayHor2.png" height="40" width="40" transform="matrix(0,1,-1,0,0,0)" />
        <image y="-80" x="180" id="image3443" xlink:href="file:///D:/Lunohod/Grfx/design/railway/railwayHor3.png" height="40" width="40" transform="matrix(0,1,-1,0,0,0)" />
        <image transform="matrix(0,1,-1,0,0,0)" width="40" height="40" xlink:href="file:///D:/Lunohod/Grfx/design/railway/railwayHor2.png" id="image3446" x="100" y="-200" />
    </g>
    <g inkscape:groupmode="layer" id="layer2" inkscape:label="enemies" style="display:inline" sodipodi:insensitive="true">
        <image y="53" x="80" id="image3151" xlink:href="file:///D:/Lunohod/Grfx/objects/visible/EnemyRat4/EnemyRat4_Dimensions.png" height="21" width="18" />
        <image width="18" height="21" xlink:href="file:///D:/Lunohod/Grfx/objects/visible/EnemyRat4/EnemyRat4_Dimensions.png" id="image3154" x="200" y="53" />
        <image y="53" x="320" id="image3156" xlink:href="file:///D:/Lunohod/Grfx/objects/visible/EnemyRat4/EnemyRat4_Dimensions.png" height="21" width="18" />
        <image width="18" height="21" xlink:href="file:///D:/Lunohod/Grfx/objects/visible/EnemyRat4/EnemyRat4_Dimensions.png" id="image3158" x="380" y="249" />
        <image y="249" x="260" id="image3160" xlink:href="file:///D:/Lunohod/Grfx/objects/visible/EnemyRat4/EnemyRat4_Dimensions.png" height="21" width="18" />
        <image width="18" height="21" xlink:href="file:///D:/Lunohod/Grfx/objects/visible/EnemyRat4/EnemyRat4_Dimensions.png" id="image3162" x="140" y="249" />
    </g>
    <g inkscape:groupmode="layer" id="layer3" inkscape:label="food" style="display:inline" sodipodi:insensitive="true">
        <image y="108.99223" x="46.363636" id="image3225" xlink:href="file:///D:/Lunohod/Grfx/objects/visible/Food/fish_4_me.png" height="15" width="30" />
        <image y="114.44678" x="164.54546" id="image3227" xlink:href="file:///D:/Lunohod/Grfx/objects/visible/Food/fish_4_me.png" height="15" width="30" />
        <image y="102.62859" x="283.63635" id="image3229" xlink:href="file:///D:/Lunohod/Grfx/objects/visible/Food/fish_4_me.png" height="15" width="30" />
        <image y="206.26495" x="229.09091" id="image3231" xlink:href="file:///D:/Lunohod/Grfx/objects/visible/Food/fish_4_me.png" height="15" width="30" />
        <image width="30" height="15" xlink:href="file:///D:/Lunohod/Grfx/objects/visible/Food/fish_4_me.png" id="image3176" x="350.90909" y="200.81041" />
        <image width="30" height="15" xlink:href="file:///D:/Lunohod/Grfx/objects/visible/Food/fish_4_me.png" id="image3180" x="99.090912" y="208.08315" />
        <image y="99.901321" x="388.18182" id="image3219" xlink:href="file:///D:/Lunohod/Grfx/objects/visible/Food/fish_4_me.png" height="15" width="30" />
        <image y="99.901321" x="419.09091" id="image3221" xlink:href="file:///D:/Lunohod/Grfx/objects/visible/Food/fish_4_me.png" height="15" width="30" />
        <image y="70.810417" x="418.18182" id="image3223" xlink:href="file:///D:/Lunohod/Grfx/objects/visible/Food/fish_4_me.png" height="15" width="30" />
        <image width="30" height="15" xlink:href="file:///D:/Lunohod/Grfx/objects/visible/Food/fish_4_me.png" id="image3198" x="390" y="69.901321" />
        <image y="83.318184" x="408.81818" id="image3214" xlink:href="file:///D:/Lunohod/Grfx/objects/visible/Food/fish_5_me.png" height="17" width="26" />
    </g>
    <g inkscape:groupmode="layer" id="layer10" inkscape:label="way" sodipodi:insensitive="true" style="display:inline">
        <image y="17" x="44" id="image3275" xlink:href="file:///D:/Lunohod/Grfx/objects/unvisible/Moving/up.png" height="264" width="4" />
        <image y="16.999992" x="44" id="image3264" xlink:href="file:///D:/Lunohod/Grfx/objects/unvisible/Moving/right.png" height="4" width="60" />
        <image y="16.999992" x="104" id="image3253" xlink:href="file:///D:/Lunohod/Grfx/objects/unvisible/Moving/down.png" height="264" width="4" />
        <image width="60" height="4" xlink:href="file:///D:/Lunohod/Grfx/objects/unvisible/Moving/right.png" id="image3278" x="104" y="281" />
        <image width="4" height="264" xlink:href="file:///D:/Lunohod/Grfx/objects/unvisible/Moving/up.png" id="image3284" x="164" y="17" />
        <image width="60" height="4" xlink:href="file:///D:/Lunohod/Grfx/objects/unvisible/Moving/right.png" id="image3282" x="164" y="16.999992" />
        <image width="4" height="264" xlink:href="file:///D:/Lunohod/Grfx/objects/unvisible/Moving/down.png" id="image3280" x="224" y="16.999992" />
        <image y="281" x="224" id="image3286" xlink:href="file:///D:/Lunohod/Grfx/objects/unvisible/Moving/right.png" height="4" width="60" />
        <image y="17" x="284" id="image3292" xlink:href="file:///D:/Lunohod/Grfx/objects/unvisible/Moving/up.png" height="264" width="4" />
        <image y="16.999992" x="284" id="image3290" xlink:href="file:///D:/Lunohod/Grfx/objects/unvisible/Moving/right.png" height="4" width="60" />
        <image y="16.999992" x="344" id="image3288" xlink:href="file:///D:/Lunohod/Grfx/objects/unvisible/Moving/down.png" height="264" width="4" />
        <image width="60" height="4" xlink:href="file:///D:/Lunohod/Grfx/objects/unvisible/Moving/right.png" id="image3294" x="344" y="281" />
        <image width="4" height="264" xlink:href="file:///D:/Lunohod/Grfx/objects/unvisible/Moving/up.png" id="image3300" x="404" y="17" />
    </g>
    <g inkscape:groupmode="layer" id="layer5" inkscape:label="actionTHE" style="display:inline" sodipodi:insensitive="true">
        <image y="0" x="0" id="image3038" xlink:href="file:///D:/Lunohod/Grfx/objects/visible/Tower/transmitter-2.png" height="30" width="30" />
        <image y="281" x="44" id="image3015" xlink:href="file:///D:/Lunohod/Grfx/objects/visible/Hero/heroDimensions.png" height="23" width="33" />
        <image y="10" x="402" id="image3049" xlink:href="file:///D:/Lunohod/Grfx/objects/visible/Exit/refrigerator.png" height="54" width="37" />
    </g>
    <g inkscape:groupmode="layer" id="layer11" inkscape:label="Semafor">
        <image y="235" x="19.350494" id="image3094" xlink:href="file:///D:/Lunohod/Grfx/objects/visible/Semafor/semafor_green.png" height="60" width="38" />
    </g>
    <g inkscape:groupmode="layer" id="layer9" inkscape:label="dash" style="opacity:0.29861109;display:none" sodipodi:insensitive="true">
        <image y="0" x="0" id="image3016" xlink:href="file:///D:/Lunohod/Art/dashboard/screenTapAreas_dash_M_btnSize52.png" height="320" width="480" />
    </g>
    <g inkscape:groupmode="layer" id="layer6" inkscape:label="upmask" sodipodi:insensitive="true" style="display:none">
        <rect style="fill:#ffffff;fill-opacity:1;fill-rule:nonzero;stroke:none" id="rect3011" width="1499.1859" height="380.14673" x="-434.48303" y="-380.14673" />
        <rect style="fill:#ffffff;fill-opacity:1;fill-rule:nonzero;stroke:none" id="rect3013" width="644.82831" height="1098.9973" x="480" y="-256.73999" />
        <rect style="fill:#ffffff;fill-opacity:1;fill-rule:nonzero;stroke:none" id="rect3015" width="1018.1825" height="736.57312" x="-257.47144" y="320" />
        <rect style="fill:#ffffff;fill-opacity:1;fill-rule:nonzero;stroke:none" id="rect3017" width="663.5741" height="1133.1669" x="-663.5741" y="-333.33374" />
    </g>
</svg>
