<?xml version="1.0" encoding="UTF-8" standalone="no"?>
<!-- Created with Inkscape (http://www.inkscape.org/) -->

<svg xmlns:dc="http://purl.org/dc/elements/1.1/" xmlns:cc="http://creativecommons.org/ns#" xmlns:rdf="http://www.w3.org/1999/02/22-rdf-syntax-ns#" xmlns:svg="http://www.w3.org/2000/svg" xmlns="http://www.w3.org/2000/svg" xmlns:xlink="http://www.w3.org/1999/xlink" xmlns:sodipodi="http://sodipodi.sourceforge.net/DTD/sodipodi-0.dtd" xmlns:inkscape="http://www.inkscape.org/namespaces/inkscape" width="480" height="320" id="svg2" version="1.1" inkscape:version="0.48.1 " sodipodi:docname="Lvl_Poezd_v10_Gorki.svg" style="display:inline" inkscape:export-filename="D:\Lunohod\Levels\Lvl_Poezd_v10_Gorki\Lvl_Poezd_v10_Gorki.png" inkscape:export-xdpi="90" inkscape:export-ydpi="90">
    <defs id="defs4" />
    <sodipodi:namedview id="base" pagecolor="#ffffff" bordercolor="#666666" borderopacity="1.0" inkscape:pageopacity="0.0" inkscape:pageshadow="2" inkscape:zoom="1" inkscape:cx="183.35749" inkscape:cy="119.3563" inkscape:document-units="px" inkscape:current-layer="layer12" showgrid="false" width="480px" inkscape:showpageshadow="false" inkscape:window-width="1280" inkscape:window-height="744" inkscape:window-x="-4" inkscape:window-y="-4" inkscape:window-maximized="1" showguides="false" inkscape:guide-bbox="true">
        <sodipodi:guide orientation="0,1" position="320,256" id="guide3018" />
        <sodipodi:guide orientation="0,1" position="160,64" id="guide3020" />
        <sodipodi:guide orientation="1,0" position="400,192" id="guide3022" />
        <sodipodi:guide orientation="1,0" position="80,128" id="guide3024" />
        <sodipodi:guide orientation="0,1" position="240,160" id="guide3005" />
        <sodipodi:guide orientation="1,0" position="240,160" id="guide3007" />
        <sodipodi:guide orientation="1,0" position="0,160" id="guide3072" />
        <sodipodi:guide orientation="1,0" position="480,160" id="guide3074" />
        <sodipodi:guide orientation="0,1" position="240,320" id="guide3076" />
        <sodipodi:guide orientation="0,1" position="240,0" id="guide3078" />
        <inkscape:grid type="xygrid" id="grid3023" />
    </sodipodi:namedview>
    <metadata id="metadata7">
        <rdf:RDF>
            <cc:Work rdf:about="">
                <dc:format>image/svg+xml</dc:format>
                <dc:type rdf:resource="http://purl.org/dc/dcmitype/StillImage" />
                <dc:title></dc:title>
            </cc:Work>
        </rdf:RDF>
    </metadata>
    <g inkscape:groupmode="layer" id="layer1" inkscape:label="background" style="display:inline" sodipodi:insensitive="true">
        <image y="0" x="0" id="image3255" xlink:href="file:///D:/Lunohod/Grfx/design/backgrounds/level_BG.png" height="320" width="480" />
    </g>
    <g inkscape:groupmode="layer" id="layer7" inkscape:label="secondbckg" style="display:inline" sodipodi:insensitive="true">
        <image y="276.18628" x="325.36115" id="image3300-7" xlink:href="file:///D:/Lunohod/Grfx/design/hemps/hemps_02.png" height="24" width="31" />
        <image y="265.82425" x="442.8436" id="image3311" xlink:href="file:///D:/Lunohod/Grfx/design/grass/grass_01.png" height="22" width="46" />
        <image width="32" height="27" xlink:href="file:///D:/Lunohod/Grfx/design/grass/grass_02.png" id="image3422" x="195.33392" y="173.18542" />
        <image y="39.113361" x="461.9631" id="image3322" xlink:href="file:///D:/Lunohod/Grfx/design/grass/grass_02.png" height="27" width="32" />
        <image y="106.24078" x="322.78647" id="image3333-4" xlink:href="file:///D:/Lunohod/Grfx/design/grass/grass_03.png" height="20" width="21" />
        <image width="33" height="14" xlink:href="file:///D:/Lunohod/Grfx/design/grass/grass_04.png" id="image3415" x="12.28383" y="152.41652" />
        <image y="163.19156" x="78.434097" id="image3494" xlink:href="file:///D:/Lunohod/Grfx/design/stone/stone_01.png" height="8" width="10" />
        <image width="10" height="8" xlink:href="file:///D:/Lunohod/Grfx/design/stone/stone_01.png" id="image3402" x="141.4341" y="136.19156" />
        <image width="10" height="8" xlink:href="file:///D:/Lunohod/Grfx/design/stone/stone_01.png" id="image3406" x="202.54657" y="81.942001" />
        <image width="10" height="8" xlink:href="file:///D:/Lunohod/Grfx/design/stone/stone_01.png" id="image3408" x="233.60281" y="75.882248" />
        <image y="25.131807" x="285.11072" id="image3366" xlink:href="file:///D:/Lunohod/Grfx/design/stone/stone_01.png" height="8" width="10" />
        <image width="17" height="12" xlink:href="file:///D:/Lunohod/Grfx/design/stone/stone_03.png" id="image3435" x="82.631821" y="141.58699" />
        <image y="93.58699" x="210.63182" id="image3377" xlink:href="file:///D:/Lunohod/Grfx/design/stone/stone_03.png" height="12" width="17" />
        <image y="10.072056" x="264.49124" id="image3399-9" xlink:href="file:///D:/Lunohod/Grfx/design/stone/stone_07.png" height="26" width="27" />
        <image y="22.404219" x="252.0993" id="image3388" xlink:href="file:///D:/Lunohod/Grfx/design/stone/stone_05.png" height="18" width="23" />
        <image width="10" height="8" xlink:href="file:///D:/Lunohod/Grfx/design/stone/stone_01.png" id="image3411" x="259.35678" y="38.766258" />
        <image y="38.796127" x="269.30841" id="image3490" xlink:href="file:///D:/Lunohod/Grfx/design/grass/grass_04.png" height="14" width="33" />
        <image y="278.79614" x="90.308411" id="image3492" xlink:href="file:///D:/Lunohod/Grfx/design/grass/grass_04.png" height="14" width="33" />
        <image width="33" height="14" xlink:href="file:///D:/Lunohod/Grfx/design/grass/grass_04.png" id="image3417" x="195.30841" y="307.79614" />
        <image width="33" height="14" xlink:href="file:///D:/Lunohod/Grfx/design/grass/grass_04.png" id="image3419" x="124.38926" y="49.400696" />
        <image y="28.5" x="451.5" id="image3476" xlink:href="file:///D:/Lunohod/Grfx/design/box_strip/box_strip_02.png" height="53" width="47" />
        <image y="-13.5" x="25" id="image3487" xlink:href="file:///D:/Lunohod/Grfx/design/hill/hill_03.png" height="41" width="112" />
    </g>
    <g inkscape:groupmode="layer" id="layer4" inkscape:label="blocks" sodipodi:insensitive="true" />
    <g inkscape:groupmode="layer" id="layer8" inkscape:label="design" style="display:inline" sodipodi:insensitive="true">
        <image y="-200" x="260" id="image3027" xlink:href="file:///D:/Lunohod/Grfx/design/railway/railwayTurn180a.png" height="100" width="60" transform="matrix(0,1,-1,0,0,0)" />
        <image y="-140" x="0" id="image3038-7" xlink:href="file:///D:/Lunohod/Grfx/design/railway/railwayTurn180b.png" height="100" width="60" transform="matrix(0,1,-1,0,0,0)" />
        <image transform="matrix(0,1,-1,0,0,0)" width="60" height="100" xlink:href="file:///D:/Lunohod/Grfx/design/railway/railwayTurn180b.png" id="image3068" x="0" y="-260" />
        <image y="-380" x="0" id="image3070" xlink:href="file:///D:/Lunohod/Grfx/design/railway/railwayTurn180b.png" height="100" width="60" transform="matrix(0,1,-1,0,0,0)" />
        <image transform="matrix(0,1,-1,0,0,0)" width="60" height="100" xlink:href="file:///D:/Lunohod/Grfx/design/railway/railwayTurn180a.png" id="image3080" x="260" y="-320" />
        <image y="-440" x="260" id="image3082" xlink:href="file:///D:/Lunohod/Grfx/design/railway/railwayTurn180a.png" height="100" width="60" transform="matrix(0,1,-1,0,0,0)" />
        <image y="-80" x="260" id="image3312" xlink:href="file:///D:/Lunohod/Grfx/design/railway/railwayHor1.png" height="40" width="40" transform="matrix(0,1,-1,0,0,0)" />
        <image transform="matrix(0,1,-1,0,0,0)" width="40" height="40" xlink:href="file:///D:/Lunohod/Grfx/design/railway/railwayHor1.png" id="image3315" x="220" y="-80" />
        <image y="-80" x="100" id="image3321" xlink:href="file:///D:/Lunohod/Grfx/design/railway/railwayHor1.png" height="40" width="40" transform="matrix(0,1,-1,0,0,0)" />
        <image transform="matrix(0,1,-1,0,0,0)" width="40" height="40" xlink:href="file:///D:/Lunohod/Grfx/design/railway/railwayHor1.png" id="image3323" x="60" y="-80" />
        <image y="-140" x="220" id="image3325" xlink:href="file:///D:/Lunohod/Grfx/design/railway/railwayHor1.png" height="40" width="40" transform="matrix(0,1,-1,0,0,0)" />
        <image transform="matrix(0,1,-1,0,0,0)" width="40" height="40" xlink:href="file:///D:/Lunohod/Grfx/design/railway/railwayHor1.png" id="image3327" x="180" y="-140" />
        <image y="-140" x="140" id="image3329" xlink:href="file:///D:/Lunohod/Grfx/design/railway/railwayHor1.png" height="40" width="40" transform="matrix(0,1,-1,0,0,0)" />
        <image transform="matrix(0,1,-1,0,0,0)" width="40" height="40" xlink:href="file:///D:/Lunohod/Grfx/design/railway/railwayHor1.png" id="image3331" x="100" y="-140" />
        <image y="-140" x="60" id="image3333" xlink:href="file:///D:/Lunohod/Grfx/design/railway/railwayHor1.png" height="40" width="40" transform="matrix(0,1,-1,0,0,0)" />
        <image transform="matrix(0,1,-1,0,0,0)" width="40" height="40" xlink:href="file:///D:/Lunohod/Grfx/design/railway/railwayHor1.png" id="image3335" x="220" y="-200" />
        <image y="-200" x="180" id="image3337" xlink:href="file:///D:/Lunohod/Grfx/design/railway/railwayHor1.png" height="40" width="40" transform="matrix(0,1,-1,0,0,0)" />
        <image transform="matrix(0,1,-1,0,0,0)" width="40" height="40" xlink:href="file:///D:/Lunohod/Grfx/design/railway/railwayHor1.png" id="image3343" x="60" y="-200" />
        <image y="-260" x="220" id="image3345" xlink:href="file:///D:/Lunohod/Grfx/design/railway/railwayHor1.png" height="40" width="40" transform="matrix(0,1,-1,0,0,0)" />
        <image transform="matrix(0,1,-1,0,0,0)" width="40" height="40" xlink:href="file:///D:/Lunohod/Grfx/design/railway/railwayHor1.png" id="image3347" x="180" y="-260" />
        <image y="-260" x="140" id="image3349" xlink:href="file:///D:/Lunohod/Grfx/design/railway/railwayHor1.png" height="40" width="40" transform="matrix(0,1,-1,0,0,0)" />
        <image transform="matrix(0,1,-1,0,0,0)" width="40" height="40" xlink:href="file:///D:/Lunohod/Grfx/design/railway/railwayHor1.png" id="image3351" x="100" y="-260" />
        <image y="-260" x="60" id="image3353" xlink:href="file:///D:/Lunohod/Grfx/design/railway/railwayHor1.png" height="40" width="40" transform="matrix(0,1,-1,0,0,0)" />
        <image transform="matrix(0,1,-1,0,0,0)" width="40" height="40" xlink:href="file:///D:/Lunohod/Grfx/design/railway/railwayHor1.png" id="image3355" x="220" y="-320" />
        <image y="-320" x="180" id="image3357" xlink:href="file:///D:/Lunohod/Grfx/design/railway/railwayHor1.png" height="40" width="40" transform="matrix(0,1,-1,0,0,0)" />
        <image transform="matrix(0,1,-1,0,0,0)" width="40" height="40" xlink:href="file:///D:/Lunohod/Grfx/design/railway/railwayHor1.png" id="image3359" x="140" y="-320" />
        <image y="-320" x="100" id="image3361" xlink:href="file:///D:/Lunohod/Grfx/design/railway/railwayHor1.png" height="40" width="40" transform="matrix(0,1,-1,0,0,0)" />
        <image transform="matrix(0,1,-1,0,0,0)" width="40" height="40" xlink:href="file:///D:/Lunohod/Grfx/design/railway/railwayHor1.png" id="image3363" x="60" y="-320" />
        <image y="-380" x="220" id="image3365" xlink:href="file:///D:/Lunohod/Grfx/design/railway/railwayHor1.png" height="40" width="40" transform="matrix(0,1,-1,0,0,0)" />
        <image transform="matrix(0,1,-1,0,0,0)" width="40" height="40" xlink:href="file:///D:/Lunohod/Grfx/design/railway/railwayHor1.png" id="image3367" x="180" y="-380" />
        <image y="-380" x="140" id="image3369" xlink:href="file:///D:/Lunohod/Grfx/design/railway/railwayHor1.png" height="40" width="40" transform="matrix(0,1,-1,0,0,0)" />
        <image transform="matrix(0,1,-1,0,0,0)" width="40" height="40" xlink:href="file:///D:/Lunohod/Grfx/design/railway/railwayHor1.png" id="image3371" x="100" y="-380" />
        <image y="-380" x="60" id="image3373" xlink:href="file:///D:/Lunohod/Grfx/design/railway/railwayHor1.png" height="40" width="40" transform="matrix(0,1,-1,0,0,0)" />
        <image transform="matrix(0,1,-1,0,0,0)" width="40" height="40" xlink:href="file:///D:/Lunohod/Grfx/design/railway/railwayHor1.png" id="image3375" x="220" y="-440" />
        <image y="-440" x="100" id="image3381" xlink:href="file:///D:/Lunohod/Grfx/design/railway/railwayHor1.png" height="40" width="40" transform="matrix(0,1,-1,0,0,0)" />
        <image transform="matrix(0,1,-1,0,0,0)" width="40" height="40" xlink:href="file:///D:/Lunohod/Grfx/design/railway/railwayHor1.png" id="image3383" x="60" y="-440" />
        <image transform="matrix(0,1,-1,0,0,0)" width="40" height="40" xlink:href="file:///D:/Lunohod/Grfx/design/railway/railwayHor1.png" id="image3389" x="300" y="-80" />
        <image y="-80" x="140" id="image3399" xlink:href="file:///D:/Lunohod/Grfx/design/railway/railwayHor6.png" height="40" width="40" transform="matrix(0,1,-1,0,0,0)" />
        <image y="-440" x="140" id="image3410" xlink:href="file:///D:/Lunohod/Grfx/design/railway/railwayHor7.png" height="40" width="40" transform="matrix(0,1,-1,0,0,0)" />
        <image y="-440" x="180" id="image3421" xlink:href="file:///D:/Lunohod/Grfx/design/railway/railwayHor8.png" height="40" width="40" transform="matrix(0,1,-1,0,0,0)" />
        <image y="-200" x="140" id="image3432" xlink:href="file:///D:/Lunohod/Grfx/design/railway/railwayHor2.png" height="40" width="40" transform="matrix(0,1,-1,0,0,0)" />
        <image y="-80" x="180" id="image3443" xlink:href="file:///D:/Lunohod/Grfx/design/railway/railwayHor3.png" height="40" width="40" transform="matrix(0,1,-1,0,0,0)" />
        <image transform="matrix(0,1,-1,0,0,0)" width="40" height="40" xlink:href="file:///D:/Lunohod/Grfx/design/railway/railwayHor2.png" id="image3446" x="100" y="-200" />
        <image y="20" x="400" id="image3432-4" xlink:href="file:///D:/Lunohod/Grfx/design/railway/railway_end_vertic.png" height="40" width="40" inkscape:label="Flip:Vert" />
    </g>
    <g inkscape:groupmode="layer" id="layer2" inkscape:label="enemies" style="display:inline" sodipodi:insensitive="true">
        <image y="53" x="80" id="image3151" xlink:href="file:///D:/Lunohod/Grfx/objects/visible/EnemyRat4/EnemyRat4_Dimensions.png" height="21" width="18" />
        <image width="18" height="21" xlink:href="file:///D:/Lunohod/Grfx/objects/visible/EnemyRat4/EnemyRat4_Dimensions.png" id="image3154" x="200" y="53" />
        <image y="53" x="320" id="image3156" xlink:href="file:///D:/Lunohod/Grfx/objects/visible/EnemyRat4/EnemyRat4_Dimensions.png" height="21" width="18" />
        <image width="18" height="21" xlink:href="file:///D:/Lunohod/Grfx/objects/visible/EnemyRat4/EnemyRat4_Dimensions.png" id="image3158" x="380" y="249" />
        <image y="249" x="260" id="image3160" xlink:href="file:///D:/Lunohod/Grfx/objects/visible/EnemyRat4/EnemyRat4_Dimensions.png" height="21" width="18" />
        <image width="18" height="21" xlink:href="file:///D:/Lunohod/Grfx/objects/visible/EnemyRat4/EnemyRat4_Dimensions.png" id="image3162" x="140" y="249" />
    </g>
    <g inkscape:groupmode="layer" id="layer3" inkscape:label="food" style="display:inline" sodipodi:insensitive="true">
        <image width="31" height="20" xlink:href="file:///D:/Lunohod/Grfx/objects/visible/Food/fishType03.png" id="image3131" x="37.522846" y="98.666077" />
        <image y="202.43936" x="98.877853" id="image3106" xlink:href="file:///D:/Lunohod/Grfx/objects/visible/Food/fishType03.png" height="20" width="31" />
        <image width="27" height="20" xlink:href="file:///D:/Lunohod/Grfx/objects/visible/Food/fishType05.png" id="image3135" x="277.36819" y="97.151146" />
        <image width="27" height="20" xlink:href="file:///D:/Lunohod/Grfx/objects/visible/Food/fishType05.png" id="image3172" x="336.45081" y="199.4095" />
        <image y="63.822506" x="389.47366" id="image3117" xlink:href="file:///D:/Lunohod/Grfx/objects/visible/Food/fishType05.png" height="20" width="27" />
        <image y="100.68102" x="155.67311" id="image3170" xlink:href="file:///D:/Lunohod/Grfx/objects/visible/Food/fishType02.png" height="19" width="28" />
        <image width="28" height="19" xlink:href="file:///D:/Lunohod/Grfx/objects/visible/Food/fishType02.png" id="image3133" x="424.57471" y="105.98331" />
        <image y="200.66696" x="217.02811" id="image3128" xlink:href="file:///D:/Lunohod/Grfx/objects/visible/Food/fishType02.png" height="19" width="28" />
        <image y="77.759224" x="405.91034" id="image3145" xlink:href="file:///D:/Lunohod/Grfx/objects/visible/Food/fishType07.png" height="30" width="32" />
        <image y="105.48331" x="391.26099" id="image3167" xlink:href="file:///D:/Lunohod/Grfx/objects/visible/Food/fishType03.png" height="20" width="31" />
        <image y="62.065025" x="424.57471" id="image3182" xlink:href="file:///D:/Lunohod/Grfx/objects/visible/Food/fishType04.png" height="22" width="28" />
    </g>
    <g inkscape:groupmode="layer" id="layer10" inkscape:label="way" sodipodi:insensitive="true" style="display:inline">
        <image y="17" x="44" id="image3275" xlink:href="file:///D:/Lunohod/Grfx/objects/unvisible/Moving/up.png" height="264" width="4" />
        <image y="16.999992" x="44" id="image3264" xlink:href="file:///D:/Lunohod/Grfx/objects/unvisible/Moving/right.png" height="4" width="60" />
        <image y="16.999992" x="104" id="image3253" xlink:href="file:///D:/Lunohod/Grfx/objects/unvisible/Moving/down.png" height="264" width="4" />
        <image width="60" height="4" xlink:href="file:///D:/Lunohod/Grfx/objects/unvisible/Moving/right.png" id="image3278" x="104" y="281" />
        <image width="4" height="264" xlink:href="file:///D:/Lunohod/Grfx/objects/unvisible/Moving/up.png" id="image3284" x="164" y="17" />
        <image width="60" height="4" xlink:href="file:///D:/Lunohod/Grfx/objects/unvisible/Moving/right.png" id="image3282" x="164" y="16.999992" />
        <image width="4" height="264" xlink:href="file:///D:/Lunohod/Grfx/objects/unvisible/Moving/down.png" id="image3280" x="224" y="16.999992" />
        <image y="281" x="224" id="image3286" xlink:href="file:///D:/Lunohod/Grfx/objects/unvisible/Moving/right.png" height="4" width="60" />
        <image y="17" x="284" id="image3292" xlink:href="file:///D:/Lunohod/Grfx/objects/unvisible/Moving/up.png" height="264" width="4" />
        <image y="16.999992" x="284" id="image3290" xlink:href="file:///D:/Lunohod/Grfx/objects/unvisible/Moving/right.png" height="4" width="60" />
        <image y="16.999992" x="344" id="image3288" xlink:href="file:///D:/Lunohod/Grfx/objects/unvisible/Moving/down.png" height="264" width="4" />
        <image width="60" height="4" xlink:href="file:///D:/Lunohod/Grfx/objects/unvisible/Moving/right.png" id="image3294" x="344" y="281" />
        <image width="4" height="264" xlink:href="file:///D:/Lunohod/Grfx/objects/unvisible/Moving/up.png" id="image3300" x="404" y="17" />
    </g>
    <g inkscape:groupmode="layer" id="layer5" inkscape:label="actionTHE" style="display:inline" sodipodi:insensitive="true">
        <image y="0" x="0" id="image3038" xlink:href="file:///D:/Lunohod/Grfx/objects/visible/Tower/transmitter_2_off.png" height="30" width="30" />
        <image y="281" x="44" id="image3015" xlink:href="file:///D:/Lunohod/Grfx/objects/visible/Hero/heroDimensions.png" height="23" width="33" />
        <image y="10" x="402" id="image3049" xlink:href="file:///D:/Lunohod/Grfx/objects/visible/Exit/refrigerator.png" height="54" width="37" />
    </g>
    <g inkscape:groupmode="layer" id="layer12" inkscape:label="Foreground" sodipodi:insensitive="true">
        <image y="180.73814" x="397.48154" id="image3289" xlink:href="file:///D:/Lunohod/Grfx/design/tree/tree_03.png" height="124" width="114" />
        <image width="55" height="44" xlink:href="file:///D:/Lunohod/Grfx/design/grass/grass_07.png" id="image3448" x="-30.5" y="16" />
        <image style="display:inline" y="271" x="298.5" id="image3355-0" xlink:href="file:///D:/Lunohod/Grfx/design/grass/grass_05.png" height="44" width="55" />
        <image y="39" x="-4.5" id="image3445" xlink:href="file:///D:/Lunohod/Grfx/design/grass/grass_07.png" height="44" width="55" />
    </g>
    <g inkscape:groupmode="layer" id="layer11" inkscape:label="Semafor" sodipodi:insensitive="true">
        <image y="216.05537" x="19.660807" id="image3095" xlink:href="file:///D:/Lunohod/Grfx/objects/visible/Semafor/semafor_green.png" height="67" width="44" />
    </g>
    <g inkscape:groupmode="layer" id="layer9" inkscape:label="dash" style="opacity:0.29861109;display:none" sodipodi:insensitive="true">
        <image y="0" x="0" id="image3016" xlink:href="file:///D:/Lunohod/Art/dashboard/screenTapAreas_dash_M_btnSize52.png" height="320" width="480" />
    </g>
    <g inkscape:groupmode="layer" id="layer6" inkscape:label="upmask" sodipodi:insensitive="true" style="display:none">
        <rect style="fill:#ffffff;fill-opacity:1;fill-rule:nonzero;stroke:none" id="rect3011" width="1499.1859" height="380.14673" x="-434.48303" y="-380.14673" />
        <rect style="fill:#ffffff;fill-opacity:1;fill-rule:nonzero;stroke:none" id="rect3013" width="644.82831" height="1098.9973" x="480" y="-256.73999" />
        <rect style="fill:#ffffff;fill-opacity:1;fill-rule:nonzero;stroke:none" id="rect3015" width="1018.1825" height="736.57312" x="-257.47144" y="320" />
        <rect style="fill:#ffffff;fill-opacity:1;fill-rule:nonzero;stroke:none" id="rect3017" width="663.5741" height="1133.1669" x="-663.5741" y="-333.33374" />
    </g>
</svg>
