<?xml version="1.0" encoding="UTF-8" standalone="no"?>
<!-- Created with Inkscape (http://www.inkscape.org/) -->

<svg xmlns:dc="http://purl.org/dc/elements/1.1/" xmlns:cc="http://creativecommons.org/ns#" xmlns:rdf="http://www.w3.org/1999/02/22-rdf-syntax-ns#" xmlns:svg="http://www.w3.org/2000/svg" xmlns="http://www.w3.org/2000/svg" xmlns:xlink="http://www.w3.org/1999/xlink" xmlns:sodipodi="http://sodipodi.sourceforge.net/DTD/sodipodi-0.dtd" xmlns:inkscape="http://www.inkscape.org/namespaces/inkscape" width="480" height="320" id="svg2" version="1.1" inkscape:version="0.48.1 " sodipodi:docname="Lvl_Poezd_Rozha.svg" style="display:inline" inkscape:export-filename="D:\Lunohod\Levels\Lvl_Poezd_Rozha\Lvl_Poezd_Rozha.png" inkscape:export-xdpi="90" inkscape:export-ydpi="90">
    <defs id="defs4" />
    <sodipodi:namedview id="base" pagecolor="#ffffff" bordercolor="#666666" borderopacity="1.0" inkscape:pageopacity="0.0" inkscape:pageshadow="2" inkscape:zoom="1.1" inkscape:cx="199.71367" inkscape:cy="159.19074" inkscape:document-units="px" inkscape:current-layer="layer3" showgrid="false" width="480px" inkscape:showpageshadow="false" inkscape:window-width="1280" inkscape:window-height="744" inkscape:window-x="-4" inkscape:window-y="-4" inkscape:window-maximized="1" showguides="false" inkscape:guide-bbox="true">
        <sodipodi:guide orientation="0,1" position="320,256" id="guide3018" />
        <sodipodi:guide orientation="0,1" position="160,64" id="guide3020" />
        <sodipodi:guide orientation="1,0" position="400,192" id="guide3022" />
        <sodipodi:guide orientation="1,0" position="80,128" id="guide3024" />
        <sodipodi:guide orientation="0,1" position="240,160" id="guide3005" />
        <sodipodi:guide orientation="1,0" position="240,160" id="guide3007" />
        <sodipodi:guide orientation="1,0" position="0,160" id="guide3072" />
        <sodipodi:guide orientation="1,0" position="480,160" id="guide3074" />
        <sodipodi:guide orientation="0,1" position="240,320" id="guide3076" />
        <sodipodi:guide orientation="0,1" position="240,0" id="guide3078" />
        <inkscape:grid type="xygrid" id="grid3023" />
    </sodipodi:namedview>
    <metadata id="metadata7">
        <rdf:RDF>
            <cc:Work rdf:about="">
                <dc:format>image/svg+xml</dc:format>
                <dc:type rdf:resource="http://purl.org/dc/dcmitype/StillImage" />
                <dc:title></dc:title>
            </cc:Work>
        </rdf:RDF>
    </metadata>
    <g inkscape:groupmode="layer" id="layer1" inkscape:label="background" style="display:inline" sodipodi:insensitive="true">
        <image y="0" x="0" id="image3108" xlink:href="file:///D:/Lunohod/Grfx/design/backgrounds/level_BG.png" height="320" width="480" />
    </g>
    <g inkscape:groupmode="layer" id="layer7" inkscape:label="secondbckg" style="display:inline" sodipodi:insensitive="true">
        <image y="194.27774" x="100.85491" id="image3280" xlink:href="file:///D:/Lunohod/Grfx/design/hill/hill_03.png" height="30.980194" width="91.342339" />
        <image y="169.0854" x="-46.977394" id="image3256-7" xlink:href="file:///D:/Lunohod/Grfx/design/hill/hill_03.png" height="28.603308" width="78.135857" />
        <image y="279.64462" x="190.43387" id="image3267" xlink:href="file:///D:/Lunohod/Grfx/design/hill/hill_01.png" height="46" width="115" />
        <image y="288.72726" x="405.7438" id="image3291" xlink:href="file:///D:/Lunohod/Grfx/design/stone/stone_01.png" height="8" width="10" />
        <image y="231.79338" x="443.52478" id="image3313-4" xlink:href="file:///D:/Lunohod/Grfx/design/stone/stone_07.png" height="26" width="27" />
        <image y="299.12396" x="423.90497" id="image3324" xlink:href="file:///D:/Lunohod/Grfx/design/stone/stone_brown_01.png" height="12" width="15" />
        <image y="245.63448" x="461.44922" id="image3335" xlink:href="file:///D:/Lunohod/Grfx/design/stone/stone_brown_03.png" height="16" width="15" />
        <image y="273.96057" x="455.60941" id="image3425" xlink:href="file:///D:/Lunohod/Grfx/design/stone/stone_06.png" height="47" width="45" />
        <image y="304.16986" x="442.02094" id="image3436" xlink:href="file:///D:/Lunohod/Grfx/design/stone/stone_05.png" height="18" width="23" />
        <image width="10" height="8" xlink:href="file:///D:/Lunohod/Grfx/design/stone/stone_01.png" id="image3450" x="402.07602" y="311.2189" />
        <image y="208.08389" x="472.42639" id="image3447" xlink:href="file:///D:/Lunohod/Grfx/design/stone/stone_01.png" height="8" width="10" />
        <image width="32" height="27" xlink:href="file:///D:/Lunohod/Grfx/design/grass/grass_02.png" id="image3575" x="304.96729" y="217.731" />
        <image width="21" height="20" xlink:href="file:///D:/Lunohod/Grfx/design/grass/grass_03.png" id="image3696" x="78.219963" y="289.09451" />
        <image y="231.09451" x="5.2199631" id="image3561" xlink:href="file:///D:/Lunohod/Grfx/design/grass/grass_03.png" height="20" width="21" />
        <image y="297.97369" x="135.812" id="image3572" xlink:href="file:///D:/Lunohod/Grfx/design/grass/grass_04.png" height="14" width="33" />
        <image y="-0.5" x="269" id="image3638" xlink:href="file:///D:/Lunohod/Grfx/design/grass/grass_02.png" height="27" width="32" />
        <image y="-4" x="63.5" id="image3649" xlink:href="file:///D:/Lunohod/Grfx/design/grass/grass_03.png" height="20" width="21" />
        <image y="74" x="268.5" id="image3660" xlink:href="file:///D:/Lunohod/Grfx/design/grass/grass_04.png" height="14" width="33" />
        <image y="251" x="9.5" id="image3693" xlink:href="file:///D:/Lunohod/Grfx/design/grass/grass_05.png" height="44" width="55" />
    </g>
    <g inkscape:groupmode="layer" id="layer8" inkscape:label="design" style="display:inline" sodipodi:insensitive="true">
        <image y="-410" x="180" id="image3087" xlink:href="file:///D:/Lunohod/Grfx/design/railway/railwayHor1.png" height="40" width="40" transform="matrix(0,1,-1,0,0,0)" />
        <image y="-200" x="-390" id="image3103" xlink:href="file:///D:/Lunohod/Grfx/design/railway/railwayTurn90a.png" height="80" width="80" transform="scale(-1,-1)" />
        <image y="-470" x="120" id="image3114" xlink:href="file:///D:/Lunohod/Grfx/design/railway/railwayTurn90a.png" height="80" width="80" transform="matrix(0,1,-1,0,0,0)" />
        <image y="20" x="390" id="image3129" xlink:href="file:///D:/Lunohod/Grfx/design/railway/railwayTurn90a.png" height="80" width="80" />
        <image y="20" x="350" id="image3140" xlink:href="file:///D:/Lunohod/Grfx/design/railway/railwayHor1.png" height="40" width="40" />
        <image width="40" height="40" xlink:href="file:///D:/Lunohod/Grfx/design/railway/railwayHor1.png" id="image3143" x="310" y="20" />
        <image y="20" x="270" id="image3145" xlink:href="file:///D:/Lunohod/Grfx/design/railway/railwayHor1.png" height="40" width="40" />
        <image width="40" height="40" xlink:href="file:///D:/Lunohod/Grfx/design/railway/railwayHor1.png" id="image3147" x="230" y="20" />
        <image y="20" x="190" id="image3149" xlink:href="file:///D:/Lunohod/Grfx/design/railway/railwayHor1.png" height="40" width="40" />
        <image width="40" height="40" xlink:href="file:///D:/Lunohod/Grfx/design/railway/railwayHor1.png" id="image3196" x="150" y="20" />
        <image y="20" x="10" id="image3215" xlink:href="file:///D:/Lunohod/Grfx/design/railway/railwayTurn90b.png" height="80" width="80" />
        <image width="40" height="40" xlink:href="file:///D:/Lunohod/Grfx/design/railway/railwayHor1.png" id="image3218" x="90" y="20" />
        <image y="-200" x="-90" id="image3228" xlink:href="file:///D:/Lunohod/Grfx/design/railway/railwayTurn90a.png" height="80" width="80" transform="scale(-1,-1)" />
        <image transform="matrix(0,1,-1,0,0,0)" width="80" height="80" xlink:href="file:///D:/Lunohod/Grfx/design/railway/railwayTurn90a.png" id="image3232" x="120" y="-170" />
        <image y="-170" x="60" id="image3234" xlink:href="file:///D:/Lunohod/Grfx/design/railway/railwayTurn180b.png" height="100" width="60" transform="matrix(0,1,-1,0,0,0)" />
        <image y="-110" x="120" id="image3236" xlink:href="file:///D:/Lunohod/Grfx/design/railway/railwayHor1.png" height="40" width="40" transform="matrix(0,1,-1,0,0,0)" />
        <image transform="matrix(0,1,-1,0,0,0)" width="40" height="40" xlink:href="file:///D:/Lunohod/Grfx/design/railway/railwayHor1.png" id="image3240" x="180" y="-110" />
        <image transform="scale(-1,-1)" width="80" height="80" xlink:href="file:///D:/Lunohod/Grfx/design/railway/railwayTurn90a.png" id="image3246" x="-150" y="-300" />
        <image transform="matrix(0,1,-1,0,0,0)" width="80" height="80" xlink:href="file:///D:/Lunohod/Grfx/design/railway/railwayTurn90a.png" id="image3248" x="220" y="-410" />
        <image y="-230" x="220" id="image3250" xlink:href="file:///D:/Lunohod/Grfx/design/railway/railwayTurn90a.png" height="80" width="80" transform="matrix(0,1,-1,0,0,0)" />
        <image transform="scale(-1,-1)" width="80" height="80" xlink:href="file:///D:/Lunohod/Grfx/design/railway/railwayTurn90a.png" id="image3252" x="-330" y="-300" />
        <image y="-230" x="180" id="image3254" xlink:href="file:///D:/Lunohod/Grfx/design/railway/railwayHor1.png" height="40" width="40" transform="matrix(0,1,-1,0,0,0)" />
        <image transform="matrix(0,1,-1,0,0,0)" width="40" height="40" xlink:href="file:///D:/Lunohod/Grfx/design/railway/railwayHor1.png" id="image3256" x="180" y="-290" />
        <image y="160" x="70" id="image3275-1" xlink:href="file:///D:/Lunohod/Grfx/design/railway/railwayCross.png" height="40" width="40" />
        <image width="40" height="40" xlink:href="file:///D:/Lunohod/Grfx/design/railway/railwayCross.png" id="image3279" x="370" y="160" />
        <image transform="matrix(0,1,-1,0,0,0)" width="60" height="100" xlink:href="file:///D:/Lunohod/Grfx/design/railway/railwayTurn180b.png" id="image3093" x="60" y="-410" />
        <image transform="matrix(0,1,-1,0,0,0)" width="40" height="40" xlink:href="file:///D:/Lunohod/Grfx/design/railway/railwayHor1.png" id="image3110" x="100" y="-470" />
        <image y="-50" x="100" id="image3112" xlink:href="file:///D:/Lunohod/Grfx/design/railway/railwayHor1.png" height="40" width="40" transform="matrix(0,1,-1,0,0,0)" />
        <image transform="matrix(0,1,-1,0,0,0)" width="40" height="40" xlink:href="file:///D:/Lunohod/Grfx/design/railway/railwayHor1.png" id="image3115" x="120" y="-410" />
        <image y="-290" x="80" id="image3184" xlink:href="file:///D:/Lunohod/Grfx/design/railway/railwayTurn180b.png" height="100" width="60" transform="matrix(0,1,-1,0,0,0)" />
        <image y="-290" x="140" id="image3186" xlink:href="file:///D:/Lunohod/Grfx/design/railway/railwayHor1.png" height="40" width="40" transform="matrix(0,1,-1,0,0,0)" />
        <image transform="matrix(0,1,-1,0,0,0)" width="40" height="40" xlink:href="file:///D:/Lunohod/Grfx/design/railway/railwayHor1.png" id="image3188" x="140" y="-230" />
        <image y="20" x="130" id="image3192" xlink:href="file:///D:/Lunohod/Grfx/design/railway/railwayHor1.png" height="40" width="40" />
    </g>
    <g inkscape:groupmode="layer" id="layer2" inkscape:label="enemies" style="display:inline" sodipodi:insensitive="true">
        <image width="18" height="21" xlink:href="file:///D:/Lunohod/Grfx/objects/visible/EnemyRat4/EnemyRat4_Dimensions.png" id="image3244" x="392.03278" y="37.77594" />
        <image width="18" height="21" xlink:href="file:///D:/Lunohod/Grfx/objects/visible/EnemyRat4/EnemyRat4_Dimensions.png" id="image3247" x="109.91985" y="124.62476" />
        <image width="18" height="21" xlink:href="file:///D:/Lunohod/Grfx/objects/visible/EnemyRat4/EnemyRat4_Dimensions.png" id="image3146" x="350.64847" y="121.12749" />
        <image y="232.30875" x="342.3898" id="image3251" xlink:href="file:///D:/Lunohod/Grfx/objects/visible/EnemyRat3/EnemyRat3_Dimensions.png" height="25" width="24" />
        <image width="24" height="25" xlink:href="file:///D:/Lunohod/Grfx/objects/visible/EnemyRat3/EnemyRat3_Dimensions.png" id="image3197" x="159.36612" y="231.14299" />
        <image y="261.86978" x="208.74503" id="image3201" xlink:href="file:///D:/Lunohod/Grfx/objects/visible/EnemyRat2/EnemyRat2_Dimensions.png" height="23" width="22" />
        <image y="132.47086" x="409.25504" id="image3203" xlink:href="file:///D:/Lunohod/Grfx/objects/visible/EnemyRat2/EnemyRat2_Dimensions.png" height="23" width="22" />
        <image width="22" height="23" xlink:href="file:///D:/Lunohod/Grfx/objects/visible/EnemyRat2/EnemyRat2_Dimensions.png" id="image3182" x="49.619335" y="133.63661" />
    </g>
    <g inkscape:groupmode="layer" id="layer4" inkscape:label="blocks" style="display:inline" sodipodi:insensitive="true">
        <image width="30" height="30" xlink:href="file:///D:/Lunohod/Grfx/objects/visible/Wall/WoodenBox/box_old_1.png" id="image3259" x="320.87613" y="15.400739" />
        <image y="161.12022" x="419.96539" id="image3257" xlink:href="file:///D:/Lunohod/Grfx/objects/visible/Wall/WoodenBox/box_old_1.png" height="30" width="30" />
        <image width="30" height="30" xlink:href="file:///D:/Lunohod/Grfx/objects/visible/Wall/WoodenBox/box_old_1.png" id="image3134" x="74.318756" y="207.75046" />
        <image y="32.834232" x="355.1275" id="image3229" xlink:href="file:///D:/Lunohod/Grfx/objects/visible/Wall/WoodenBox/box_old_2.png" height="30" width="30" />
        <image width="30" height="30" xlink:href="file:///D:/Lunohod/Grfx/objects/visible/Wall/WoodenBox/box_old_2.png" id="image3117" x="204.74496" y="229.26413" />
    </g>
    <g inkscape:groupmode="layer" id="layer3" inkscape:label="food" style="display:inline" sodipodi:insensitive="true">
        <image width="28" height="22" xlink:href="file:///D:/Lunohod/Grfx/objects/visible/Food/fishType04.png" id="image3148" x="321.5372" y="77.595039" />
        <image width="28" height="22" xlink:href="file:///D:/Lunohod/Grfx/objects/visible/Food/fishType04.png" id="image3150" x="347.15704" y="64.371895" />
        <image y="77.595039" x="374.42975" id="image3142" xlink:href="file:///D:/Lunohod/Grfx/objects/visible/Food/fishType04.png" height="22" width="28" />
        <image width="27" height="20" xlink:href="file:///D:/Lunohod/Grfx/objects/visible/Food/fishType05.png" id="image3163" x="210.46693" y="36.446281" />
        <image width="27" height="20" xlink:href="file:///D:/Lunohod/Grfx/objects/visible/Food/fishType05.png" id="image3165" x="225.34297" y="21.570248" />
        <image y="38.099174" x="241.04544" id="image3160" xlink:href="file:///D:/Lunohod/Grfx/objects/visible/Food/fishType05.png" height="20" width="27" />
        <image width="28" height="19" xlink:href="file:///D:/Lunohod/Grfx/objects/visible/Food/fishType02.png" id="image3178" x="81.867767" y="77.442146" />
        <image width="28" height="19" xlink:href="file:///D:/Lunohod/Grfx/objects/visible/Food/fishType02.png" id="image3180" x="107.4876" y="63.392563" />
        <image y="76.6157" x="134.76033" id="image3175" xlink:href="file:///D:/Lunohod/Grfx/objects/visible/Food/fishType02.png" height="19" width="28" />
        <image width="27" height="20" xlink:href="file:///D:/Lunohod/Grfx/objects/visible/Food/fishType05.png" id="image3204" x="254.2686" y="173.63637" />
        <image width="27" height="20" xlink:href="file:///D:/Lunohod/Grfx/objects/visible/Food/fishType05.png" id="image3206" x="254.2686" y="200.9091" />
        <image y="226.52893" x="255.09505" id="image3201-1" xlink:href="file:///D:/Lunohod/Grfx/objects/visible/Food/fishType05.png" height="20" width="27" />
        <image style="display:inline" y="20.376034" x="20.842976" id="image3216" xlink:href="file:///D:/Lunohod/Grfx/objects/visible/Food/fishType01.png" height="21" width="32" />
        <image width="32" height="21" xlink:href="file:///D:/Lunohod/Grfx/objects/visible/Food/fishType01.png" id="image3698" x="426.84296" y="20.376034" style="display:inline" />
    </g>
    <g inkscape:groupmode="layer" id="layer10" inkscape:label="way" style="display:inline" sodipodi:insensitive="true">
        <image y="128" x="254" id="image3253" xlink:href="file:///D:/Lunohod/Grfx/objects/unvisible/Moving/down.png" height="140" width="4" />
        <image width="120" height="4" xlink:href="file:///D:/Lunohod/Grfx/objects/unvisible/Moving/right.png" id="image3282" x="254" y="268" />
        <image width="4" height="194" xlink:href="file:///D:/Lunohod/Grfx/objects/unvisible/Moving/up.png" id="image3300" x="374" y="74" />
        <image y="74" x="314" id="image3293" xlink:href="file:///D:/Lunohod/Grfx/objects/unvisible/Moving/left.png" height="4" width="60" />
        <image width="4" height="94" xlink:href="file:///D:/Lunohod/Grfx/objects/unvisible/Moving/down.png" id="image3296" x="314" y="74" />
        <image y="168" x="314" id="image3298" xlink:href="file:///D:/Lunohod/Grfx/objects/unvisible/Moving/right.png" height="4" width="120" />
        <image y="28" x="434" id="image3301" xlink:href="file:///D:/Lunohod/Grfx/objects/unvisible/Moving/up.png" height="140" width="4" />
        <image width="420" height="4" xlink:href="file:///D:/Lunohod/Grfx/objects/unvisible/Moving/left.png" id="image3303" x="14" y="28" />
        <image width="4" height="140" xlink:href="file:///D:/Lunohod/Grfx/objects/unvisible/Moving/down.png" id="image3305" x="14" y="28" />
        <image width="120" height="4" xlink:href="file:///D:/Lunohod/Grfx/objects/unvisible/Moving/right.png" id="image3307" x="14" y="168" />
        <image y="74" x="134" id="image3309" xlink:href="file:///D:/Lunohod/Grfx/objects/unvisible/Moving/up.png" height="94" width="4" />
        <image width="60" height="4" xlink:href="file:///D:/Lunohod/Grfx/objects/unvisible/Moving/left.png" id="image3311" x="74" y="74" />
        <image y="74" x="74" id="image3313" xlink:href="file:///D:/Lunohod/Grfx/objects/unvisible/Moving/down.png" height="194" width="4" />
        <image y="268" x="74" id="image3315" xlink:href="file:///D:/Lunohod/Grfx/objects/unvisible/Moving/right.png" height="4" width="120" />
        <image y="98.000008" x="194" id="image3317" xlink:href="file:///D:/Lunohod/Grfx/objects/unvisible/Moving/up.png" height="170" width="4" />
        <image y="98.000008" x="194" id="image3319" xlink:href="file:///D:/Lunohod/Grfx/objects/unvisible/Moving/right.png" height="4" width="35.217751" />
    </g>
    <g inkscape:groupmode="layer" id="layer5" inkscape:label="actionTHE" style="display:inline" sodipodi:insensitive="true">
        <image y="0" x="0" id="image3038" xlink:href="file:///D:/Lunohod/Grfx/objects/visible/Tower/transmitter_2_off.png" height="30" width="30" />
        <image y="128" x="254" id="image3015" xlink:href="file:///D:/Lunohod/Grfx/objects/visible/Hero/heroDimensions.png" height="23" width="33" />
        <image y="61.876148" x="221.30783" id="image3049" xlink:href="file:///D:/Lunohod/Grfx/objects/visible/Exit/refrigerator.png" height="54" width="37" />
    </g>
    <g inkscape:groupmode="layer" id="layer12" inkscape:label="Foreground" sodipodi:insensitive="true">
        <image y="32.301651" x="173.88843" id="image3131" xlink:href="file:///D:/Lunohod/Grfx/design/box_strip/box_strip_01.png" height="63" width="39" />
        <image style="display:inline" y="284.98505" x="371.82248" id="image3346" xlink:href="file:///D:/Lunohod/Grfx/design/column/column_03n.png" height="27" width="14" />
        <image style="display:inline" y="240.45522" x="411.25427" id="image3357" xlink:href="file:///D:/Lunohod/Grfx/design/column/column_01n.png" height="30" width="13" />
        <image style="display:inline" y="207.12157" x="440.3559" id="image3368" xlink:href="file:///D:/Lunohod/Grfx/design/column/column_02n.png" height="27" width="15" />
        <image width="13" height="30" xlink:href="file:///D:/Lunohod/Grfx/design/column/column_01n.png" id="image3395" x="466.67645" y="170.78784" style="display:inline" />
        <image width="15" height="27" xlink:href="file:///D:/Lunohod/Grfx/design/column/column_02n.png" id="image3397" x="335.80579" y="313.67166" style="display:inline" />
        <image style="display:inline" y="259.90796" x="418.24945" id="image3302" xlink:href="file:///D:/Lunohod/Grfx/design/stone/stone_02.png" height="15" width="20" />
        <image width="32" height="27" xlink:href="file:///D:/Lunohod/Grfx/design/grass/grass_02.png" id="image3595" x="458.59625" y="303.30383" style="display:inline" />
        <image style="display:inline" y="263.5192" x="418.3475" id="image3550" xlink:href="file:///D:/Lunohod/Grfx/design/grass/grass_02.png" height="27" width="32" />
        <image y="297.02274" x="367.88943" id="image3605" xlink:href="file:///D:/Lunohod/Grfx/design/grass/grass_03.png" height="20" width="21" />
        <image y="189.05757" x="451.7793" id="image3616" xlink:href="file:///D:/Lunohod/Grfx/design/grass/grass_04.png" height="14" width="33" />
    </g>
    <g inkscape:groupmode="layer" id="layer11" inkscape:label="Semafor" sodipodi:insensitive="true" style="display:inline">
        <image y="145.5" x="232" id="image3097" xlink:href="file:///D:/Lunohod/Grfx/objects/visible/Semafor/semafor_green.png" height="67" width="44" />
    </g>
    <g inkscape:groupmode="layer" id="layer9" inkscape:label="dash" style="opacity:0.29861109;display:none" sodipodi:insensitive="true">
        <image y="0" x="0" id="image3016" xlink:href="file:///D:/Lunohod/Art/dashboard/screenTapAreas_dash_M_btnSize52.png" height="320" width="480" />
    </g>
    <g inkscape:groupmode="layer" id="layer6" inkscape:label="upmask" sodipodi:insensitive="true" style="display:none">
        <rect style="fill:#ffffff;fill-opacity:1;fill-rule:nonzero;stroke:none" id="rect3011" width="1499.1859" height="380.14673" x="-434.48303" y="-380.14673" />
        <rect style="fill:#ffffff;fill-opacity:1;fill-rule:nonzero;stroke:none" id="rect3013" width="644.82831" height="1098.9973" x="480" y="-256.73999" />
        <rect style="fill:#ffffff;fill-opacity:1;fill-rule:nonzero;stroke:none" id="rect3015" width="1018.1825" height="736.57312" x="-257.47144" y="320" />
        <rect style="fill:#ffffff;fill-opacity:1;fill-rule:nonzero;stroke:none" id="rect3017" width="663.5741" height="1133.1669" x="-663.5741" y="-333.33374" />
    </g>
</svg>
