<?xml version="1.0" encoding="UTF-8" standalone="no"?>
<!-- Created with Inkscape (http://www.inkscape.org/) -->

<svg xmlns:dc="http://purl.org/dc/elements/1.1/" xmlns:cc="http://creativecommons.org/ns#" xmlns:rdf="http://www.w3.org/1999/02/22-rdf-syntax-ns#" xmlns:svg="http://www.w3.org/2000/svg" xmlns="http://www.w3.org/2000/svg" xmlns:xlink="http://www.w3.org/1999/xlink" xmlns:sodipodi="http://sodipodi.sourceforge.net/DTD/sodipodi-0.dtd" xmlns:inkscape="http://www.inkscape.org/namespaces/inkscape" width="480" height="320" id="svg2" version="1.1" inkscape:version="0.48.1 " sodipodi:docname="Lvl_Poezd_Rozha.svg" style="display:inline" inkscape:export-filename="D:\Lunohod\Levels\Lvl_Poezd_Rozha\Lvl_Poezd_Rozha.png" inkscape:export-xdpi="90" inkscape:export-ydpi="90">
    <defs id="defs4" />
    <sodipodi:namedview id="base" pagecolor="#ffffff" bordercolor="#666666" borderopacity="1.0" inkscape:pageopacity="0.0" inkscape:pageshadow="2" inkscape:zoom="1" inkscape:cx="165.03432" inkscape:cy="155.67021" inkscape:document-units="px" inkscape:current-layer="layer2" showgrid="false" width="480px" inkscape:showpageshadow="false" inkscape:window-width="1280" inkscape:window-height="744" inkscape:window-x="-4" inkscape:window-y="-4" inkscape:window-maximized="1" showguides="false" inkscape:guide-bbox="true">
        <sodipodi:guide orientation="0,1" position="320,256" id="guide3018" />
        <sodipodi:guide orientation="0,1" position="160,64" id="guide3020" />
        <sodipodi:guide orientation="1,0" position="400,192" id="guide3022" />
        <sodipodi:guide orientation="1,0" position="80,128" id="guide3024" />
        <sodipodi:guide orientation="0,1" position="240,160" id="guide3005" />
        <sodipodi:guide orientation="1,0" position="240,160" id="guide3007" />
        <sodipodi:guide orientation="1,0" position="0,160" id="guide3072" />
        <sodipodi:guide orientation="1,0" position="480,160" id="guide3074" />
        <sodipodi:guide orientation="0,1" position="240,320" id="guide3076" />
        <sodipodi:guide orientation="0,1" position="240,0" id="guide3078" />
        <inkscape:grid type="xygrid" id="grid3023" />
    </sodipodi:namedview>
    <metadata id="metadata7">
        <rdf:RDF>
            <cc:Work rdf:about="">
                <dc:format>image/svg+xml</dc:format>
                <dc:type rdf:resource="http://purl.org/dc/dcmitype/StillImage" />
                <dc:title></dc:title>
            </cc:Work>
        </rdf:RDF>
    </metadata>
    <g inkscape:groupmode="layer" id="layer1" inkscape:label="background" style="display:inline" sodipodi:insensitive="true">
        <image y="0" x="0" id="image3241" xlink:href="file:///D:/Lunohod/Grfx/design/backgrounds/backg_demo.png" height="320" width="480" />
    </g>
    <g inkscape:groupmode="layer" id="layer7" inkscape:label="secondbckg" sodipodi:insensitive="true" />
    <g inkscape:groupmode="layer" id="layer8" inkscape:label="design" style="display:inline" sodipodi:insensitive="true">
        <image y="-410" x="180" id="image3087" xlink:href="file:///D:/Lunohod/Grfx/design/railway/railwayHor1.png" height="40" width="40" transform="matrix(0,1,-1,0,0,0)" />
        <image y="-200" x="-390" id="image3103" xlink:href="file:///D:/Lunohod/Grfx/design/railway/railwayTurn90a.png" height="80" width="80" transform="scale(-1,-1)" />
        <image y="-470" x="120" id="image3114" xlink:href="file:///D:/Lunohod/Grfx/design/railway/railwayTurn90a.png" height="80" width="80" transform="matrix(0,1,-1,0,0,0)" />
        <image y="20" x="390" id="image3129" xlink:href="file:///D:/Lunohod/Grfx/design/railway/railwayTurn90a.png" height="80" width="80" />
        <image y="20" x="350" id="image3140" xlink:href="file:///D:/Lunohod/Grfx/design/railway/railwayHor1.png" height="40" width="40" />
        <image width="40" height="40" xlink:href="file:///D:/Lunohod/Grfx/design/railway/railwayHor1.png" id="image3143" x="310" y="20" />
        <image y="20" x="270" id="image3145" xlink:href="file:///D:/Lunohod/Grfx/design/railway/railwayHor1.png" height="40" width="40" />
        <image width="40" height="40" xlink:href="file:///D:/Lunohod/Grfx/design/railway/railwayHor1.png" id="image3147" x="230" y="20" />
        <image y="20" x="190" id="image3149" xlink:href="file:///D:/Lunohod/Grfx/design/railway/railwayHor1.png" height="40" width="40" />
        <image width="40" height="40" xlink:href="file:///D:/Lunohod/Grfx/design/railway/railwayHor1.png" id="image3196" x="150" y="20" />
        <image y="20" x="10" id="image3215" xlink:href="file:///D:/Lunohod/Grfx/design/railway/railwayTurn90b.png" height="80" width="80" />
        <image width="40" height="40" xlink:href="file:///D:/Lunohod/Grfx/design/railway/railwayHor1.png" id="image3218" x="90" y="20" />
        <image y="-200" x="-90" id="image3228" xlink:href="file:///D:/Lunohod/Grfx/design/railway/railwayTurn90a.png" height="80" width="80" transform="scale(-1,-1)" />
        <image transform="matrix(0,1,-1,0,0,0)" width="80" height="80" xlink:href="file:///D:/Lunohod/Grfx/design/railway/railwayTurn90a.png" id="image3232" x="120" y="-170" />
        <image y="-170" x="60" id="image3234" xlink:href="file:///D:/Lunohod/Grfx/design/railway/railwayTurn180b.png" height="100" width="60" transform="matrix(0,1,-1,0,0,0)" />
        <image y="-110" x="120" id="image3236" xlink:href="file:///D:/Lunohod/Grfx/design/railway/railwayHor1.png" height="40" width="40" transform="matrix(0,1,-1,0,0,0)" />
        <image transform="matrix(0,1,-1,0,0,0)" width="40" height="40" xlink:href="file:///D:/Lunohod/Grfx/design/railway/railwayHor1.png" id="image3240" x="180" y="-110" />
        <image transform="scale(-1,-1)" width="80" height="80" xlink:href="file:///D:/Lunohod/Grfx/design/railway/railwayTurn90a.png" id="image3246" x="-150" y="-300" />
        <image transform="matrix(0,1,-1,0,0,0)" width="80" height="80" xlink:href="file:///D:/Lunohod/Grfx/design/railway/railwayTurn90a.png" id="image3248" x="220" y="-410" />
        <image y="-230" x="220" id="image3250" xlink:href="file:///D:/Lunohod/Grfx/design/railway/railwayTurn90a.png" height="80" width="80" transform="matrix(0,1,-1,0,0,0)" />
        <image transform="scale(-1,-1)" width="80" height="80" xlink:href="file:///D:/Lunohod/Grfx/design/railway/railwayTurn90a.png" id="image3252" x="-330" y="-300" />
        <image y="-230" x="180" id="image3254" xlink:href="file:///D:/Lunohod/Grfx/design/railway/railwayHor1.png" height="40" width="40" transform="matrix(0,1,-1,0,0,0)" />
        <image transform="matrix(0,1,-1,0,0,0)" width="40" height="40" xlink:href="file:///D:/Lunohod/Grfx/design/railway/railwayHor1.png" id="image3256" x="180" y="-290" />
        <image y="160" x="70" id="image3275-1" xlink:href="file:///D:/Lunohod/Grfx/design/railway/railwayCross.png" height="40" width="40" />
        <image width="40" height="40" xlink:href="file:///D:/Lunohod/Grfx/design/railway/railwayCross.png" id="image3279" x="370" y="160" />
        <image transform="matrix(0,1,-1,0,0,0)" width="60" height="100" xlink:href="file:///D:/Lunohod/Grfx/design/railway/railwayTurn180b.png" id="image3093" x="60" y="-410" />
        <image transform="matrix(0,1,-1,0,0,0)" width="40" height="40" xlink:href="file:///D:/Lunohod/Grfx/design/railway/railwayHor1.png" id="image3110" x="100" y="-470" />
        <image y="-50" x="100" id="image3112" xlink:href="file:///D:/Lunohod/Grfx/design/railway/railwayHor1.png" height="40" width="40" transform="matrix(0,1,-1,0,0,0)" />
        <image transform="matrix(0,1,-1,0,0,0)" width="40" height="40" xlink:href="file:///D:/Lunohod/Grfx/design/railway/railwayHor1.png" id="image3115" x="120" y="-410" />
        <image y="-290" x="80" id="image3184" xlink:href="file:///D:/Lunohod/Grfx/design/railway/railwayTurn180b.png" height="100" width="60" transform="matrix(0,1,-1,0,0,0)" />
        <image y="-290" x="140" id="image3186" xlink:href="file:///D:/Lunohod/Grfx/design/railway/railwayHor1.png" height="40" width="40" transform="matrix(0,1,-1,0,0,0)" />
        <image transform="matrix(0,1,-1,0,0,0)" width="40" height="40" xlink:href="file:///D:/Lunohod/Grfx/design/railway/railwayHor1.png" id="image3188" x="140" y="-230" />
        <image y="20" x="130" id="image3192" xlink:href="file:///D:/Lunohod/Grfx/design/railway/railwayHor1.png" height="40" width="40" />
    </g>
    <g inkscape:groupmode="layer" id="layer2" inkscape:label="enemies" style="display:inline">
        <image y="79.423492" x="82.677597" id="image3213" xlink:href="file:///D:/Lunohod/Grfx/objects/visible/Food/fish_6_me.png" height="17" width="28" />
        <image width="18" height="21" xlink:href="file:///D:/Lunohod/Grfx/objects/visible/EnemyRat4/EnemyRat4_Dimensions.png" id="image3244" x="392.03278" y="37.77594" />
        <image width="18" height="21" xlink:href="file:///D:/Lunohod/Grfx/objects/visible/EnemyRat4/EnemyRat4_Dimensions.png" id="image3247" x="109.91985" y="124.62476" />
        <image width="18" height="21" xlink:href="file:///D:/Lunohod/Grfx/objects/visible/EnemyRat4/EnemyRat4_Dimensions.png" id="image3146" x="350.64847" y="121.12749" />
        <image y="232.30875" x="342.3898" id="image3251" xlink:href="file:///D:/Lunohod/Grfx/objects/visible/EnemyRat3/EnemyRat3_Dimensions.png" height="25" width="24" />
        <image width="24" height="25" xlink:href="file:///D:/Lunohod/Grfx/objects/visible/EnemyRat3/EnemyRat3_Dimensions.png" id="image3197" x="159.36612" y="231.14299" />
        <image y="261.86978" x="208.74503" id="image3201" xlink:href="file:///D:/Lunohod/Grfx/objects/visible/EnemyRat2/EnemyRat2_Dimensions.png" height="23" width="22" />
        <image y="132.47086" x="409.25504" id="image3203" xlink:href="file:///D:/Lunohod/Grfx/objects/visible/EnemyRat2/EnemyRat2_Dimensions.png" height="23" width="22" />
        <image width="22" height="23" xlink:href="file:///D:/Lunohod/Grfx/objects/visible/EnemyRat2/EnemyRat2_Dimensions.png" id="image3182" x="49.619335" y="133.63661" />
        <image width="28" height="17" xlink:href="file:///D:/Lunohod/Grfx/objects/visible/Food/fish_6_me.png" id="image3261" x="255.8725" y="176.27232" />
        <image width="28" height="17" xlink:href="file:///D:/Lunohod/Grfx/objects/visible/Food/fish_6_me.png" id="image3263" x="240.71767" y="39.296001" />
        <image width="28" height="17" xlink:href="file:///D:/Lunohod/Grfx/objects/visible/Food/fish_6_me.png" id="image3265" x="227.31148" y="23.558296" />
        <image y="39.87888" x="212.73952" id="image3235" xlink:href="file:///D:/Lunohod/Grfx/objects/visible/Food/fish_6_me.png" height="17" width="28" />
        <image y="202.50183" x="255.28961" id="image3237" xlink:href="file:///D:/Lunohod/Grfx/objects/visible/Food/fish_6_me.png" height="17" width="28" />
        <image y="229.31422" x="256.45535" id="image3239" xlink:href="file:///D:/Lunohod/Grfx/objects/visible/Food/fish_6_me.png" height="17" width="28" />
        <image width="28" height="17" xlink:href="file:///D:/Lunohod/Grfx/objects/visible/Food/fish_6_me.png" id="image3223" x="134.63388" y="78.337891" />
        <image width="28" height="17" xlink:href="file:///D:/Lunohod/Grfx/objects/visible/Food/fish_6_me.png" id="image3225" x="107.82149" y="65.183067" />
        <image width="26" height="17" xlink:href="file:///D:/Lunohod/Grfx/objects/visible/Food/fish_5_me.png" id="image3281" x="438.14752" y="22.975412" />
        <image y="24.724047" x="20.806915" id="image3275-17" xlink:href="file:///D:/Lunohod/Grfx/objects/visible/Food/fish_5_me.png" height="17" width="26" />
        <image width="28" height="17" xlink:href="file:///D:/Lunohod/Grfx/objects/visible/Food/fish_6_me.png" id="image3321" x="322.67761" y="80.423492" />
        <image y="79.337891" x="374.63388" id="image3323" xlink:href="file:///D:/Lunohod/Grfx/objects/visible/Food/fish_6_me.png" height="17" width="28" />
        <image y="66.183067" x="347.82147" id="image3325" xlink:href="file:///D:/Lunohod/Grfx/objects/visible/Food/fish_6_me.png" height="17" width="28" />
    </g>
    <g inkscape:groupmode="layer" id="layer4" inkscape:label="blocks" style="display:inline" sodipodi:insensitive="true">
        <image width="30" height="30" xlink:href="file:///D:/Lunohod/Grfx/objects/visible/Wall/WoodenBox/box_old_1.png" id="image3259" x="320.87613" y="15.400739" />
        <image y="161.12022" x="419.96539" id="image3257" xlink:href="file:///D:/Lunohod/Grfx/objects/visible/Wall/WoodenBox/box_old_1.png" height="30" width="30" />
        <image width="30" height="30" xlink:href="file:///D:/Lunohod/Grfx/objects/visible/Wall/WoodenBox/box_old_1.png" id="image3134" x="74.318756" y="207.75046" />
        <image y="32.834232" x="355.1275" id="image3229" xlink:href="file:///D:/Lunohod/Grfx/objects/visible/Wall/WoodenBox/box_old_2.png" height="30" width="30" />
        <image width="30" height="30" xlink:href="file:///D:/Lunohod/Grfx/objects/visible/Wall/WoodenBox/box_old_2.png" id="image3117" x="204.74496" y="229.26413" />
    </g>
    <g inkscape:groupmode="layer" id="layer3" inkscape:label="food" style="display:inline" sodipodi:insensitive="true" />
    <g inkscape:groupmode="layer" id="layer10" inkscape:label="way" style="display:inline" sodipodi:insensitive="true">
        <image y="128" x="254" id="image3253" xlink:href="file:///D:/Lunohod/Grfx/objects/unvisible/Moving/down.png" height="140" width="4" />
        <image width="120" height="4" xlink:href="file:///D:/Lunohod/Grfx/objects/unvisible/Moving/right.png" id="image3282" x="254" y="268" />
        <image width="4" height="194" xlink:href="file:///D:/Lunohod/Grfx/objects/unvisible/Moving/up.png" id="image3300" x="374" y="74" />
        <image y="74" x="314" id="image3293" xlink:href="file:///D:/Lunohod/Grfx/objects/unvisible/Moving/left.png" height="4" width="60" />
        <image width="4" height="94" xlink:href="file:///D:/Lunohod/Grfx/objects/unvisible/Moving/down.png" id="image3296" x="314" y="74" />
        <image y="168" x="314" id="image3298" xlink:href="file:///D:/Lunohod/Grfx/objects/unvisible/Moving/right.png" height="4" width="120" />
        <image y="28" x="434" id="image3301" xlink:href="file:///D:/Lunohod/Grfx/objects/unvisible/Moving/up.png" height="140" width="4" />
        <image width="420" height="4" xlink:href="file:///D:/Lunohod/Grfx/objects/unvisible/Moving/left.png" id="image3303" x="14" y="28" />
        <image width="4" height="140" xlink:href="file:///D:/Lunohod/Grfx/objects/unvisible/Moving/down.png" id="image3305" x="14" y="28" />
        <image width="120" height="4" xlink:href="file:///D:/Lunohod/Grfx/objects/unvisible/Moving/right.png" id="image3307" x="14" y="168" />
        <image y="74" x="134" id="image3309" xlink:href="file:///D:/Lunohod/Grfx/objects/unvisible/Moving/up.png" height="94" width="4" />
        <image width="60" height="4" xlink:href="file:///D:/Lunohod/Grfx/objects/unvisible/Moving/left.png" id="image3311" x="74" y="74" />
        <image y="74" x="74" id="image3313" xlink:href="file:///D:/Lunohod/Grfx/objects/unvisible/Moving/down.png" height="194" width="4" />
        <image y="268" x="74" id="image3315" xlink:href="file:///D:/Lunohod/Grfx/objects/unvisible/Moving/right.png" height="4" width="120" />
        <image y="98.000008" x="194" id="image3317" xlink:href="file:///D:/Lunohod/Grfx/objects/unvisible/Moving/up.png" height="170" width="4" />
        <image y="98.000008" x="194" id="image3319" xlink:href="file:///D:/Lunohod/Grfx/objects/unvisible/Moving/right.png" height="4" width="35.217751" />
    </g>
    <g inkscape:groupmode="layer" id="layer5" inkscape:label="actionTHE" style="display:inline" sodipodi:insensitive="true">
        <image y="0" x="0" id="image3038" xlink:href="file:///D:/Lunohod/Grfx/objects/visible/Tower/transmitter-2.png" height="30" width="30" />
        <image y="128" x="254" id="image3015" xlink:href="file:///D:/Lunohod/Grfx/objects/visible/Hero/heroDimensions.png" height="23" width="33" />
        <image y="61.876148" x="221.30783" id="image3049" xlink:href="file:///D:/Lunohod/Grfx/objects/visible/Exit/refrigerator.png" height="54" width="37" />
    </g>
    <g inkscape:groupmode="layer" id="layer9" inkscape:label="dash" style="opacity:0.29861109;display:none" sodipodi:insensitive="true">
        <image y="0" x="0" id="image3016" xlink:href="file:///D:/Lunohod/Art/dashboard/screenTapAreas_dash_M_btnSize52.png" height="320" width="480" />
    </g>
    <g inkscape:groupmode="layer" id="layer6" inkscape:label="upmask" sodipodi:insensitive="true" style="display:none">
        <rect style="fill:#ffffff;fill-opacity:1;fill-rule:nonzero;stroke:none" id="rect3011" width="1499.1859" height="380.14673" x="-434.48303" y="-380.14673" />
        <rect style="fill:#ffffff;fill-opacity:1;fill-rule:nonzero;stroke:none" id="rect3013" width="644.82831" height="1098.9973" x="480" y="-256.73999" />
        <rect style="fill:#ffffff;fill-opacity:1;fill-rule:nonzero;stroke:none" id="rect3015" width="1018.1825" height="736.57312" x="-257.47144" y="320" />
        <rect style="fill:#ffffff;fill-opacity:1;fill-rule:nonzero;stroke:none" id="rect3017" width="663.5741" height="1133.1669" x="-663.5741" y="-333.33374" />
    </g>
</svg>
