<?xml version="1.0" encoding="UTF-8" standalone="no"?>
<!-- Created with Inkscape (http://www.inkscape.org/) -->

<svg xmlns:dc="http://purl.org/dc/elements/1.1/" xmlns:cc="http://creativecommons.org/ns#" xmlns:rdf="http://www.w3.org/1999/02/22-rdf-syntax-ns#" xmlns:svg="http://www.w3.org/2000/svg" xmlns="http://www.w3.org/2000/svg" xmlns:xlink="http://www.w3.org/1999/xlink" xmlns:sodipodi="http://sodipodi.sourceforge.net/DTD/sodipodi-0.dtd" xmlns:inkscape="http://www.inkscape.org/namespaces/inkscape" width="480" height="320" id="svg2" version="1.1" inkscape:version="0.48.1 " sodipodi:docname="Lvl_VodoprovodniiNindzya.svg" style="display:inline" inkscape:export-filename="D:\Lunohod\Levels\Lvl_VodoprovodniiNindzya\Lvl_VodoprovodniiNindzya.png" inkscape:export-xdpi="90" inkscape:export-ydpi="90">
    <defs id="defs4" />
    <sodipodi:namedview id="base" pagecolor="#ffffff" bordercolor="#666666" borderopacity="1.0" inkscape:pageopacity="0.0" inkscape:pageshadow="2" inkscape:zoom="1.4641" inkscape:cx="227.93966" inkscape:cy="164.44375" inkscape:document-units="px" inkscape:current-layer="layer2" showgrid="false" width="480px" inkscape:showpageshadow="false" inkscape:window-width="1280" inkscape:window-height="744" inkscape:window-x="-4" inkscape:window-y="-4" inkscape:window-maximized="1" showguides="false" inkscape:guide-bbox="true">
        <sodipodi:guide orientation="0,1" position="320,256" id="guide3018" />
        <sodipodi:guide orientation="0,1" position="160,64" id="guide3020" />
        <sodipodi:guide orientation="1,0" position="400,192" id="guide3022" />
        <sodipodi:guide orientation="1,0" position="80,128" id="guide3024" />
        <sodipodi:guide orientation="0,1" position="240,160" id="guide3005" />
        <sodipodi:guide orientation="1,0" position="240,160" id="guide3007" />
        <sodipodi:guide orientation="1,0" position="0,160" id="guide3072" />
        <sodipodi:guide orientation="1,0" position="480,160" id="guide3074" />
        <sodipodi:guide orientation="0,1" position="240,320" id="guide3076" />
        <sodipodi:guide orientation="0,1" position="240,0" id="guide3078" />
        <inkscape:grid type="xygrid" id="grid3023" />
    </sodipodi:namedview>
    <metadata id="metadata7">
        <rdf:RDF>
            <cc:Work rdf:about="">
                <dc:format>image/svg+xml</dc:format>
                <dc:type rdf:resource="http://purl.org/dc/dcmitype/StillImage" />
                <dc:title></dc:title>
            </cc:Work>
        </rdf:RDF>
    </metadata>
    <g inkscape:groupmode="layer" id="layer1" inkscape:label="_background" style="display:inline" sodipodi:insensitive="true">
        <image y="0" x="0" id="image3065" xlink:href="file:///D:/Lunohod/Grfx/design/backgrounds/tailsBlue.png" height="320" width="480" />
    </g>
    <g inkscape:groupmode="layer" id="layer13" inkscape:label="_traces" sodipodi:insensitive="true" style="opacity:0.5">
        <image style="display:inline" y="182" x="240" id="image3225" xlink:href="file:///D:/Lunohod/Grfx/design/misc/traces_singl.png" height="18" width="25" />
        <image width="25" height="18" xlink:href="file:///D:/Lunohod/Grfx/design/misc/traces_singl.png" id="image3247" x="242" y="202" style="display:inline" />
        <image style="display:inline" y="222" x="238" id="image3249" xlink:href="file:///D:/Lunohod/Grfx/design/misc/traces_singl.png" height="18" width="25" />
        <image width="25" height="18" xlink:href="file:///D:/Lunohod/Grfx/design/misc/traces_singl.png" id="image3251" x="242" y="242" style="display:inline" />
        <image style="display:inline" y="262" x="240" id="image3253" xlink:href="file:///D:/Lunohod/Grfx/design/misc/traces_singl.png" height="18" width="25" />
        <image width="25" height="18" xlink:href="file:///D:/Lunohod/Grfx/design/misc/traces_singl.png" id="image3255" x="192.5" y="-443.5" style="display:inline" transform="matrix(0,1,-1,0,0,0)" />
        <image transform="matrix(0,1,-1,0,0,0)" style="display:inline" y="-425.5" x="190.5" id="image3257" xlink:href="file:///D:/Lunohod/Grfx/design/misc/traces_singl.png" height="18" width="25" />
        <image width="25" height="18" xlink:href="file:///D:/Lunohod/Grfx/design/misc/traces_singl.png" id="image3259" x="194.5" y="-405.5" style="display:inline" transform="matrix(0,1,-1,0,0,0)" />
        <image transform="matrix(0,1,-1,0,0,0)" style="display:inline" y="-387.5" x="192.5" id="image3261" xlink:href="file:///D:/Lunohod/Grfx/design/misc/traces_singl.png" height="18" width="25" />
        <image width="25" height="18" xlink:href="file:///D:/Lunohod/Grfx/design/misc/traces_singl.png" id="image3263" x="192.5" y="-367.5" style="display:inline" transform="matrix(0,1,-1,0,0,0)" />
        <image transform="matrix(0,1,-1,0,0,0)" style="display:inline" y="-67.5" x="104.5" id="image3265" xlink:href="file:///D:/Lunohod/Grfx/design/misc/traces_singl.png" height="18" width="25" />
        <image width="25" height="18" xlink:href="file:///D:/Lunohod/Grfx/design/misc/traces_singl.png" id="image3267" x="102.5" y="-87.5" style="display:inline" transform="matrix(0,1,-1,0,0,0)" />
        <image transform="matrix(0,1,-1,0,0,0)" style="display:inline" y="-107.5" x="106.5" id="image3269" xlink:href="file:///D:/Lunohod/Grfx/design/misc/traces_singl.png" height="18" width="25" />
        <image width="25" height="18" xlink:href="file:///D:/Lunohod/Grfx/design/misc/traces_singl.png" id="image3271" x="106.5" y="-127.5" style="display:inline" transform="matrix(0,1,-1,0,0,0)" />
        <image transform="matrix(0,1,-1,0,0,0)" style="display:inline" y="-147.5" x="104.5" id="image3273" xlink:href="file:///D:/Lunohod/Grfx/design/misc/traces_singl.png" height="18" width="25" />
        <image width="25" height="18" xlink:href="file:///D:/Lunohod/Grfx/design/misc/traces_singl.png" id="image3275" x="124.5" y="-167.5" style="display:inline" transform="matrix(0,1,-1,0,0,0)" />
        <image transform="matrix(0,1,-1,0,0,0)" style="display:inline" y="-187.5" x="122.5" id="image3277" xlink:href="file:///D:/Lunohod/Grfx/design/misc/traces_singl.png" height="18" width="25" />
        <image width="25" height="18" xlink:href="file:///D:/Lunohod/Grfx/design/misc/traces_singl.png" id="image3279" x="122.5" y="-207.5" style="display:inline" transform="matrix(0,1,-1,0,0,0)" />
        <image transform="matrix(0,1,-1,0,0,0)" style="display:inline" y="-227.5" x="126.5" id="image3282" xlink:href="file:///D:/Lunohod/Grfx/design/misc/traces_singl.png" height="18" width="25" />
        <image width="25" height="18" xlink:href="file:///D:/Lunohod/Grfx/design/misc/traces_singl.png" id="image3284" x="122.5" y="-247.5" style="display:inline" transform="matrix(0,1,-1,0,0,0)" />
        <image transform="matrix(0,1,-1,0,0,0)" style="display:inline" y="-267.5" x="122.5" id="image3286" xlink:href="file:///D:/Lunohod/Grfx/design/misc/traces_singl.png" height="18" width="25" />
        <image width="25" height="18" xlink:href="file:///D:/Lunohod/Grfx/design/misc/traces_singl.png" id="image3288" x="120.5" y="-287.5" style="display:inline" transform="matrix(0,1,-1,0,0,0)" />
        <image transform="matrix(0,1,-1,0,0,0)" style="display:inline" y="-307.5" x="124.5" id="image3290" xlink:href="file:///D:/Lunohod/Grfx/design/misc/traces_singl.png" height="18" width="25" />
    </g>
    <g inkscape:groupmode="layer" id="layer4" inkscape:label="blocks" style="display:inline" sodipodi:insensitive="true">
        <image y="-24" x="10" id="image3705" xlink:href="file:///D:/Lunohod/Grfx/objects/unvisible/BlockBounce/BlockBounce.png" height="50" width="460" />
        <image width="460" height="50" xlink:href="file:///D:/Lunohod/Grfx/objects/unvisible/BlockBounce/BlockBounce.png" id="image3708" x="10" y="290" />
        <image y="190" x="10" id="image3710" xlink:href="file:///D:/Lunohod/Grfx/objects/unvisible/BlockBounce/BlockBounce.png" height="26" width="148" />
        <image width="160" height="26" xlink:href="file:///D:/Lunohod/Grfx/objects/unvisible/BlockBounce/BlockBounce.png" id="image3712" x="318" y="94" />
        <image y="49" x="102" id="image3714" xlink:href="file:///D:/Lunohod/Grfx/objects/unvisible/BlockBounce/BlockBounce.png" height="25" width="278" />
        <image width="278" height="25" xlink:href="file:///D:/Lunohod/Grfx/objects/unvisible/BlockBounce/BlockBounce.png" id="image3716" x="102" y="143" />
        <image y="243" x="102" id="image3718" xlink:href="file:///D:/Lunohod/Grfx/objects/unvisible/BlockBounce/BlockBounce.png" height="25" width="78" />
        <image width="78" height="25" xlink:href="file:///D:/Lunohod/Grfx/objects/unvisible/BlockBounce/BlockBounce.png" id="image3720" x="298" y="243" />
        <image y="-10" x="-34" id="image3730" xlink:href="file:///D:/Lunohod/Grfx/objects/unvisible/BlockStick/BlockStick.png" height="340" width="50" />
        <image width="50" height="340" xlink:href="file:///D:/Lunohod/Grfx/objects/unvisible/BlockStick/BlockStick.png" id="image3733" x="464" y="-10" />
        <image width="25.986109" height="116" xlink:href="file:///D:/Lunohod/Grfx/objects/unvisible/BlockBounce/BlockBounce.png" id="image3921" x="125.85577" y="149" />
        <image y="20" x="323.85577" id="image3923" xlink:href="file:///D:/Lunohod/Grfx/objects/unvisible/BlockBounce/BlockBounce.png" height="149" width="25.986109" />
        <image width="25.986109" height="70" xlink:href="file:///D:/Lunohod/Grfx/objects/unvisible/BlockBounce/BlockBounce.png" id="image3281" x="323.85577" y="245" />
        <image y="-82" x="125.85577" id="image3283" xlink:href="file:///D:/Lunohod/Grfx/objects/unvisible/BlockBounce/BlockBounce.png" height="153" width="25.986109" />
    </g>
    <g inkscape:groupmode="layer" id="layer3" inkscape:label="_TeleportDesign" style="display:inline" sodipodi:insensitive="true">
        <image y="32" x="100" id="image3063" xlink:href="file:///D:/Lunohod/Grfx/design/teleport/TeleportTubeHor.png" height="56" width="40" />
        <image y="32" x="80" id="image3074" xlink:href="file:///D:/Lunohod/Grfx/design/teleport/TeleportEntryLeft.png" height="56" width="24" />
        <image width="40" height="56" xlink:href="file:///D:/Lunohod/Grfx/design/teleport/TeleportTubeHor.png" id="image3077" x="140" y="32" />
        <image y="32" x="180" id="image3079" xlink:href="file:///D:/Lunohod/Grfx/design/teleport/TeleportTubeHor.png" height="56" width="40" />
        <image width="40" height="56" xlink:href="file:///D:/Lunohod/Grfx/design/teleport/TeleportTubeHor.png" id="image3081" x="220" y="32" />
        <image y="32" x="260" id="image3083" xlink:href="file:///D:/Lunohod/Grfx/design/teleport/TeleportTubeHor.png" height="56" width="40" />
        <image width="40" height="56" xlink:href="file:///D:/Lunohod/Grfx/design/teleport/TeleportTubeHor.png" id="image3085" x="300" y="32" />
        <image y="32" x="340" id="image3087" xlink:href="file:///D:/Lunohod/Grfx/design/teleport/TeleportTubeHor.png" height="56" width="40" />
        <image width="40" height="56" xlink:href="file:///D:/Lunohod/Grfx/design/teleport/TeleportTubeHor.png" id="image3091" x="100" y="126" />
        <image width="24" height="56" xlink:href="file:///D:/Lunohod/Grfx/design/teleport/TeleportEntryLeft.png" id="image3093" x="80" y="126" />
        <image y="126" x="140" id="image3095" xlink:href="file:///D:/Lunohod/Grfx/design/teleport/TeleportTubeHor.png" height="56" width="40" />
        <image width="40" height="56" xlink:href="file:///D:/Lunohod/Grfx/design/teleport/TeleportTubeHor.png" id="image3097" x="180" y="126" />
        <image y="126" x="220" id="image3099" xlink:href="file:///D:/Lunohod/Grfx/design/teleport/TeleportTubeHor.png" height="56" width="40" />
        <image width="40" height="56" xlink:href="file:///D:/Lunohod/Grfx/design/teleport/TeleportTubeHor.png" id="image3101" x="260" y="126" />
        <image y="126" x="300" id="image3103" xlink:href="file:///D:/Lunohod/Grfx/design/teleport/TeleportTubeHor.png" height="56" width="40" />
        <image width="40" height="56" xlink:href="file:///D:/Lunohod/Grfx/design/teleport/TeleportTubeHor.png" id="image3105" x="340" y="126" />
        <image y="226" x="100" id="image3109" xlink:href="file:///D:/Lunohod/Grfx/design/teleport/TeleportTubeHor.png" height="56" width="40" />
        <image y="226" x="80" id="image3111" xlink:href="file:///D:/Lunohod/Grfx/design/teleport/TeleportEntryLeft.png" height="56" width="24" />
        <image width="40" height="56" xlink:href="file:///D:/Lunohod/Grfx/design/teleport/TeleportTubeHor.png" id="image3113" x="140" y="226" />
        <image width="40" height="56" xlink:href="file:///D:/Lunohod/Grfx/design/teleport/TeleportTubeHor.png" id="image3121" x="300" y="226" />
        <image y="226" x="340" id="image3123" xlink:href="file:///D:/Lunohod/Grfx/design/teleport/TeleportTubeHor.png" height="56" width="40" />
        <image width="24" height="56" xlink:href="file:///D:/Lunohod/Grfx/design/teleport/TeleportEntryLeft.png" id="image3125" x="276" y="226" />
        <image y="32" x="376" id="image3052" xlink:href="file:///D:/Lunohod/Grfx/design/teleport/TeleportEntryRight.png" height="56" width="24" />
        <image width="24" height="56" xlink:href="file:///D:/Lunohod/Grfx/design/teleport/TeleportEntryRight.png" id="image3089" x="376" y="126" />
        <image y="226" x="376" id="image3107" xlink:href="file:///D:/Lunohod/Grfx/design/teleport/TeleportEntryRight.png" height="56" width="24" />
        <image width="24" height="56" xlink:href="file:///D:/Lunohod/Grfx/design/teleport/TeleportEntryRight.png" id="image3127" x="176" y="226" />
    </g>
    <g inkscape:groupmode="layer" id="layer10" inkscape:label="TeleportAction vv" style="display:inline" sodipodi:insensitive="true">
        <image y="226" x="86" id="image3169" xlink:href="file:///D:/Lunohod/Grfx/objects/unvisible/Teleport/Entry/Entry.png" height="56" width="24" />
        <image style="display:inline" y="226" x="104" id="image3183-0" xlink:href="file:///D:/Lunohod/Grfx/objects/unvisible/Teleport/Tube/right.png" height="4" width="36" />
        <image y="243" x="195" id="image3520" xlink:href="file:///D:/Lunohod/Grfx/objects/unvisible/Teleport/Out/out_right.png" height="23" width="33" />
        <image y="226" x="280" id="image3179" xlink:href="file:///D:/Lunohod/Grfx/objects/unvisible/Teleport/Entry/Entry.png" height="56" width="24" />
        <image style="display:inline" width="36" height="4" xlink:href="file:///D:/Lunohod/Grfx/objects/unvisible/Teleport/Tube/right.png" id="image3181-4" x="304" y="226" />
        <image width="33" height="23" xlink:href="file:///D:/Lunohod/Grfx/objects/unvisible/Teleport/Out/out_right.png" id="image3523" x="395" y="243" />
        <image y="126" x="370" id="image3167" xlink:href="file:///D:/Lunohod/Grfx/objects/unvisible/Teleport/Entry/Entry.png" height="56" width="24" />
        <image style="display:inline" width="234" height="4" xlink:href="file:///D:/Lunohod/Grfx/objects/unvisible/Teleport/Tube/left.png" id="image3175-7" x="104" y="126.00002" />
        <image style="display:inline" y="144" x="51" id="image3193-1" xlink:href="file:///D:/Lunohod/Grfx/objects/unvisible/Teleport/Out/out_left.png" height="23" width="33" />
        <image y="32" x="86" id="image3138" xlink:href="file:///D:/Lunohod/Grfx/objects/unvisible/Teleport/Entry/Entry.png" height="56" width="24" />
        <image style="display:inline" y="31.999994" x="104" id="image3149-1" xlink:href="file:///D:/Lunohod/Grfx/objects/unvisible/Teleport/Tube/right.png" height="4" width="234" />
        <image y="49" x="395" id="image3525" xlink:href="file:///D:/Lunohod/Grfx/objects/unvisible/Teleport/Out/out_right.png" height="23" width="33" />
    </g>
    <g inkscape:groupmode="layer" id="layer11" inkscape:label="TeleportAction" style="display:inline" sodipodi:insensitive="true">
        <image style="display:inline" width="24" height="56" xlink:href="file:///D:/Lunohod/Grfx/objects/unvisible/Teleport/Entry/Entry.png" id="image3163" x="370" y="31.999996" />
        <image style="display:inline" y="31.999996" x="104" id="image3149" xlink:href="file:///D:/Lunohod/Grfx/objects/unvisible/Teleport/Tube/left.png" height="4" width="234" />
        <image style="display:inline" y="48.499996" x="51" id="image3193" xlink:href="file:///D:/Lunohod/Grfx/objects/unvisible/Teleport/Out/out_left.png" height="23" width="33" />
        <image style="display:inline" width="24" height="56" xlink:href="file:///D:/Lunohod/Grfx/objects/unvisible/Teleport/Entry/Entry.png" id="image3165" x="86" y="126.00001" />
        <image style="display:inline" width="234" height="4" xlink:href="file:///D:/Lunohod/Grfx/objects/unvisible/Teleport/Tube/right.png" id="image3175" x="104" y="126.00001" />
        <image style="display:inline" y="142.5" x="396" id="image3204" xlink:href="file:///D:/Lunohod/Grfx/objects/unvisible/Teleport/Out/out_right.png" height="23" width="33" />
        <image style="display:inline" width="24" height="56" xlink:href="file:///D:/Lunohod/Grfx/objects/unvisible/Teleport/Entry/Entry.png" id="image3171" x="370" y="226" />
        <image style="display:inline" width="36" height="4" xlink:href="file:///D:/Lunohod/Grfx/objects/unvisible/Teleport/Tube/left.png" id="image3181" x="304" y="226" />
        <image style="display:inline" width="33" height="23" xlink:href="file:///D:/Lunohod/Grfx/objects/unvisible/Teleport/Out/out_left.png" id="image3207" x="245" y="242.5" />
        <image style="display:inline" width="24" height="56" xlink:href="file:///D:/Lunohod/Grfx/objects/unvisible/Teleport/Entry/Entry.png" id="image3177" x="170" y="226" />
        <image style="display:inline" y="226" x="104" id="image3183" xlink:href="file:///D:/Lunohod/Grfx/objects/unvisible/Teleport/Tube/left.png" height="4" width="36" />
        <image style="display:inline" y="242.5" x="51" id="image3209" xlink:href="file:///D:/Lunohod/Grfx/objects/unvisible/Teleport/Out/out_left.png" height="23" width="33" />
    </g>
    <g inkscape:groupmode="layer" id="layer12" inkscape:label="Fish" style="display:inline" sodipodi:insensitive="true">
        <image width="28" height="19" xlink:href="file:///D:/Lunohod/Grfx/objects/visible/Food/fishType02.png" id="image3303" x="417.00885" y="151.11305" />
        <image width="28" height="19" xlink:href="file:///D:/Lunohod/Grfx/objects/visible/Food/fishType02.png" id="image3305" x="433.61166" y="204.24203" />
        <image y="243.42467" x="415.68063" id="image3300-1" xlink:href="file:///D:/Lunohod/Grfx/objects/visible/Food/fishType02.png" height="19" width="28" />
        <image width="27" height="20" xlink:href="file:///D:/Lunohod/Grfx/objects/visible/Food/fishType05.png" id="image3319" x="38.96487" y="47.011539" />
        <image width="27" height="20" xlink:href="file:///D:/Lunohod/Grfx/objects/visible/Food/fishType05.png" id="image3323" x="18.377388" y="100.14051" />
        <image y="153.93362" x="34.980194" id="image3315" xlink:href="file:///D:/Lunohod/Grfx/objects/visible/Food/fishType05.png" height="20" width="27" />
    </g>
    <g inkscape:groupmode="layer" id="layer2" inkscape:label="action" style="display:inline" sodipodi:insensitive="true">
        <image style="display:inline" y="-116.09488" x="109.26105" id="image3304-1" xlink:href="file:///D:/Lunohod/Grfx/design/hazard/wire_currentLR.png" height="8" width="45" transform="matrix(0.39817575,0.91730915,-0.91730915,0.39817575,0,0)" />
        <image style="display:inline" y="-168.15137" x="353.85477" id="image3293" xlink:href="file:///D:/Lunohod/Grfx/design/hazard/wire_current.png" height="8" width="45" transform="matrix(0.5375292,0.84324514,-0.84324514,0.5375292,0,0)" />
        <g id="g3232">
            <image width="18" height="21" xlink:href="file:///D:/Lunohod/Grfx/objects/visible/EnemyRat4/EnemyRat4_Dimensions.png" id="image3488" x="300" y="122" />
            <image width="150" height="4" xlink:href="file:///D:/Lunohod/Grfx/objects/unvisible/Moving/left.png" id="image3499" x="150" y="121" inkscape:label="Duration:16" />
        </g>
        <g id="g3362">
            <image width="24" height="25" xlink:href="file:///D:/Lunohod/Grfx/objects/visible/EnemyRat3/EnemyRat3_Dimensions.png" id="image3590" x="132" y="97" />
            <image width="80" height="4" xlink:href="file:///D:/Lunohod/Grfx/objects/unvisible/Moving/left.png" id="image3601" x="50" y="97" inkscape:label="Duration:3.5" />
        </g>
        <g id="g3356">
            <image width="24" height="25" xlink:href="file:///D:/Lunohod/Grfx/objects/visible/EnemyRat3/EnemyRat3_Dimensions.png" id="image3616" x="338" y="190" />
            <image width="80" height="4" xlink:href="file:///D:/Lunohod/Grfx/objects/unvisible/Moving/right.png" id="image3627" x="340" y="186" inkscape:label="Duration:3.5" />
        </g>
        <g id="g3277">
            <image width="28" height="25" xlink:href="file:///D:/Lunohod/Grfx/objects/visible/EnemyRat1/EnemyRat1_Dimensions.png" id="image3683" x="238" y="169" />
            <image inkscape:label="Duration:2.4" width="4" height="90" xlink:href="file:///D:/Lunohod/Grfx/objects/unvisible/Moving/down.png" id="image3694" x="238" y="170" />
        </g>
        <image y="220" x="200" id="image3788" xlink:href="file:///D:/Lunohod/Grfx/objects/visible/Wall/WoodenBox/box_old_3.png" height="30" width="30" />
        <image y="256" x="202" id="image3778" xlink:href="file:///D:/Lunohod/Grfx/objects/visible/Wall/WoodenBox/box_old_3.png" height="30" width="30" />
        <image y="84.776985" x="155.22719" id="image3760" xlink:href="file:///D:/Lunohod/Grfx/objects/visible/EnemyElectricity1/EnemyElectricity1.png" height="12" width="12" />
        <image width="12" height="12" xlink:href="file:///D:/Lunohod/Grfx/objects/visible/EnemyElectricity1/EnemyElectricity1.png" id="image3763" x="325.5672" y="209.55281" />
    </g>
    <g inkscape:groupmode="layer" id="layer8" inkscape:label="_design" style="display:inline" sodipodi:insensitive="true">
        <image y="-10" x="-10" id="image3744" xlink:href="file:///D:/Lunohod/Grfx/design/wall/Brick/texture_brick_clean.png" height="20" width="26" />
        <image width="26" height="20" xlink:href="file:///D:/Lunohod/Grfx/design/wall/Brick/texture_brick_clean.png" id="image3742" x="464" y="-10" />
        <image width="26" height="20" xlink:href="file:///D:/Lunohod/Grfx/design/wall/Brick/texture_brick_clean.png" id="image3682" x="-10" y="290" />
        <image y="310" x="-10" id="image3684" xlink:href="file:///D:/Lunohod/Grfx/design/wall/Brick/texture_brick_clean.png" height="20" width="26" />
        <image width="26" height="20" xlink:href="file:///D:/Lunohod/Grfx/design/wall/Brick/texture_brick_clean.png" id="image3560" x="-10" y="10" />
        <image y="10" x="464" id="image3558" xlink:href="file:///D:/Lunohod/Grfx/design/wall/Brick/texture_brick_clean.png" height="20" width="26" />
        <image width="26" height="20" xlink:href="file:///D:/Lunohod/Grfx/objects/visible/Wall/MetalConstruction/farm_a002.png" id="image3365" x="324" y="269" />
        <image width="26" height="20" xlink:href="file:///D:/Lunohod/Grfx/objects/visible/Wall/MetalConstruction/farm_a002.png" id="image3347" x="324" y="149" />
        <image y="139" x="324" id="image3349" xlink:href="file:///D:/Lunohod/Grfx/objects/visible/Wall/MetalConstruction/farm_a002.png" height="20" width="26" />
        <image width="26" height="20" xlink:href="file:///D:/Lunohod/Grfx/objects/visible/Wall/MetalConstruction/farm_a002.png" id="image3351" x="324" y="119" />
        <image y="49" x="324" id="image3357" xlink:href="file:///D:/Lunohod/Grfx/objects/visible/Wall/MetalConstruction/farm_a002.png" height="20" width="26" />
        <image width="26" height="20" xlink:href="file:///D:/Lunohod/Grfx/objects/visible/Wall/MetalConstruction/farm_a002.png" id="image3359" x="324" y="25" />
        <image y="209" x="126" id="image3343" xlink:href="file:///D:/Lunohod/Grfx/objects/visible/Wall/MetalConstruction/farm_a002.png" height="20" width="26" />
        <image y="169" x="126" id="image3335" xlink:href="file:///D:/Lunohod/Grfx/objects/visible/Wall/MetalConstruction/farm_a002.png" height="20" width="26" />
        <image width="26" height="20" xlink:href="file:///D:/Lunohod/Grfx/objects/visible/Wall/MetalConstruction/farm_a002.png" id="image3807" x="126" y="25" />
        <image y="94" x="344" id="image3474" xlink:href="file:///D:/Lunohod/Grfx/design/wall/MetalConstruction/farm_a001.png" height="26" width="20" />
        <image y="30" x="-10" id="image3160" xlink:href="file:///D:/Lunohod/Grfx/design/wall/Brick/texture_brick_clean.png" height="20" width="26" />
        <image width="26" height="20" xlink:href="file:///D:/Lunohod/Grfx/design/wall/Brick/texture_brick_clean.png" id="image3162" x="-10" y="50" />
        <image y="70" x="-10" id="image3164" xlink:href="file:///D:/Lunohod/Grfx/design/wall/Brick/texture_brick_clean.png" height="20" width="26" />
        <image width="26" height="20" xlink:href="file:///D:/Lunohod/Grfx/design/wall/Brick/texture_brick_clean.png" id="image3166" x="-10" y="90" />
        <image y="110" x="-10" id="image3168" xlink:href="file:///D:/Lunohod/Grfx/design/wall/Brick/texture_brick_clean.png" height="20" width="26" />
        <image width="26" height="20" xlink:href="file:///D:/Lunohod/Grfx/design/wall/Brick/texture_brick_clean.png" id="image3170" x="-10" y="130" />
        <image y="150" x="-10" id="image3172" xlink:href="file:///D:/Lunohod/Grfx/design/wall/Brick/texture_brick_clean.png" height="20" width="26" />
        <image width="26" height="20" xlink:href="file:///D:/Lunohod/Grfx/design/wall/Brick/texture_brick_clean.png" id="image3174" x="-10" y="170" />
        <image y="190" x="-10" id="image3176" xlink:href="file:///D:/Lunohod/Grfx/design/wall/Brick/texture_brick_clean.png" height="20" width="26" />
        <image width="26" height="20" xlink:href="file:///D:/Lunohod/Grfx/design/wall/Brick/texture_brick_clean.png" id="image3178" x="-10" y="210" />
        <image y="230" x="-10" id="image3180" xlink:href="file:///D:/Lunohod/Grfx/design/wall/Brick/texture_brick_clean.png" height="20" width="26" />
        <image width="26" height="20" xlink:href="file:///D:/Lunohod/Grfx/design/wall/Brick/texture_brick_clean.png" id="image3182" x="-10" y="250" />
        <image y="270" x="-10" id="image3184" xlink:href="file:///D:/Lunohod/Grfx/design/wall/Brick/texture_brick_clean.png" height="20" width="26" />
        <image width="26" height="20" xlink:href="file:///D:/Lunohod/Grfx/design/wall/Brick/texture_brick_clean.png" id="image3188" x="464" y="30" />
        <image y="50" x="464" id="image3190" xlink:href="file:///D:/Lunohod/Grfx/design/wall/Brick/texture_brick_clean.png" height="20" width="26" />
        <image width="26" height="20" xlink:href="file:///D:/Lunohod/Grfx/design/wall/Brick/texture_brick_clean.png" id="image3192" x="464" y="70" />
        <image y="90" x="464" id="image3194" xlink:href="file:///D:/Lunohod/Grfx/design/wall/Brick/texture_brick_clean.png" height="20" width="26" />
        <image width="26" height="20" xlink:href="file:///D:/Lunohod/Grfx/design/wall/Brick/texture_brick_clean.png" id="image3196" x="464" y="110" />
        <image y="130" x="464" id="image3198" xlink:href="file:///D:/Lunohod/Grfx/design/wall/Brick/texture_brick_clean.png" height="20" width="26" />
        <image width="26" height="20" xlink:href="file:///D:/Lunohod/Grfx/design/wall/Brick/texture_brick_clean.png" id="image3218" x="464" y="150" />
        <image y="170" x="464" id="image3220" xlink:href="file:///D:/Lunohod/Grfx/design/wall/Brick/texture_brick_clean.png" height="20" width="26" />
        <image width="26" height="20" xlink:href="file:///D:/Lunohod/Grfx/design/wall/Brick/texture_brick_clean.png" id="image3222" x="464" y="190" />
        <image y="210" x="464" id="image3224" xlink:href="file:///D:/Lunohod/Grfx/design/wall/Brick/texture_brick_clean.png" height="20" width="26" />
        <image width="26" height="20" xlink:href="file:///D:/Lunohod/Grfx/design/wall/Brick/texture_brick_clean.png" id="image3226" x="464" y="230" />
        <image y="250" x="464" id="image3228" xlink:href="file:///D:/Lunohod/Grfx/design/wall/Brick/texture_brick_clean.png" height="20" width="26" />
        <image width="26" height="20" xlink:href="file:///D:/Lunohod/Grfx/design/wall/Brick/texture_brick_clean.png" id="image3230" x="464" y="270" />
        <image y="290" x="464" id="image3232" xlink:href="file:///D:/Lunohod/Grfx/design/wall/Brick/texture_brick_clean.png" height="20" width="26" />
        <image width="26" height="20" xlink:href="file:///D:/Lunohod/Grfx/design/wall/Brick/texture_brick_clean.png" id="image3396" x="464" y="310" />
        <image y="49" x="126" id="image3327" xlink:href="file:///D:/Lunohod/Grfx/objects/visible/Wall/MetalConstruction/farm_a002.png" height="20" width="26" />
        <image width="26" height="20" xlink:href="file:///D:/Lunohod/Grfx/objects/visible/Wall/MetalConstruction/farm_a002.png" id="image3333" x="126" y="149" />
        <image width="26" height="20" xlink:href="file:///D:/Lunohod/Grfx/objects/visible/Wall/MetalConstruction/farm_a002.png" id="image3341" x="126" y="229" />
        <image width="26" height="20" xlink:href="file:///D:/Lunohod/Grfx/objects/visible/Wall/MetalConstruction/farm_a002.png" id="image3361" x="324" y="249" />
        <image width="20" height="26" xlink:href="file:///D:/Lunohod/Grfx/design/wall/MetalConstruction/farm_a001.png" id="image3367" x="364" y="94" />
        <image y="94" x="384" id="image3369" xlink:href="file:///D:/Lunohod/Grfx/design/wall/MetalConstruction/farm_a001.png" height="26" width="20" />
        <image width="20" height="26" xlink:href="file:///D:/Lunohod/Grfx/design/wall/MetalConstruction/farm_a001.png" id="image3371" x="404" y="94" />
        <image y="94" x="424" id="image3373" xlink:href="file:///D:/Lunohod/Grfx/design/wall/MetalConstruction/farm_a001.png" height="26" width="20" />
        <image width="20" height="26" xlink:href="file:///D:/Lunohod/Grfx/design/wall/MetalConstruction/farm_a001.png" id="image3377" x="34" y="190" />
        <image y="190" x="54" id="image3379" xlink:href="file:///D:/Lunohod/Grfx/design/wall/MetalConstruction/farm_a001.png" height="26" width="20" />
        <image width="20" height="26" xlink:href="file:///D:/Lunohod/Grfx/design/wall/MetalConstruction/farm_a001.png" id="image3381" x="74" y="190" />
        <image y="190" x="94" id="image3383" xlink:href="file:///D:/Lunohod/Grfx/design/wall/MetalConstruction/farm_a001.png" height="26" width="20" />
        <image width="20" height="26" xlink:href="file:///D:/Lunohod/Grfx/design/wall/MetalConstruction/farm_a001.png" id="image3375" x="444" y="94" />
        <image y="94" x="464" id="image3608" xlink:href="file:///D:/Lunohod/Grfx/design/wall/MetalConstruction/farm_a001.png" height="26" width="20" />
        <image width="20" height="26" xlink:href="file:///D:/Lunohod/Grfx/design/wall/MetalConstruction/farm_a001.png" id="image3610" x="-6" y="190" />
        <image y="190" x="14" id="image3462" xlink:href="file:///D:/Lunohod/Grfx/design/wall/MetalConstruction/farm_a001.png" height="26" width="20" />
        <image y="44.620922" x="322" id="image3620" xlink:href="file:///D:/Lunohod/Grfx/design/wall/MetalConstruction/box_30x30_025.png" height="30" width="30" />
        <image width="30" height="30" xlink:href="file:///D:/Lunohod/Grfx/design/wall/MetalConstruction/box_30x30_025.png" id="image3623" x="124" y="44.620922" />
        <image y="140.62094" x="124" id="image3625" xlink:href="file:///D:/Lunohod/Grfx/design/wall/MetalConstruction/box_30x30_025.png" height="30" width="30" />
        <image width="30" height="30" xlink:href="file:///D:/Lunohod/Grfx/design/wall/MetalConstruction/box_30x30_025.png" id="image3628" x="322" y="140.62094" />
        <image y="240.62094" x="322" id="image3630" xlink:href="file:///D:/Lunohod/Grfx/design/wall/MetalConstruction/box_30x30_025.png" height="30" width="30" />
        <image width="30" height="30" xlink:href="file:///D:/Lunohod/Grfx/design/wall/MetalConstruction/box_30x30_025.png" id="image3632" x="124" y="240.62094" />
        <image y="290" x="34" id="image3634" xlink:href="file:///D:/Lunohod/Grfx/design/wall/MetalConstruction/farm_a001.png" height="26" width="20" />
        <image width="20" height="26" xlink:href="file:///D:/Lunohod/Grfx/design/wall/MetalConstruction/farm_a001.png" id="image3636" x="54" y="290" />
        <image y="290" x="74" id="image3638" xlink:href="file:///D:/Lunohod/Grfx/design/wall/MetalConstruction/farm_a001.png" height="26" width="20" />
        <image width="20" height="26" xlink:href="file:///D:/Lunohod/Grfx/design/wall/MetalConstruction/farm_a001.png" id="image3640" x="94" y="290" />
        <image y="290" x="-6" id="image3642" xlink:href="file:///D:/Lunohod/Grfx/design/wall/MetalConstruction/farm_a001.png" height="26" width="20" />
        <image width="20" height="26" xlink:href="file:///D:/Lunohod/Grfx/design/wall/MetalConstruction/farm_a001.png" id="image3644" x="14" y="290" />
        <image width="20" height="26" xlink:href="file:///D:/Lunohod/Grfx/design/wall/MetalConstruction/farm_a001.png" id="image3646" x="154" y="290" />
        <image y="290" x="174" id="image3648" xlink:href="file:///D:/Lunohod/Grfx/design/wall/MetalConstruction/farm_a001.png" height="26" width="20" />
        <image width="20" height="26" xlink:href="file:///D:/Lunohod/Grfx/design/wall/MetalConstruction/farm_a001.png" id="image3650" x="194" y="290" />
        <image y="290" x="214" id="image3652" xlink:href="file:///D:/Lunohod/Grfx/design/wall/MetalConstruction/farm_a001.png" height="26" width="20" />
        <image width="20" height="26" xlink:href="file:///D:/Lunohod/Grfx/design/wall/MetalConstruction/farm_a001.png" id="image3654" x="114" y="290" />
        <image y="290" x="134" id="image3656" xlink:href="file:///D:/Lunohod/Grfx/design/wall/MetalConstruction/farm_a001.png" height="26" width="20" />
        <image y="290" x="274" id="image3658" xlink:href="file:///D:/Lunohod/Grfx/design/wall/MetalConstruction/farm_a001.png" height="26" width="20" />
        <image width="20" height="26" xlink:href="file:///D:/Lunohod/Grfx/design/wall/MetalConstruction/farm_a001.png" id="image3660" x="294" y="290" />
        <image y="290" x="314" id="image3662" xlink:href="file:///D:/Lunohod/Grfx/design/wall/MetalConstruction/farm_a001.png" height="26" width="20" />
        <image width="20" height="26" xlink:href="file:///D:/Lunohod/Grfx/design/wall/MetalConstruction/farm_a001.png" id="image3664" x="334" y="290" />
        <image y="290" x="234" id="image3666" xlink:href="file:///D:/Lunohod/Grfx/design/wall/MetalConstruction/farm_a001.png" height="26" width="20" />
        <image width="20" height="26" xlink:href="file:///D:/Lunohod/Grfx/design/wall/MetalConstruction/farm_a001.png" id="image3668" x="254" y="290" />
        <image width="20" height="26" xlink:href="file:///D:/Lunohod/Grfx/design/wall/MetalConstruction/farm_a001.png" id="image3670" x="394" y="290" />
        <image y="290" x="414" id="image3672" xlink:href="file:///D:/Lunohod/Grfx/design/wall/MetalConstruction/farm_a001.png" height="26" width="20" />
        <image width="20" height="26" xlink:href="file:///D:/Lunohod/Grfx/design/wall/MetalConstruction/farm_a001.png" id="image3674" x="434" y="290" />
        <image y="290" x="454" id="image3676" xlink:href="file:///D:/Lunohod/Grfx/design/wall/MetalConstruction/farm_a001.png" height="26" width="20" />
        <image width="20" height="26" xlink:href="file:///D:/Lunohod/Grfx/design/wall/MetalConstruction/farm_a001.png" id="image3678" x="354" y="290" />
        <image y="290" x="374" id="image3680" xlink:href="file:///D:/Lunohod/Grfx/design/wall/MetalConstruction/farm_a001.png" height="26" width="20" />
        <image width="20" height="26" xlink:href="file:///D:/Lunohod/Grfx/design/wall/MetalConstruction/farm_a001.png" id="image3686" x="34" y="0" />
        <image y="0" x="54" id="image3688" xlink:href="file:///D:/Lunohod/Grfx/design/wall/MetalConstruction/farm_a001.png" height="26" width="20" />
        <image width="20" height="26" xlink:href="file:///D:/Lunohod/Grfx/design/wall/MetalConstruction/farm_a001.png" id="image3690" x="74" y="0" />
        <image y="0" x="94" id="image3692" xlink:href="file:///D:/Lunohod/Grfx/design/wall/MetalConstruction/farm_a001.png" height="26" width="20" />
        <image width="20" height="26" xlink:href="file:///D:/Lunohod/Grfx/design/wall/MetalConstruction/farm_a001.png" id="image3695" x="-6" y="0" />
        <image y="0" x="14" id="image3697" xlink:href="file:///D:/Lunohod/Grfx/design/wall/MetalConstruction/farm_a001.png" height="26" width="20" />
        <image y="0" x="154" id="image3699" xlink:href="file:///D:/Lunohod/Grfx/design/wall/MetalConstruction/farm_a001.png" height="26" width="20" />
        <image width="20" height="26" xlink:href="file:///D:/Lunohod/Grfx/design/wall/MetalConstruction/farm_a001.png" id="image3701" x="174" y="0" />
        <image y="0" x="194" id="image3703" xlink:href="file:///D:/Lunohod/Grfx/design/wall/MetalConstruction/farm_a001.png" height="26" width="20" />
        <image width="20" height="26" xlink:href="file:///D:/Lunohod/Grfx/design/wall/MetalConstruction/farm_a001.png" id="image3706" x="214" y="0" />
        <image y="0" x="114" id="image3709" xlink:href="file:///D:/Lunohod/Grfx/design/wall/MetalConstruction/farm_a001.png" height="26" width="20" />
        <image width="20" height="26" xlink:href="file:///D:/Lunohod/Grfx/design/wall/MetalConstruction/farm_a001.png" id="image3711" x="134" y="0" />
        <image width="20" height="26" xlink:href="file:///D:/Lunohod/Grfx/design/wall/MetalConstruction/farm_a001.png" id="image3713" x="274" y="0" />
        <image y="0" x="294" id="image3715" xlink:href="file:///D:/Lunohod/Grfx/design/wall/MetalConstruction/farm_a001.png" height="26" width="20" />
        <image width="20" height="26" xlink:href="file:///D:/Lunohod/Grfx/design/wall/MetalConstruction/farm_a001.png" id="image3717" x="314" y="0" />
        <image y="0" x="334" id="image3719" xlink:href="file:///D:/Lunohod/Grfx/design/wall/MetalConstruction/farm_a001.png" height="26" width="20" />
        <image width="20" height="26" xlink:href="file:///D:/Lunohod/Grfx/design/wall/MetalConstruction/farm_a001.png" id="image3721" x="234" y="0" />
        <image y="0" x="254" id="image3723" xlink:href="file:///D:/Lunohod/Grfx/design/wall/MetalConstruction/farm_a001.png" height="26" width="20" />
        <image y="0" x="394" id="image3725" xlink:href="file:///D:/Lunohod/Grfx/design/wall/MetalConstruction/farm_a001.png" height="26" width="20" />
        <image width="20" height="26" xlink:href="file:///D:/Lunohod/Grfx/design/wall/MetalConstruction/farm_a001.png" id="image3727" x="414" y="0" />
        <image y="0" x="434" id="image3729" xlink:href="file:///D:/Lunohod/Grfx/design/wall/MetalConstruction/farm_a001.png" height="26" width="20" />
        <image width="20" height="26" xlink:href="file:///D:/Lunohod/Grfx/design/wall/MetalConstruction/farm_a001.png" id="image3731" x="454" y="0" />
        <image y="0" x="354" id="image3734" xlink:href="file:///D:/Lunohod/Grfx/design/wall/MetalConstruction/farm_a001.png" height="26" width="20" />
        <image width="20" height="26" xlink:href="file:///D:/Lunohod/Grfx/design/wall/MetalConstruction/farm_a001.png" id="image3736" x="374" y="0" />
        <image width="20" height="26" xlink:href="file:///D:/Lunohod/Grfx/design/wall/MetalConstruction/farm_a001.png" id="image3738" x="474" y="290" />
        <image y="0" x="474" id="image3740" xlink:href="file:///D:/Lunohod/Grfx/design/wall/MetalConstruction/farm_a001.png" height="26" width="20" />
        <image width="20" height="26" xlink:href="file:///D:/Lunohod/Grfx/design/wall/MetalConstruction/farm_a001.png" id="image3385" x="114" y="190" />
        <image y="190" x="134" id="image3746" xlink:href="file:///D:/Lunohod/Grfx/design/wall/MetalConstruction/farm_a001.png" height="26" width="20" />
        <image width="20" height="26" xlink:href="file:///D:/Lunohod/Grfx/design/wall/MetalConstruction/farm_a001.png" id="image3748" x="324" y="94" />
    </g>
    <g inkscape:groupmode="layer" id="layer5" inkscape:label="actionTHE" style="display:inline" sodipodi:insensitive="true">
        <image y="0" x="0" id="image3038" xlink:href="file:///D:/Lunohod/Grfx/objects/visible/Tower/transmitter-2.png" height="30" width="30" />
        <image y="41" x="418" id="image3015" xlink:href="file:///D:/Lunohod/Grfx/objects/visible/Hero/heroDimensions.png" height="23" width="33" />
        <image y="236" x="11" id="image3049" xlink:href="file:///D:/Lunohod/Grfx/objects/visible/Exit/refrigerator.png" height="54" width="37" />
    </g>
    <g inkscape:groupmode="layer" id="layer9" inkscape:label="dash" style="opacity:0.29861109;display:none" sodipodi:insensitive="true">
        <image y="0" x="0" id="image3016" xlink:href="file:///D:/Lunohod/Art/dashboard/screenTapAreas_dash_M_btnSize52.png" height="320" width="480" />
    </g>
    <g inkscape:groupmode="layer" id="layer6" inkscape:label="upmask" sodipodi:insensitive="true" style="display:none">
        <rect style="fill:#ffffff;fill-opacity:1;fill-rule:nonzero;stroke:none" id="rect3011" width="1499.1859" height="380.14673" x="-434.48303" y="-380.14673" />
        <rect style="fill:#ffffff;fill-opacity:1;fill-rule:nonzero;stroke:none" id="rect3013" width="644.82831" height="1098.9973" x="480" y="-256.73999" />
        <rect style="fill:#ffffff;fill-opacity:1;fill-rule:nonzero;stroke:none" id="rect3015" width="1018.1825" height="736.57312" x="-257.47144" y="320" />
        <rect style="fill:#ffffff;fill-opacity:1;fill-rule:nonzero;stroke:none" id="rect3017" width="663.5741" height="1133.1669" x="-663.5741" y="-333.33374" />
    </g>
</svg>
