<?xml version="1.0" encoding="UTF-8" standalone="no"?>
<!-- Created with Inkscape (http://www.inkscape.org/) -->

<svg xmlns:dc="http://purl.org/dc/elements/1.1/" xmlns:cc="http://creativecommons.org/ns#" xmlns:rdf="http://www.w3.org/1999/02/22-rdf-syntax-ns#" xmlns:svg="http://www.w3.org/2000/svg" xmlns="http://www.w3.org/2000/svg" xmlns:xlink="http://www.w3.org/1999/xlink" xmlns:sodipodi="http://sodipodi.sourceforge.net/DTD/sodipodi-0.dtd" xmlns:inkscape="http://www.inkscape.org/namespaces/inkscape" width="480" height="320" id="svg2" version="1.1" inkscape:version="0.48.1 " sodipodi:docname="Lvl_RyadyVragov.svg" inkscape:export-filename="D:\Lunohod\Levels\Lvl_RyadyVragov\Lvl_RyadyVragov.png" inkscape:export-xdpi="90" inkscape:export-ydpi="90">
    <defs id="defs4" />
    <sodipodi:namedview id="base" pagecolor="#ffffff" bordercolor="#666666" borderopacity="1.0" inkscape:pageopacity="0.0" inkscape:pageshadow="2" inkscape:zoom="1.3201856" inkscape:cx="246.42451" inkscape:cy="142.34098" inkscape:document-units="px" inkscape:current-layer="layer8" showgrid="false" width="480px" inkscape:showpageshadow="false" inkscape:window-width="1280" inkscape:window-height="744" inkscape:window-x="-4" inkscape:window-y="-4" inkscape:window-maximized="1" showguides="false" inkscape:guide-bbox="true">
        <sodipodi:guide orientation="0,1" position="320,256" id="guide3018" />
        <sodipodi:guide orientation="0,1" position="160,64" id="guide3020" />
        <sodipodi:guide orientation="1,0" position="400,192" id="guide3022" />
        <sodipodi:guide orientation="1,0" position="80,128" id="guide3024" />
        <sodipodi:guide orientation="0,1" position="240,160" id="guide3005" />
        <sodipodi:guide orientation="1,0" position="240,160" id="guide3007" />
        <sodipodi:guide orientation="1,0" position="0,160" id="guide3072" />
        <sodipodi:guide orientation="1,0" position="480,160" id="guide3074" />
        <sodipodi:guide orientation="0,1" position="240,320" id="guide3076" />
        <sodipodi:guide orientation="0,1" position="240,0" id="guide3078" />
        <inkscape:grid type="xygrid" id="grid3023" />
    </sodipodi:namedview>
    <metadata id="metadata7">
        <rdf:RDF>
            <cc:Work rdf:about="">
                <dc:format>image/svg+xml</dc:format>
                <dc:type rdf:resource="http://purl.org/dc/dcmitype/StillImage" />
                <dc:title></dc:title>
            </cc:Work>
        </rdf:RDF>
    </metadata>
    <g inkscape:groupmode="layer" id="layer4" inkscape:label="blocks" style="display:inline" sodipodi:insensitive="true">
        <image y="12" x="198" id="image3762" xlink:href="file:///D:/Lunohod/Grfx/objects/unvisible/BlockStick/BlockStick.png" height="68" width="78" />
        <image y="0" x="-38" id="image3163" xlink:href="file:///D:/Lunohod/Grfx/objects/unvisible/BlockBounce/BlockBounce.png" height="320" width="50" />
        <image width="50" height="320" xlink:href="file:///D:/Lunohod/Grfx/objects/unvisible/BlockBounce/BlockBounce.png" id="image3166" x="468" y="0" />
        <image width="480" height="80" xlink:href="file:///D:/Lunohod/Grfx/objects/unvisible/BlockBounce/BlockBounce.png" id="image3168" x="0" y="-68" />
        <image y="308" x="0" id="image3170" xlink:href="file:///D:/Lunohod/Grfx/objects/unvisible/BlockBounce/BlockBounce.png" height="80" width="480" />
        <image y="80" x="394" id="image3174" xlink:href="file:///D:/Lunohod/Grfx/objects/unvisible/BlockBounce/BlockBounce.png" height="40" width="40" />
        <image width="78" height="72" xlink:href="file:///D:/Lunohod/Grfx/objects/unvisible/BlockStick/BlockStick.png" id="image3269" x="198" y="280" />
        <image width="78" height="40" xlink:href="file:///D:/Lunohod/Grfx/objects/unvisible/BlockBounce/BlockBounce.png" id="image3275" x="198" y="80" />
        <image y="240" x="198" id="image3277" xlink:href="file:///D:/Lunohod/Grfx/objects/unvisible/BlockBounce/BlockBounce.png" height="40" width="78" />
        <image width="40" height="40" xlink:href="file:///D:/Lunohod/Grfx/objects/unvisible/BlockBounce/BlockBounce.png" id="image3327" x="394" y="160" />
        <image y="240" x="394" id="image3329" xlink:href="file:///D:/Lunohod/Grfx/objects/unvisible/BlockBounce/BlockBounce.png" height="40" width="40" />
        <image width="40" height="40" xlink:href="file:///D:/Lunohod/Grfx/objects/unvisible/BlockBounce/BlockBounce.png" id="image3331" x="46" y="240" />
        <image y="160" x="46" id="image3333" xlink:href="file:///D:/Lunohod/Grfx/objects/unvisible/BlockBounce/BlockBounce.png" height="40" width="40" />
        <image width="40" height="40" xlink:href="file:///D:/Lunohod/Grfx/objects/unvisible/BlockBounce/BlockBounce.png" id="image3336" x="46" y="80" />
        <image width="40" height="40" xlink:href="file:///D:/Lunohod/Grfx/objects/unvisible/BlockStick/BlockStick.png" id="image3338" x="6" y="80.000008" />
        <image y="160" x="6" id="image3340" xlink:href="file:///D:/Lunohod/Grfx/objects/unvisible/BlockStick/BlockStick.png" height="40" width="40" />
        <image width="40" height="40" xlink:href="file:///D:/Lunohod/Grfx/objects/unvisible/BlockStick/BlockStick.png" id="image3342" x="6" y="240" />
        <image y="240" x="434" id="image3344" xlink:href="file:///D:/Lunohod/Grfx/objects/unvisible/BlockStick/BlockStick.png" height="40" width="40" />
        <image width="40" height="40" xlink:href="file:///D:/Lunohod/Grfx/objects/unvisible/BlockStick/BlockStick.png" id="image3346" x="434" y="160" />
        <image y="80" x="434" id="image3348" xlink:href="file:///D:/Lunohod/Grfx/objects/unvisible/BlockStick/BlockStick.png" height="40" width="40" />
    </g>
    <g inkscape:groupmode="layer" id="layer1" inkscape:label="_background" style="display:inline" sodipodi:insensitive="true">
        <image y="0" x="0" id="image3527" xlink:href="file:///D:/Lunohod/Grfx/design/backgrounds/tailsGreen.png" height="320" width="480" />
    </g>
    <g inkscape:groupmode="layer" id="layer7" inkscape:label="_secondbckg" style="display:inline" sodipodi:insensitive="true">
        <image y="15.912743" x="36.747841" id="image3574" xlink:href="file:///D:/Lunohod/Grfx/design/second_bckg/second_phon_ventilation_grille.png" height="30" width="30" />
        <image y="21.365252" x="127.39906" id="image3581" xlink:href="file:///D:/Lunohod/Grfx/design/second_bckg/second_phon_ventilation_grille.png" height="30" width="30" />
        <image width="30" height="30" xlink:href="file:///D:/Lunohod/Grfx/design/second_bckg/second_phon_ventilation_grille.png" id="image3583" x="299.12585" y="16.116211" />
        <image y="23.691242" x="369.41711" id="image3593" xlink:href="file:///D:/Lunohod/Grfx/design/second_bckg/second_phon_grill_with_fan_2.png" height="30" width="30" />
        <image y="14.040094" x="451.21829" id="image3596" xlink:href="file:///D:/Lunohod/Grfx/design/second_bckg/second_phon_ventilation_grille.png" height="30" width="30" />
        <image transform="matrix(0,1,-1,0,0,0)" width="65" height="103" xlink:href="file:///D:/Lunohod/Grfx/design/second_bckg/second_phon_communications2.png" id="image4572" x="273.57147" y="-91.646912" />
        <image transform="matrix(0,1,-1,0,0,0)" width="65" height="103" xlink:href="file:///D:/Lunohod/Grfx/design/second_bckg/second_phon_communications2.png" id="image4574" x="277.05228" y="-198.90141" />
        <image transform="matrix(0,1,-1,0,0,0)" width="65" height="103" xlink:href="file:///D:/Lunohod/Grfx/design/second_bckg/second_phon_communications2.png" id="image4576" x="283.8598" y="-305.7106" />
        <image transform="matrix(0,1,-1,0,0,0)" width="65" height="103" xlink:href="file:///D:/Lunohod/Grfx/design/second_bckg/second_phon_communications2.png" id="image4578" x="272.75217" y="-413.64148" />
        <image y="284.13882" x="422.43121" id="image4588" xlink:href="file:///D:/Lunohod/Grfx/design/second_bckg/second_phon_communications_5.png" height="24.596025" width="54.255936" />
    </g>
    <g inkscape:groupmode="layer" id="layer9" inkscape:label="_traces" sodipodi:insensitive="true" style="opacity:0.5">
        <image y="-478.51407" x="136.69156" id="image3250" xlink:href="file:///D:/Lunohod/Grfx/design/misc/traces_group.png" height="51" width="25" transform="matrix(0,1,-1,0,0,0)" />
        <image transform="matrix(0,1,-1,0,0,0)" width="25" height="51" xlink:href="file:///D:/Lunohod/Grfx/design/misc/traces_group.png" id="image3253" x="136.69156" y="-430.51407" />
        <image transform="matrix(0,1,-1,0,0,0)" width="25" height="51" xlink:href="file:///D:/Lunohod/Grfx/design/misc/traces_group.png" id="image3255" x="136.69156" y="-378.51407" />
        <image y="-330.51407" x="136.69156" id="image3258" xlink:href="file:///D:/Lunohod/Grfx/design/misc/traces_group.png" height="51" width="25" transform="matrix(0,1,-1,0,0,0)" />
        <image y="-278.51407" x="136.69156" id="image3260" xlink:href="file:///D:/Lunohod/Grfx/design/misc/traces_group.png" height="51" width="25" transform="matrix(0,1,-1,0,0,0)" />
        <image transform="matrix(0,1,-1,0,0,0)" width="25" height="51" xlink:href="file:///D:/Lunohod/Grfx/design/misc/traces_group.png" id="image3262" x="136.69156" y="-230.51407" />
        <image transform="matrix(0,1,-1,0,0,0)" width="25" height="51" xlink:href="file:///D:/Lunohod/Grfx/design/misc/traces_group.png" id="image3264" x="136.69156" y="-178.51407" />
        <image y="-130.51407" x="136.69156" id="image3266" xlink:href="file:///D:/Lunohod/Grfx/design/misc/traces_group.png" height="51" width="25" transform="matrix(0,1,-1,0,0,0)" />
        <image y="-78.514069" x="136.69156" id="image3268" xlink:href="file:///D:/Lunohod/Grfx/design/misc/traces_group.png" height="51" width="25" transform="matrix(0,1,-1,0,0,0)" />
        <image transform="matrix(0,1,-1,0,0,0)" width="25" height="51" xlink:href="file:///D:/Lunohod/Grfx/design/misc/traces_group.png" id="image3270" x="136.69156" y="-30.514069" />
        <image transform="matrix(0,1,-1,0,0,0)" width="25" height="51" xlink:href="file:///D:/Lunohod/Grfx/design/misc/traces_group.png" id="image3272" x="222.69156" y="-478.51407" />
        <image y="-430.51407" x="222.69156" id="image3274" xlink:href="file:///D:/Lunohod/Grfx/design/misc/traces_group.png" height="51" width="25" transform="matrix(0,1,-1,0,0,0)" />
        <image y="-378.51407" x="222.69156" id="image3276" xlink:href="file:///D:/Lunohod/Grfx/design/misc/traces_group.png" height="51" width="25" transform="matrix(0,1,-1,0,0,0)" />
        <image transform="matrix(0,1,-1,0,0,0)" width="25" height="51" xlink:href="file:///D:/Lunohod/Grfx/design/misc/traces_group.png" id="image3278" x="222.69156" y="-330.51407" />
        <image transform="matrix(0,1,-1,0,0,0)" width="25" height="51" xlink:href="file:///D:/Lunohod/Grfx/design/misc/traces_group.png" id="image3280" x="222.69156" y="-278.51407" />
        <image y="-230.51407" x="222.69156" id="image3282" xlink:href="file:///D:/Lunohod/Grfx/design/misc/traces_group.png" height="51" width="25" transform="matrix(0,1,-1,0,0,0)" />
        <image y="-178.51407" x="222.69156" id="image3284" xlink:href="file:///D:/Lunohod/Grfx/design/misc/traces_group.png" height="51" width="25" transform="matrix(0,1,-1,0,0,0)" />
        <image transform="matrix(0,1,-1,0,0,0)" width="25" height="51" xlink:href="file:///D:/Lunohod/Grfx/design/misc/traces_group.png" id="image3286" x="222.69156" y="-130.51407" />
        <image transform="matrix(0,1,-1,0,0,0)" width="25" height="51" xlink:href="file:///D:/Lunohod/Grfx/design/misc/traces_group.png" id="image3288" x="222.69156" y="-78.514069" />
        <image y="-30.514069" x="222.69156" id="image3290" xlink:href="file:///D:/Lunohod/Grfx/design/misc/traces_group.png" height="51" width="25" transform="matrix(0,1,-1,0,0,0)" />
    </g>
    <g inkscape:groupmode="layer" id="layer8" inkscape:label="_design" style="display:inline" sodipodi:insensitive="true">
        <image y="80" x="420" id="image3319" xlink:href="file:///D:/Lunohod/Grfx/design/wall/Brick/texture_brick_clean.png" height="20" width="26" />
        <image width="26" height="20" xlink:href="file:///D:/Lunohod/Grfx/design/wall/Brick/texture_brick_clean.png" id="image3321" x="446" y="80" />
        <image width="26" height="20" xlink:href="file:///D:/Lunohod/Grfx/design/wall/Brick/texture_brick_clean.png" id="image3323" x="420" y="100" />
        <image y="100" x="446" id="image3325" xlink:href="file:///D:/Lunohod/Grfx/design/wall/Brick/texture_brick_clean.png" height="20" width="26" />
        <image width="26" height="20" xlink:href="file:///D:/Lunohod/Grfx/design/wall/Brick/texture_brick_clean.png" id="image3311" x="420" y="160" />
        <image y="160" x="446" id="image3313" xlink:href="file:///D:/Lunohod/Grfx/design/wall/Brick/texture_brick_clean.png" height="20" width="26" />
        <image y="180" x="420" id="image3315" xlink:href="file:///D:/Lunohod/Grfx/design/wall/Brick/texture_brick_clean.png" height="20" width="26" />
        <image width="26" height="20" xlink:href="file:///D:/Lunohod/Grfx/design/wall/Brick/texture_brick_clean.png" id="image3317" x="446" y="180" />
        <image y="240" x="420" id="image3303" xlink:href="file:///D:/Lunohod/Grfx/design/wall/Brick/texture_brick_clean.png" height="20" width="26" />
        <image width="26" height="20" xlink:href="file:///D:/Lunohod/Grfx/design/wall/Brick/texture_brick_clean.png" id="image3305" x="446" y="240" />
        <image width="26" height="20" xlink:href="file:///D:/Lunohod/Grfx/design/wall/Brick/texture_brick_clean.png" id="image3307" x="420" y="260" />
        <image y="260" x="446" id="image3309" xlink:href="file:///D:/Lunohod/Grfx/design/wall/Brick/texture_brick_clean.png" height="20" width="26" />
        <image width="26" height="20" xlink:href="file:///D:/Lunohod/Grfx/design/wall/Brick/texture_brick_clean.png" id="image3295" x="10" y="240" />
        <image y="240" x="36" id="image3297" xlink:href="file:///D:/Lunohod/Grfx/design/wall/Brick/texture_brick_clean.png" height="20" width="26" />
        <image y="260" x="10" id="image3299" xlink:href="file:///D:/Lunohod/Grfx/design/wall/Brick/texture_brick_clean.png" height="20" width="26" />
        <image width="26" height="20" xlink:href="file:///D:/Lunohod/Grfx/design/wall/Brick/texture_brick_clean.png" id="image3301" x="36" y="260" />
        <image y="160" x="10" id="image3287" xlink:href="file:///D:/Lunohod/Grfx/design/wall/Brick/texture_brick_clean.png" height="20" width="26" />
        <image width="26" height="20" xlink:href="file:///D:/Lunohod/Grfx/design/wall/Brick/texture_brick_clean.png" id="image3289" x="36" y="160" />
        <image width="26" height="20" xlink:href="file:///D:/Lunohod/Grfx/design/wall/Brick/texture_brick_clean.png" id="image3291" x="10" y="180" />
        <image y="180" x="36" id="image3293" xlink:href="file:///D:/Lunohod/Grfx/design/wall/Brick/texture_brick_clean.png" height="20" width="26" />
        <image width="26" height="20" xlink:href="file:///D:/Lunohod/Grfx/design/wall/Brick/texture_brick_clean.png" id="image3257" x="198" y="292" />
        <image y="292" x="224" id="image3259" xlink:href="file:///D:/Lunohod/Grfx/design/wall/Brick/texture_brick_clean.png" height="20" width="26" />
        <image width="26" height="20" xlink:href="file:///D:/Lunohod/Grfx/design/wall/Brick/texture_brick_clean.png" id="image3261" x="250" y="292" />
        <image y="10" x="198" id="image3213" xlink:href="file:///D:/Lunohod/Grfx/design/wall/Brick/texture_brick_clean.png" height="20" width="26" />
        <image width="26" height="20" xlink:href="file:///D:/Lunohod/Grfx/design/wall/Brick/texture_brick_clean.png" id="image3215" x="224" y="10" />
        <image y="10" x="250" id="image3217" xlink:href="file:///D:/Lunohod/Grfx/design/wall/Brick/texture_brick_clean.png" height="20" width="26" />
        <image y="60" x="-14" id="image3476" xlink:href="file:///D:/Lunohod/Grfx/design/wall/MetalConstruction/detal_me2.png" height="20" width="26" />
        <image width="26" height="20" xlink:href="file:///D:/Lunohod/Grfx/design/wall/MetalConstruction/detal_me2.png" id="image4638" x="-14" y="80" />
        <image y="100" x="-14" id="image4640" xlink:href="file:///D:/Lunohod/Grfx/design/wall/MetalConstruction/detal_me2.png" height="20" width="26" inkscape:label="Filp:ver" />
        <image y="-14" x="0" id="image3332" xlink:href="file:///D:/Lunohod/Grfx/design/wall/MetalConstruction/detal_me1.png" height="26" width="20" />
        <image width="20" height="26" xlink:href="file:///D:/Lunohod/Grfx/design/wall/MetalConstruction/detal_me1.png" id="image3335" x="20" y="-14" />
        <image y="-14" x="40" id="image3337" xlink:href="file:///D:/Lunohod/Grfx/design/wall/MetalConstruction/detal_me1.png" height="26" width="20" />
        <image width="20" height="26" xlink:href="file:///D:/Lunohod/Grfx/design/wall/MetalConstruction/detal_me1.png" id="image3339" x="60" y="-14" />
        <image y="-14" x="80" id="image3341" xlink:href="file:///D:/Lunohod/Grfx/design/wall/MetalConstruction/detal_me1.png" height="26" width="20" />
        <image width="20" height="26" xlink:href="file:///D:/Lunohod/Grfx/design/wall/MetalConstruction/detal_me1.png" id="image3343" x="100" y="-14" />
        <image y="-14" x="120" id="image3345" xlink:href="file:///D:/Lunohod/Grfx/design/wall/MetalConstruction/detal_me1.png" height="26" width="20" />
        <image width="20" height="26" xlink:href="file:///D:/Lunohod/Grfx/design/wall/MetalConstruction/detal_me1.png" id="image3347" x="140" y="-14" />
        <image y="-14" x="160" id="image3349" xlink:href="file:///D:/Lunohod/Grfx/design/wall/MetalConstruction/detal_me1.png" height="26" width="20" />
        <image width="20" height="26" xlink:href="file:///D:/Lunohod/Grfx/design/wall/MetalConstruction/detal_me1.png" id="image3351" x="180" y="-14" />
        <image y="-14" x="200" id="image3353" xlink:href="file:///D:/Lunohod/Grfx/design/wall/MetalConstruction/detal_me1.png" height="26" width="20" />
        <image width="20" height="26" xlink:href="file:///D:/Lunohod/Grfx/design/wall/MetalConstruction/detal_me1.png" id="image3355" x="220" y="-14" />
        <image width="20" height="26" xlink:href="file:///D:/Lunohod/Grfx/design/wall/MetalConstruction/detal_me1.png" id="image3357" x="240" y="-14" />
        <image y="-14" x="260" id="image3359" xlink:href="file:///D:/Lunohod/Grfx/design/wall/MetalConstruction/detal_me1.png" height="26" width="20" />
        <image width="20" height="26" xlink:href="file:///D:/Lunohod/Grfx/design/wall/MetalConstruction/detal_me1.png" id="image3361" x="280" y="-14" />
        <image y="-14" x="300" id="image3363" xlink:href="file:///D:/Lunohod/Grfx/design/wall/MetalConstruction/detal_me1.png" height="26" width="20" />
        <image width="20" height="26" xlink:href="file:///D:/Lunohod/Grfx/design/wall/MetalConstruction/detal_me1.png" id="image3365" x="320" y="-14" />
        <image y="-14" x="340" id="image3367" xlink:href="file:///D:/Lunohod/Grfx/design/wall/MetalConstruction/detal_me1.png" height="26" width="20" />
        <image width="20" height="26" xlink:href="file:///D:/Lunohod/Grfx/design/wall/MetalConstruction/detal_me1.png" id="image3369" x="360" y="-14" />
        <image y="-14" x="380" id="image3371" xlink:href="file:///D:/Lunohod/Grfx/design/wall/MetalConstruction/detal_me1.png" height="26" width="20" />
        <image width="20" height="26" xlink:href="file:///D:/Lunohod/Grfx/design/wall/MetalConstruction/detal_me1.png" id="image3373" x="400" y="-14" />
        <image y="-14" x="420" id="image3375" xlink:href="file:///D:/Lunohod/Grfx/design/wall/MetalConstruction/detal_me1.png" height="26" width="20" />
        <image width="20" height="26" xlink:href="file:///D:/Lunohod/Grfx/design/wall/MetalConstruction/detal_me1.png" id="image3377" x="440" y="-14" />
        <image y="-14" x="460" id="image3379" xlink:href="file:///D:/Lunohod/Grfx/design/wall/MetalConstruction/detal_me1.png" height="26" width="20" />
        <image width="20" height="26" xlink:href="file:///D:/Lunohod/Grfx/design/wall/MetalConstruction/detal_me1.png" id="image3381" x="0" y="308" />
        <image y="308" x="20" id="image3383" xlink:href="file:///D:/Lunohod/Grfx/design/wall/MetalConstruction/detal_me1.png" height="26" width="20" />
        <image width="20" height="26" xlink:href="file:///D:/Lunohod/Grfx/design/wall/MetalConstruction/detal_me1.png" id="image3385" x="40" y="308" />
        <image y="308" x="60" id="image3387" xlink:href="file:///D:/Lunohod/Grfx/design/wall/MetalConstruction/detal_me1.png" height="26" width="20" />
        <image width="20" height="26" xlink:href="file:///D:/Lunohod/Grfx/design/wall/MetalConstruction/detal_me1.png" id="image3389" x="80" y="308" />
        <image y="308" x="100" id="image3391" xlink:href="file:///D:/Lunohod/Grfx/design/wall/MetalConstruction/detal_me1.png" height="26" width="20" />
        <image width="20" height="26" xlink:href="file:///D:/Lunohod/Grfx/design/wall/MetalConstruction/detal_me1.png" id="image3393" x="120" y="308" />
        <image y="308" x="140" id="image3395" xlink:href="file:///D:/Lunohod/Grfx/design/wall/MetalConstruction/detal_me1.png" height="26" width="20" />
        <image width="20" height="26" xlink:href="file:///D:/Lunohod/Grfx/design/wall/MetalConstruction/detal_me1.png" id="image3397" x="160" y="308" />
        <image y="308" x="180" id="image3399" xlink:href="file:///D:/Lunohod/Grfx/design/wall/MetalConstruction/detal_me1.png" height="26" width="20" />
        <image width="20" height="26" xlink:href="file:///D:/Lunohod/Grfx/design/wall/MetalConstruction/detal_me1.png" id="image3401" x="200" y="308" />
        <image y="308" x="220" id="image3403" xlink:href="file:///D:/Lunohod/Grfx/design/wall/MetalConstruction/detal_me1.png" height="26" width="20" />
        <image y="308" x="240" id="image3405" xlink:href="file:///D:/Lunohod/Grfx/design/wall/MetalConstruction/detal_me1.png" height="26" width="20" />
        <image width="20" height="26" xlink:href="file:///D:/Lunohod/Grfx/design/wall/MetalConstruction/detal_me1.png" id="image3407" x="260" y="308" />
        <image y="308" x="280" id="image3409" xlink:href="file:///D:/Lunohod/Grfx/design/wall/MetalConstruction/detal_me1.png" height="26" width="20" />
        <image width="20" height="26" xlink:href="file:///D:/Lunohod/Grfx/design/wall/MetalConstruction/detal_me1.png" id="image3411" x="300" y="308" />
        <image y="308" x="320" id="image3413" xlink:href="file:///D:/Lunohod/Grfx/design/wall/MetalConstruction/detal_me1.png" height="26" width="20" />
        <image width="20" height="26" xlink:href="file:///D:/Lunohod/Grfx/design/wall/MetalConstruction/detal_me1.png" id="image3415" x="340" y="308" />
        <image y="308" x="360" id="image3417" xlink:href="file:///D:/Lunohod/Grfx/design/wall/MetalConstruction/detal_me1.png" height="26" width="20" />
        <image width="20" height="26" xlink:href="file:///D:/Lunohod/Grfx/design/wall/MetalConstruction/detal_me1.png" id="image3419" x="380" y="308" />
        <image y="308" x="400" id="image3421" xlink:href="file:///D:/Lunohod/Grfx/design/wall/MetalConstruction/detal_me1.png" height="26" width="20" />
        <image width="20" height="26" xlink:href="file:///D:/Lunohod/Grfx/design/wall/MetalConstruction/detal_me1.png" id="image3423" x="420" y="308" />
        <image y="308" x="440" id="image3425" xlink:href="file:///D:/Lunohod/Grfx/design/wall/MetalConstruction/detal_me1.png" height="26" width="20" />
        <image width="20" height="26" xlink:href="file:///D:/Lunohod/Grfx/design/wall/MetalConstruction/detal_me1.png" id="image3427" x="460" y="308" />
        <image y="0" x="468" id="image3437" xlink:href="file:///D:/Lunohod/Grfx/design/wall/MetalConstruction/detal_me2.png" height="20" width="26" />
        <image width="26" height="20" xlink:href="file:///D:/Lunohod/Grfx/design/wall/MetalConstruction/detal_me2.png" id="image3440" x="468" y="20" />
        <image y="40" x="468" id="image3442" xlink:href="file:///D:/Lunohod/Grfx/design/wall/MetalConstruction/detal_me2.png" height="20" width="26" />
        <image y="240" x="468" id="image3462" xlink:href="file:///D:/Lunohod/Grfx/design/wall/MetalConstruction/detal_me2.png" height="20" width="26" />
        <image width="26" height="20" xlink:href="file:///D:/Lunohod/Grfx/design/wall/MetalConstruction/detal_me2.png" id="image3464" x="468" y="260" />
        <image y="280" x="468" id="image3466" xlink:href="file:///D:/Lunohod/Grfx/design/wall/MetalConstruction/detal_me2.png" height="20" width="26" />
        <image width="26" height="20" xlink:href="file:///D:/Lunohod/Grfx/design/wall/MetalConstruction/detal_me2.png" id="image3468" x="468" y="300" />
        <image width="26" height="20" xlink:href="file:///D:/Lunohod/Grfx/design/wall/MetalConstruction/detal_me2.png" id="image3470" x="-14" y="0" />
        <image y="20" x="-14" id="image3472" xlink:href="file:///D:/Lunohod/Grfx/design/wall/MetalConstruction/detal_me2.png" height="20" width="26" />
        <image width="26" height="20" xlink:href="file:///D:/Lunohod/Grfx/design/wall/MetalConstruction/detal_me2.png" id="image3474" x="-14" y="40" />
        <image width="26" height="20" xlink:href="file:///D:/Lunohod/Grfx/design/wall/MetalConstruction/detal_me2.png" id="image3494" x="-14" y="240" />
        <image y="260" x="-14" id="image3496" xlink:href="file:///D:/Lunohod/Grfx/design/wall/MetalConstruction/detal_me2.png" height="20" width="26" />
        <image width="26" height="20" xlink:href="file:///D:/Lunohod/Grfx/design/wall/MetalConstruction/detal_me2.png" id="image3498" x="-14" y="280" />
        <image y="300" x="-14" id="image3500" xlink:href="file:///D:/Lunohod/Grfx/design/wall/MetalConstruction/detal_me2.png" height="20" width="26" />
        <image y="-28" x="468" id="image3510" xlink:href="file:///D:/Lunohod/Grfx/design/wall/MetalConstruction/detal_2.png" height="40" width="40" />
        <image width="40" height="40" xlink:href="file:///D:/Lunohod/Grfx/design/wall/MetalConstruction/detal_2.png" id="image3513" x="468" y="308" />
        <image y="308" x="-28" id="image3515" xlink:href="file:///D:/Lunohod/Grfx/design/wall/MetalConstruction/detal_2.png" height="40" width="40" />
        <image width="40" height="40" xlink:href="file:///D:/Lunohod/Grfx/design/wall/MetalConstruction/detal_2.png" id="image3517" x="-28" y="-28" />
        <image width="26" height="20" xlink:href="file:///D:/Lunohod/Grfx/design/wall/MetalConstruction/detal_me2.png" id="image3444" x="468" y="60" />
        <image y="80" x="468" id="image3446" xlink:href="file:///D:/Lunohod/Grfx/design/wall/MetalConstruction/detal_me2.png" height="20" width="26" />
        <image width="26" height="20" xlink:href="file:///D:/Lunohod/Grfx/design/wall/MetalConstruction/detal_me2.png" id="image4636" x="468" y="100" inkscape:label="Flip:ver" />
        <image width="26" height="20" xlink:href="file:///D:/Lunohod/Grfx/design/wall/Brick/texture_brick_clean.png" id="image3195" x="198" y="70" />
        <image y="70" x="224" id="image3197" xlink:href="file:///D:/Lunohod/Grfx/design/wall/Brick/texture_brick_clean.png" height="20" width="26" />
        <image width="26" height="20" xlink:href="file:///D:/Lunohod/Grfx/design/wall/Brick/texture_brick_clean.png" id="image3199" x="250" y="70" />
        <image y="50" x="198" id="image3201" xlink:href="file:///D:/Lunohod/Grfx/design/wall/Brick/texture_brick_clean.png" height="20" width="26" />
        <image width="26" height="20" xlink:href="file:///D:/Lunohod/Grfx/design/wall/Brick/texture_brick_clean.png" id="image3203" x="224" y="50" />
        <image y="50" x="250" id="image3205" xlink:href="file:///D:/Lunohod/Grfx/design/wall/Brick/texture_brick_clean.png" height="20" width="26" />
        <image width="26" height="20" xlink:href="file:///D:/Lunohod/Grfx/design/wall/Brick/texture_brick_clean.png" id="image3207" x="198" y="30" />
        <image y="30" x="224" id="image3209" xlink:href="file:///D:/Lunohod/Grfx/design/wall/Brick/texture_brick_clean.png" height="20" width="26" />
        <image width="26" height="20" xlink:href="file:///D:/Lunohod/Grfx/design/wall/Brick/texture_brick_clean.png" id="image3211" x="250" y="30" />
        <image y="160" x="-14" id="image3231" xlink:href="file:///D:/Lunohod/Grfx/design/wall/MetalConstruction/detal_me2.png" height="20" width="26" />
        <image inkscape:label="Filp:ver" width="26" height="20" xlink:href="file:///D:/Lunohod/Grfx/design/wall/MetalConstruction/detal_me2.png" id="image3233" x="-14" y="180" />
        <image width="26" height="20" xlink:href="file:///D:/Lunohod/Grfx/design/wall/MetalConstruction/detal_me2.png" id="image3235" x="468" y="160" />
        <image inkscape:label="Flip:ver" y="180" x="468" id="image3237" xlink:href="file:///D:/Lunohod/Grfx/design/wall/MetalConstruction/detal_me2.png" height="20" width="26" />
        <image y="272" x="198" id="image3263" xlink:href="file:///D:/Lunohod/Grfx/design/wall/Brick/texture_brick_clean.png" height="20" width="26" />
        <image width="26" height="20" xlink:href="file:///D:/Lunohod/Grfx/design/wall/Brick/texture_brick_clean.png" id="image3265" x="224" y="272" />
        <image y="272" x="250" id="image3267" xlink:href="file:///D:/Lunohod/Grfx/design/wall/Brick/texture_brick_clean.png" height="20" width="26" />
        <image width="26" height="20" xlink:href="file:///D:/Lunohod/Grfx/design/wall/Brick/texture_brick_clean.png" id="image3279" x="10" y="80" />
        <image y="80" x="36" id="image3281" xlink:href="file:///D:/Lunohod/Grfx/design/wall/Brick/texture_brick_clean.png" height="20" width="26" />
        <image y="100" x="10" id="image3283" xlink:href="file:///D:/Lunohod/Grfx/design/wall/Brick/texture_brick_clean.png" height="20" width="26" />
        <image width="26" height="20" xlink:href="file:///D:/Lunohod/Grfx/design/wall/Brick/texture_brick_clean.png" id="image3285" x="36" y="100" />
        <image y="80" x="46" id="image3331-7" xlink:href="file:///D:/Lunohod/Grfx/design/wall/MetalConstruction/box_b_007.png" height="40" width="40" />
        <image width="40" height="40" xlink:href="file:///D:/Lunohod/Grfx/design/wall/MetalConstruction/box_b_007.png" id="image3334" x="46" y="160" />
        <image y="240" x="46" id="image3350" xlink:href="file:///D:/Lunohod/Grfx/design/wall/MetalConstruction/box_b_007.png" height="40" width="40" />
        <image width="40" height="40" xlink:href="file:///D:/Lunohod/Grfx/design/wall/MetalConstruction/box_b_007.png" id="image3352" x="196" y="240" />
        <image width="40" height="40" xlink:href="file:///D:/Lunohod/Grfx/design/wall/MetalConstruction/box_b_007.png" id="image3360" x="394" y="80" />
        <image y="160" x="394" id="image3362" xlink:href="file:///D:/Lunohod/Grfx/design/wall/MetalConstruction/box_b_007.png" height="40" width="40" />
        <image width="40" height="40" xlink:href="file:///D:/Lunohod/Grfx/design/wall/MetalConstruction/box_b_007.png" id="image3364" x="394" y="240" />
        <image y="240" x="236" id="image3354" xlink:href="file:///D:/Lunohod/Grfx/design/wall/MetalConstruction/box_b_007.png" height="40" width="40" />
        <image width="40" height="40" xlink:href="file:///D:/Lunohod/Grfx/design/wall/MetalConstruction/box_b_007.png" id="image3356" x="236" y="80" />
        <image y="80" x="196" id="image3358" xlink:href="file:///D:/Lunohod/Grfx/design/wall/MetalConstruction/box_b_007.png" height="40" width="40" />
    </g>
    <g inkscape:groupmode="layer" id="layer2" inkscape:label="action" style="display:inline" sodipodi:insensitive="true">
        <g id="g3125">
            <image width="40" height="29" xlink:href="file:///D:/Lunohod/Grfx/objects/visible/EnemyRat1/enemy_1.png" id="image3015-1" x="0" y="123" />
            <image y="123" x="40" id="image3018" xlink:href="file:///D:/Lunohod/Grfx/objects/visible/EnemyRat1/enemy_1.png" height="29" width="40" />
            <image width="40" height="29" xlink:href="file:///D:/Lunohod/Grfx/objects/visible/EnemyRat1/enemy_1.png" id="image3020" x="80" y="123" />
            <image y="123" x="120" id="image3022" xlink:href="file:///D:/Lunohod/Grfx/objects/visible/EnemyRat1/enemy_1.png" height="29" width="40" />
            <image width="40" height="29" xlink:href="file:///D:/Lunohod/Grfx/objects/visible/EnemyRat1/enemy_1.png" id="image3024" x="160" y="123" />
            <image y="123" x="200" id="image3026" xlink:href="file:///D:/Lunohod/Grfx/objects/visible/EnemyRat1/enemy_1.png" height="29" width="40" />
            <image width="40" height="29" xlink:href="file:///D:/Lunohod/Grfx/objects/visible/EnemyRat1/enemy_1.png" id="image3028" x="240" y="123" />
            <image y="123" x="280" id="image3030" xlink:href="file:///D:/Lunohod/Grfx/objects/visible/EnemyRat1/enemy_1.png" height="29" width="40" />
            <image y="123" x="480" id="image3041" xlink:href="file:///D:/Lunohod/Grfx/objects/visible/EnemyRat1/enemy_1.png" height="29" width="40" />
            <image width="40" height="29" xlink:href="file:///D:/Lunohod/Grfx/objects/visible/EnemyRat1/enemy_1.png" id="image3043" x="520" y="123" />
            <image y="123" x="560" id="image3045" xlink:href="file:///D:/Lunohod/Grfx/objects/visible/EnemyRat1/enemy_1.png" height="29" width="40" />
            <image width="40" height="29" xlink:href="file:///D:/Lunohod/Grfx/objects/visible/EnemyRat1/enemy_1.png" id="image3047" x="600" y="123" />
            <image y="123" x="640" id="image3050" xlink:href="file:///D:/Lunohod/Grfx/objects/visible/EnemyRat1/enemy_1.png" height="29" width="40" />
            <image width="40" height="29" xlink:href="file:///D:/Lunohod/Grfx/objects/visible/EnemyRat1/enemy_1.png" id="image3052" x="680" y="123" />
            <image y="123" x="720" id="image3054" xlink:href="file:///D:/Lunohod/Grfx/objects/visible/EnemyRat1/enemy_1.png" height="29" width="40" />
            <image width="40" height="29" xlink:href="file:///D:/Lunohod/Grfx/objects/visible/EnemyRat1/enemy_1.png" id="image3056" x="760" y="123" />
            <image y="123" x="800" id="image3058" xlink:href="file:///D:/Lunohod/Grfx/objects/visible/EnemyRat1/enemy_1.png" height="29" width="40" />
            <image width="40" height="29" xlink:href="file:///D:/Lunohod/Grfx/objects/visible/EnemyRat1/enemy_1.png" id="image3060" x="840" y="123" />
            <image y="123" x="880" id="image3062" xlink:href="file:///D:/Lunohod/Grfx/objects/visible/EnemyRat1/enemy_1.png" height="29" width="40" />
            <image width="40" height="29" xlink:href="file:///D:/Lunohod/Grfx/objects/visible/EnemyRat1/enemy_1.png" id="image3064" x="920" y="123" />
            <image y="211" x="0" id="image3066" xlink:href="file:///D:/Lunohod/Grfx/objects/visible/EnemyRat1/enemy_1.png" height="29" width="40" />
            <image width="40" height="29" xlink:href="file:///D:/Lunohod/Grfx/objects/visible/EnemyRat1/enemy_1.png" id="image3068" x="40" y="211" />
            <image y="211" x="80" id="image3070" xlink:href="file:///D:/Lunohod/Grfx/objects/visible/EnemyRat1/enemy_1.png" height="29" width="40" />
            <image width="40" height="29" xlink:href="file:///D:/Lunohod/Grfx/objects/visible/EnemyRat1/enemy_1.png" id="image3072" x="120" y="211" />
            <image y="211" x="160" id="image3074" xlink:href="file:///D:/Lunohod/Grfx/objects/visible/EnemyRat1/enemy_1.png" height="29" width="40" />
            <image width="40" height="29" xlink:href="file:///D:/Lunohod/Grfx/objects/visible/EnemyRat1/enemy_1.png" id="image3076" x="200" y="211" />
            <image y="211" x="240" id="image3078" xlink:href="file:///D:/Lunohod/Grfx/objects/visible/EnemyRat1/enemy_1.png" height="29" width="40" />
            <image width="40" height="29" xlink:href="file:///D:/Lunohod/Grfx/objects/visible/EnemyRat1/enemy_1.png" id="image3088" x="440" y="211" />
            <image width="40" height="29" xlink:href="file:///D:/Lunohod/Grfx/objects/visible/EnemyRat1/enemy_1.png" id="image3090" x="480" y="211" />
            <image y="211" x="520" id="image3092" xlink:href="file:///D:/Lunohod/Grfx/objects/visible/EnemyRat1/enemy_1.png" height="29" width="40" />
            <image width="40" height="29" xlink:href="file:///D:/Lunohod/Grfx/objects/visible/EnemyRat1/enemy_1.png" id="image3094" x="560" y="211" />
            <image y="211" x="600" id="image3096" xlink:href="file:///D:/Lunohod/Grfx/objects/visible/EnemyRat1/enemy_1.png" height="29" width="40" />
            <image width="40" height="29" xlink:href="file:///D:/Lunohod/Grfx/objects/visible/EnemyRat1/enemy_1.png" id="image3098" x="640" y="211" />
            <image y="211" x="680" id="image3100" xlink:href="file:///D:/Lunohod/Grfx/objects/visible/EnemyRat1/enemy_1.png" height="29" width="40" />
            <image width="40" height="29" xlink:href="file:///D:/Lunohod/Grfx/objects/visible/EnemyRat1/enemy_1.png" id="image3102" x="720" y="211" />
            <image y="211" x="760" id="image3104" xlink:href="file:///D:/Lunohod/Grfx/objects/visible/EnemyRat1/enemy_1.png" height="29" width="40" />
            <image width="40" height="29" xlink:href="file:///D:/Lunohod/Grfx/objects/visible/EnemyRat1/enemy_1.png" id="image3106" x="800" y="211" />
            <image y="211" x="840" id="image3108" xlink:href="file:///D:/Lunohod/Grfx/objects/visible/EnemyRat1/enemy_1.png" height="29" width="40" />
            <image width="40" height="29" xlink:href="file:///D:/Lunohod/Grfx/objects/visible/EnemyRat1/enemy_1.png" id="image3110" x="880" y="211" />
            <image y="211" x="920" id="image3112" xlink:href="file:///D:/Lunohod/Grfx/objects/visible/EnemyRat1/enemy_1.png" height="29" width="40" />
            <image inkscape:label="Duration:5.7" width="480" height="4" xlink:href="file:///D:/Lunohod/Grfx/objects/unvisible/Moving/left.png" id="image3122" x="-480" y="123" />
        </g>
        <image width="28" height="22" xlink:href="file:///D:/Lunohod/Grfx/objects/visible/Food/fishType04.png" id="image3304" x="87.500877" y="164.32336" />
        <image width="28" height="22" xlink:href="file:///D:/Lunohod/Grfx/objects/visible/Food/fishType04.png" id="image3306" x="129.91916" y="174.17047" />
        <image width="28" height="22" xlink:href="file:///D:/Lunohod/Grfx/objects/visible/Food/fishType04.png" id="image3308" x="170.82249" y="166.59578" />
        <image width="28" height="22" xlink:href="file:///D:/Lunohod/Grfx/objects/visible/Food/fishType04.png" id="image3310" x="254.1441" y="162.80843" />
        <image y="174.17047" x="274.59576" id="image3300" xlink:href="file:///D:/Lunohod/Grfx/objects/visible/Food/fishType04.png" height="22" width="28" />
        <image y="50.490334" x="436.20914" id="image3320" xlink:href="file:///D:/Lunohod/Grfx/objects/visible/Food/fishType07.png" height="30" width="32" />
    </g>
    <g inkscape:groupmode="layer" id="layer5" inkscape:label="actionTHE" style="display:inline" sodipodi:insensitive="true">
        <image y="0" x="0" id="image3038" xlink:href="file:///D:/Lunohod/Grfx/objects/visible/Tower/transmitter-2.png" height="30" width="30" />
        <image y="41" x="47" id="image3015" xlink:href="file:///D:/Lunohod/Grfx/objects/visible/Hero/heroDimensions.png" height="23" width="33" />
        <image y="250" x="291" id="image3049" xlink:href="file:///D:/Lunohod/Grfx/objects/visible/Exit/refrigerator.png" height="50" width="34" />
    </g>
    <g inkscape:groupmode="layer" id="layer3" inkscape:label="foreground" style="display:none" sodipodi:insensitive="true" />
    <g inkscape:groupmode="layer" id="layer6" inkscape:label="upmask" sodipodi:insensitive="true" style="display:none">
        <rect style="fill:#ffffff;fill-opacity:1;fill-rule:nonzero;stroke:none" id="rect3011" width="1499.1859" height="380.14673" x="-434.48303" y="-380.14673" />
        <rect style="fill:#ffffff;fill-opacity:1;fill-rule:nonzero;stroke:none" id="rect3013" width="644.82831" height="1098.9973" x="480" y="-256.73999" />
        <rect style="fill:#ffffff;fill-opacity:1;fill-rule:nonzero;stroke:none" id="rect3015" width="1018.1825" height="736.57312" x="-257.47144" y="320" />
        <rect style="fill:#ffffff;fill-opacity:1;fill-rule:nonzero;stroke:none" id="rect3017" width="663.5741" height="1133.1669" x="-663.5741" y="-333.33374" />
    </g>
</svg>
